<svg version="1" xmlns="http://www.w3.org/2000/svg" width="1200" height="1200" viewBox="0 0 900.000000 900.000000"><path d="M192.6 37c-4.1 1.3-10.4 7.8-11.6 12-.6 2.2-1 115.7-1 319.2V684h36V72h576l-.3 348.7c-.2 324.4-.4 349.2-1.9 354.3-3.8 12.2-9.7 22-19.3 31.6-7.6 7.6-10.5 9.8-18.5 13.8-11.1 5.4-20.1 7.6-32 7.6-11.9 0-20.9-2.2-31.9-7.6-7.8-3.9-11-6.2-18.1-13.3-9.7-9.6-14.8-17.8-18.7-29.9-2.2-6.6-2.6-10.4-3.2-25.7-.6-17.3-.7-18.2-3.4-22.7-1.5-2.7-4.2-5.6-6-6.5-3-1.7-18-1.8-275.2-2.1-187.9-.2-273.5.1-276.9.8-6.1 1.3-11.3 5.1-13.2 9.6-1.9 4.6-1.9 31.4.1 42.5 6.2 35.6 29.2 65.7 62 81 10.3 4.9 20.4 7.5 33.6 8.9 13.9 1.4 549.9 1.4 562.4 0 45.5-5.3 81.5-36.8 93.8-82.4l2.2-8.1.3-360.5c.1-198.3 0-361.5-.3-362.7-.8-3.5-6.6-9.4-11-11.4-3.8-1.8-16.2-1.9-312.5-1.8-172.2 0-309.8.5-311.4.9zm418.8 721.2c.3 1.3 1 5.9 1.6 10.3 2.7 18.5 11.7 39.2 24.6 56l2.6 3.5H405.4c-261.7 0-241.7.5-257.1-7.1-14.6-7.2-29.1-22.9-35.6-38.4-2.6-6.1-5.7-19.3-5.7-24V756h504l.4 2.2z"/><path d="M641 182.1c-4.7 1-54.4 11.3-110.5 22.9-56.1 11.6-103.6 21.5-105.5 22.2-5 1.6-8 3.8-9.3 6.7-.9 1.9-1.3 36.8-1.7 131.3l-.5 128.7-3 3.1c-4 4.2-10.3 5.7-27 6.5-30.8 1.4-50.3 8.7-63.9 23.7-12 13.2-15.8 26.9-12.2 43.9 4.2 19.8 17.3 32.5 39.6 38.6 9.3 2.6 35.4 2.5 46.5-.1 30.4-7 51.8-25.2 55.6-47.1.6-4 .9-45.2.7-121.5-.1-63.5.2-117.2.6-119.2.8-3.7 1-3.8 9-6.2 15-4.6 34-9.5 65.6-17 17.3-4.1 44.3-10.6 60-14.5 22.8-5.7 30-7.1 36.1-7.1 7.1 0 7.7.2 8.3 2.2.3 1.3.6 37.4.6 80.3 0 75.7-.1 78.1-2 81.2-1 1.8-3.7 4.1-5.8 5.2-4.4 2.2-16.3 4.1-26.2 4.1-37.9 0-68 19.8-73.1 48.1-3.5 19.8 7.1 42.8 23.8 51.6 10.7 5.7 28.9 8.8 45.3 7.9 37.1-2 68-22.4 73-48.1.8-4.4 1-47.8.8-162.5-.3-148.4-.4-156.7-2.1-159.8-2.2-4.1-7.2-7.2-11.2-7.1-1.6.1-6.8 1-11.5 2z"/></svg>