<?xml version="1.0" encoding="UTF-8"?>
<!DOCTYPE svg  PUBLIC '-//W3C//DTD SVG 1.1//EN'  'http://www.w3.org/Graphics/SVG/1.1/DTD/svg11.dtd'>
<svg width="1195pt" height="428pt" version="1.1" viewBox="0 0 1195 428" xmlns="http://www.w3.org/2000/svg">
<path d="m534.55 358.19c2.7 7.61 6.6 14.77 11.82 20.95-2.6 0.23-5.49-0.09-7.73 1.5-1.65 1.17-2.85 2.82-4.14 4.35 0.1-8.94 0.01-17.87 0.05-26.8z" fill="#fff"/>
<g fill="#333">
<path d="m603.33 6.34c2.7 3.9 3.92 8.69 6.84 12.41 4.41 1.47 9.25 1.05 13.65 2.63-3.13 3.35-6.86 6.17-9.65 9.81-0.12 4.74 1.58 9.31 1.8 14.04-4.4-1.79-8.25-5.03-12.88-6.1-4.3 1.63-8.13 4.27-12.35 6.1 0.38-4.69 1.91-9.26 1.95-13.97-2.82-3.76-6.8-6.5-9.72-10.2 4.55-0.92 9.3-1 13.74-2.36 2.83-3.72 4.21-8.36 6.62-12.36z"/>
<path d="m600.41 48.46c0.93-1.52 3.38-2.06 4.46-0.42 12.68 15.05 25.23 30.23 37.85 45.33 0.6 0.98 2.11 2.04 1.2 3.27-6.3 0.47-12.63 0.07-18.93 0.19 10.33 12.39 20.65 24.8 31.01 37.17 1.04 1.01 2.41 3.61-0.01 3.79-5.66 0.31-11.33 0.02-16.99 0.12 17.89 21.47 35.78 42.95 53.7 64.4 1.32 1.27 1.2 3.14 1.31 4.83-1.62 0.45-3.28 0.84-4.97 0.78-59.38-0.06-118.76 0.01-178.15-0.04-1.39-0.02-3.48-0.21-3.66-1.99-0.4-1.53 0.82-2.78 1.64-3.91 17.82-21.35 35.61-42.74 53.45-64.09-5.35-0.15-10.75 0.41-16.06-0.27-1.54-1 0.04-2.66 0.76-3.62 10.41-12.34 20.65-24.83 31.06-37.17-5.49 0.02-10.99-0.02-16.48 0.02-0.35-2 1.3-3.4 2.42-4.82 12.18-14.48 24.21-29.09 36.39-43.57z"/>
<path d="m403.64 56.16c1.59 2.61 2.81 5.42 4.24 8.12 0.38 1.01 1.11 1.54 2.19 1.61 3.04 0.57 6.13 0.88 9.17 1.47-2.53 2.56-5.13 5.05-7.68 7.57 0.6 3.53 1.17 7.07 1.7 10.61-3.18-1.57-6.31-3.23-9.43-4.92-3.27 1.58-6.44 3.32-9.71 4.89 0.56-3.54 1.22-7.05 1.72-10.59-2.51-2.55-5.12-5-7.58-7.6 3.47-0.71 7.07-0.81 10.47-1.83 2.04-2.87 3.13-6.3 4.91-9.33z"/>
<path d="m801.73 56.13c1.73 3.03 2.97 6.33 4.87 9.26 3.4 1.18 7.1 1.17 10.61 1.97-2.5 2.56-5.08 5.05-7.61 7.58 0.58 3.53 1.15 7.06 1.68 10.61-3.18-1.6-6.32-3.25-9.45-4.93-3.27 1.56-6.44 3.31-9.7 4.88 0.45-3.48 1.36-6.9 1.6-10.4-2.14-2.89-5.06-5.07-7.43-7.74 3.45-0.77 7.03-0.86 10.43-1.87 2.02-2.91 3.15-6.33 5-9.36z"/>
<path d="m397.98 92.03c1.58-1.84 2.95-3.95 4.95-5.39 1.46-0.01 2.19 1.44 3.12 2.32 8.89 10.77 17.9 21.44 26.81 32.19 0.74 0.95 1.32 1.99 1.75 3.13-4.87 0.17-9.75 0.06-14.62 0.1 7.15 8.38 14.03 16.98 21.22 25.33 1.35 1.65 3 3.23 3.23 5.49-4.65 0.15-9.29 0.1-13.93 0.08 13.43 16.01 26.77 32.09 40.17 48.12 1.47 1.18 2.01 4.56-0.66 4.42-45.35 0.16-90.72 0.06-136.07 0.05-2.36 0.51-3.64-2.08-1.92-3.7 13.49-16.36 27.14-32.6 40.71-48.89-3.94-0.06-7.88 0.23-11.8-0.13-1.43-0.48-0.28-2.14 0.29-2.83 7.86-9.26 15.53-18.69 23.37-27.97-4.28 0.02-8.58 0.16-12.85-0.2 0.66-1.1 1.34-2.2 2.14-3.21 7.97-9.68 16.1-19.24 24.09-28.91z"/>
<path d="m789.71 99.59c3.79-4.41 7.29-9.09 11.3-13.32 1.25 0.95 2.47 1.97 3.48 3.19 7.68 9.35 15.51 18.58 23.22 27.92 1.75 2.21 4.01 4.15 4.91 6.92-4.88 0.14-9.77 0.04-14.65 0.09 7.51 8.78 14.79 17.76 22.27 26.57 1.08 1.21 1.97 2.58 2.21 4.23-4.64 0.17-9.29 0.11-13.93 0.09 13.42 16 26.75 32.08 40.15 48.1 1.45 1.16 2.03 4.56-0.63 4.43-44.67 0.22-89.35 0-134.03 0.11-1.56-0.15-3.46 0.31-4.68-0.92-0.19-1.37 0.21-2.55 1.21-3.52 13.41-16.06 26.8-32.14 40.19-48.21-4.28-0.39-9.02 1.08-12.95-1 8.15-10.08 16.53-19.97 24.83-29.93-4.3 0.03-8.61 0.18-12.9-0.2 6.08-8.62 13.39-16.32 20-24.55z"/>
<path d="m199.11 218.2c267.71 0.05 535.42 0.04 803.14 0.01-0.01 2.37-0.01 4.76 0 7.14-267.71-0.01-535.43-0.01-803.14 0 0.01-2.38 0.01-4.77 0-7.15z"/>
<path d="m34.75 260.73c12.12-10.43 28.28-15.95 44.25-15.15 8.52 0.38 16.6 3.29 24.77 5.46 6.31 1.93 13.57 0.44 18.09-4.52 2.44-0.03 4.89-0.02 7.34-0.02v44.52c-1.9-0.03-3.8-0.04-5.69-0.08-5.82-13.24-13.52-26.58-25.98-34.58-10.99-7.04-26.15-7.29-37.13-0.08-9.52 6.1-15.4 16.41-18.9 26.92-5.54 16.98-6.44 35.33-3.66 52.92 2.76 15.95 9.7 32.23 23.15 41.99 10.79 8.06 25.61 9.31 38.12 4.85 12.84-4.49 22.73-14.64 30.2-25.68 1.77 1.14 3.57 2.23 5.35 3.37-8.39 13.21-20.61 24.53-35.72 29.38-17.94 5.71-38.49 4.62-54.96-4.91-11.97-6.76-21.4-17.59-27.15-30.02-7.45-15.87-9.18-34.09-6.1-51.26 3.03-16.44 11.16-32.23 24.02-43.11m-6.96 11.12c-11.68 14.92-16.57 34.46-15.31 53.21 1.09 17.37 7.54 34.94 20.19 47.24 10.24 10.33 24.18 16.43 38.52 18.22-16.2-4.96-31.16-14.85-40.6-29.09-18.13-26.48-16.02-64.27 3.48-89.44 6.17-8.56 14.68-14.98 23.11-21.16-11.21 4.61-21.9 11.33-29.39 21.02m76.42-15.62c5.44 4.36 9.79 9.85 13.92 15.42-0.2-5.71-0.33-11.42-0.51-17.13-4.22 1.81-8.86 2.45-13.41 1.71z"/>
<path d="m556.05 246.98c8.14-2.55 16.8-1.29 25 0.33 6.49 1.2 13.38 2.88 19.81 0.49 2.89-1.13 6.03-0.79 9.06-0.8 1.26 13.71 2.65 27.41 3.91 41.12-2.18 0.05-4.33-0.13-6.5-0.12-4.71-9.89-10.36-19.51-17.96-27.46-8.37-9.16-22.65-13.62-34.25-8.24-8.91 4.17-14.83 13.84-14.61 23.66-0.13 5.9 1.95 12.14 6.77 15.83 7.64 6.05 17.57 7.55 26.81 9.59 7.71 1.8 15.62 2.81 23.13 5.39 11.85 4.04 21.37 14.01 25.14 25.92 4.02 12.72 2.53 27.07-3.92 38.74-7.05 13.09-21.45 22.16-36.47 21.57-12.06 0.57-22.07-8.14-33.96-8.51-4.58-0.16-8.67 2.48-11.4 5.99-1.71 0.02-3.41 0.03-5.11 0.05-0.01-17.07 0.01-34.15-0.01-51.22 2.02-0.01 4.05-0.01 6.07-0.01 4.39 13.6 10.46 27.14 20.69 37.38 6.74 6.71 16.04 11.25 25.7 10.8 10.09-0.1 19.72-6.42 24.06-15.48 3.2-6.77 3.27-14.67 1.59-21.85-1.9-7.93-8.41-14.07-15.76-17.12-11.91-4.56-24.81-5.31-36.98-8.93-9.45-2.98-18.05-9.41-22.48-18.42-6.1-12.35-5.56-27.48 0.41-39.77 4.16-8.81 11.82-16.13 21.26-18.93m31.58 7.62c6.98 4.97 11.19 12.58 16.13 19.37-0.9-6.46-2.02-12.88-2.97-19.33-4.3 1.35-8.86 1.15-13.16-0.04m-53.54 41.37c2.67 10.74 10.18 20.62 20.8 24.45 12.83 4.34 26.66 4.75 39.43 9.27 9.3 3.29 16.82 11.42 18.64 21.21 1.77 7.55 0.06 15.34-2.87 22.36 8.04-9.25 9.41-23.05 4.71-34.16-3.44-7.21-10.24-12.41-17.6-15.2-11.31-4.23-23.33-5.95-35.09-8.41-9.68-2.2-18.73-8.24-23.37-17.18-4-6.98-4.42-15.22-4.25-23.07-1.52 6.77-2.22 13.93-0.4 20.73m0.46 62.22c-0.04 8.93 0.05 17.86-0.05 26.8 1.29-1.53 2.49-3.18 4.14-4.35 2.24-1.59 5.13-1.27 7.73-1.5-5.22-6.18-9.12-13.34-11.82-20.95z"/>
<path d="m1100.1 258.94c5.46-7.27 13.93-12.27 23.01-13.18 10.11-1.25 19.89 2.41 29.87 3.21 6.17 0.7 11.77-3.07 17.98-1.97 1.26 13.7 2.64 27.38 3.91 41.08-2.11-0.01-4.19 0.04-6.27 0.07-4.91-9.62-10.22-19.21-17.7-27.1-7.72-8.7-20.32-13.34-31.68-9.97-10.18 3.17-17.56 13.32-17.66 23.96-0.32 6.19 1.68 12.87 6.77 16.76 8.24 6.48 18.98 7.75 28.88 10.03 9.88 2.27 20.48 3.22 29.19 8.87 9.58 5.97 16.3 16.14 18.35 27.22 3.05 15.94-1.89 33.66-14.08 44.66-9.63 9.04-23.83 12.42-36.59 9.38-8.07-2.32-15.6-6.74-24.07-7.46-4.92-0.45-9.47 2.2-12.39 5.99-1.7 0.02-3.41 0.02-5.08 0.04-0.01-17.08 0.01-34.15 0-51.22 2.01-0.01 4.03-0.01 6.06-0.01 4.17 12.95 9.87 25.78 19.21 35.87 6.71 7.28 16.19 12.5 26.28 12.33 8.92 0.18 17.61-4.45 22.74-11.7 4.51-6.2 5.52-14.26 4.56-21.71-0.62-5.93-3.33-11.65-7.88-15.57-6.62-6.33-15.98-7.88-24.56-9.83-10.6-2.28-21.96-3.21-31.21-9.4-7.57-4.77-13.01-12.56-15.18-21.21-3.43-13.27-0.75-28.15 7.54-39.14m64.69 15.03c-0.89-6.46-2.02-12.88-2.95-19.33-4.28 1.35-8.8 1.14-13.09 0 6.91 5 11.13 12.56 16.04 19.33m-69.34 1.25c-1.25 6.34-2.09 12.93-0.66 19.31 1.88 8.58 6.57 16.79 13.79 21.96 5.41 4.03 12.1 5.56 18.6 6.85 10.09 2.32 20.67 3.1 30.27 7.23 8.76 3.73 15.38 12.06 16.78 21.51 1.41 7.21-0.36 14.51-3.1 21.18 8.06-9.26 9.41-23.09 4.69-34.21-3.56-7.39-10.6-12.65-18.2-15.39-11.15-4.05-22.93-5.76-34.49-8.17-10.19-2.3-19.6-8.92-24.04-18.53-3.47-6.69-3.59-14.38-3.64-21.74m0.14 82.96c-0.04 8.94 0.05 17.87-0.05 26.81 1.6-1.88 3.07-4.07 5.44-5.06 2.04-0.77 4.27-0.62 6.44-0.79-5.23-6.18-9.13-13.34-11.83-20.96z"/>
<path d="m1006.6 247.55c3.38-1.32 7.08-0.65 10.63-0.77 14.09 39.52 28.17 79.05 42.26 118.58 1.74 4.66 3.55 9.45 6.74 13.35 3.02 3.59 7.66 5.09 12.01 6.37 0 1.81-0.01 3.62 0.02 5.43-18.16 0.02-36.32 0.01-54.47 0-0.02-1.83-0.01-3.64 0-5.46 4.04-0.71 8.45-0.95 11.96-3.32 3.41-3.09 2.05-8.28 0.87-12.12-3.9-10.86-7.78-21.72-11.66-32.59-14.51 0.02-29.01-0.05-43.51 0.04-3.23 10.84-9.37 21.34-8.25 33.02 0.58 7.67 6.62 14.84 14.63 15.09-0.02 1.78-0.03 3.57-0.03 5.36-14.14-0.02-28.28-0.01-42.42-0.01-0.02-1.79-0.02-3.58-0.01-5.37 11.88-2.57 18.1-14.39 22.11-24.79 10.93-30.63 21.87-61.26 32.63-91.95-1.56-2.21-2.92-4.73-5.31-6.16-2.43-1.45-5.29-1.81-8.01-2.34-0.01-1.64-0.01-3.27 0-4.9 6.6-2.49 13.21-4.96 19.81-7.46m-12.14 10.61c8.06 3.86 10.19 13.07 13 20.73 9.69 27.25 19.38 54.5 29.08 81.75 1.91 5.66 4.58 11.35 4.29 17.47 0.08 3.18-2.95 4.91-4.9 6.9 2.09-0.12 4.31 0.11 6.27-0.83 3.05-1.41 4.94-4.84 4.68-8.17-0.5-7.33-3.45-14.17-5.83-21.03-9.59-26.76-19.2-53.52-28.79-80.28-1.85-4.87-3.19-10.21-6.78-14.16-2.86-3.02-7.28-2.48-11.02-2.38m-10.75 72.34c12.99 0 25.97 0.01 38.95-0.01-6.51-18.17-13.05-36.33-19.57-54.5-6.46 18.17-12.93 36.34-19.38 54.51m-16.85 39.19c-2.62 5.94-6.55 11.28-11.65 15.32 5.82-0.01 11.65-0.04 17.48 0.02-4.46-3.8-6.1-9.65-5.83-15.34z"/>
<path d="m143.43 248.5c20.42-0.01 40.84 0.01 61.26-0.01 0.01 1.82 0.01 3.64 0.02 5.46-5.16 0.34-11.02 0.12-15.22 3.66-3.62 3.42-3.27 8.85-3.66 13.41-0.29 14.16-0.06 28.32-0.13 42.48h65.28c-0.02-14.84 0.05-29.67-0.03-44.51-0.16-4.33-0.6-9.69-4.75-12.15-4.41-2.25-9.54-2.24-14.35-2.87v-5.47h61.27c-0.01 1.82-0.01 3.64 0 5.46-5.26 0.51-11.33 0.05-15.61 3.69-3.71 4.13-3.15 10.2-3.5 15.36-0.1 31.32-0.08 62.63-0.01 93.95 0.3 4.87-0.08 10.59 3.55 14.4 4.14 3.9 10.28 3.53 15.57 3.68-0.01 1.82-0.01 3.64 0 5.47-20.43-0.01-40.87 0.06-61.31-0.03 0.02-1.83 0.04-3.64 0.06-5.45 5.71-0.75 13.08-0.05 16.9-5.26 2.94-5.75 1.98-12.51 2.21-18.75-0.01-13.33 0.01-26.66 0-40h-65.28c0.06 15.66-0.12 31.32 0.09 46.98 0.25 4.77 0.17 10.69 4.58 13.72 4.27 2.62 9.52 2.6 14.33 3.31v5.49h-61.27v-5.49c5.84-0.49 13.56 0.2 17.06-5.6 2.74-5.35 2.14-11.62 2.34-17.44-0.02-30.69 0.02-61.38-0.02-92.07-0.15-4.38-0.43-9.64-4.22-12.53-4.49-2.83-10.03-2.99-15.16-3.44v-5.45m16.09 5.33c5.13 3.23 6.36 9.47 6.23 15.12 0.06 33.61 0.1 67.22-0.02 100.83 0.15 5.75-1.7 11.58-6.22 15.35 3.09-0.14 6.79-0.04 8.85-2.82 3.32-4.7 3.18-10.8 3.37-16.32-0.03-31.36 0.09-62.71-0.06-94.06-0.39-5 0.37-10.64-2.64-14.98-2.14-3.06-6.2-2.95-9.51-3.12m88.1 0.05c5.14 2.74 6.5 8.74 6.37 14.12 0.08 33.32-0.01 66.63 0.04 99.94-0.04 3.43-0.02 6.93-0.98 10.25-0.83 2.97-3.3 4.98-5.54 6.91 3.16-0.18 6.87 0.21 9.29-2.27 2.73-2.87 2.94-7.11 3.03-10.84-0.01-33.68 0-67.36-0.01-101.04-0.17-4.56-0.17-9.37-2.16-13.58-1.99-3.56-6.54-3.33-10.04-3.49z"/>
<path d="m303.77 248.5c23.73-0.01 47.46 0.01 71.2-0.01 15.14-0.42 31.75 5.09 40.19 18.39 6.06 9.42 7.22 21.79 2.91 32.14-5.29 13.29-18.54 22.03-32.34 24.3 7.47 8.3 13.78 17.54 20.63 26.33 4.41 5.88 9.19 11.48 13.55 17.4 5.61 7.17 11.56 14.95 20.48 18.07 0.01 1.79 0.01 3.59 0.02 5.4-7.17-0.21-14.39 0.49-21.51-0.45-9.04-1.74-15.73-8.79-21.23-15.69-10.46-13.36-19.62-27.69-29.97-41.13-2.51-3.03-4.99-6.5-8.78-7.98-3.9-0.57-7.86-0.14-11.78-0.24 0.04 15.01-0.06 30.02 0.05 45.03 0.22 4.27 0.72 9.48 4.84 11.86 4.63 2.59 10.13 2.76 15.31 3.18-0.01 1.8-0.02 3.6-0.01 5.41-21.19 0.02-42.38 0.01-63.57 0 0-1.84 0.01-3.66 0.01-5.49 5.25-0.32 10.87-0.15 15.65-2.66 4.62-2.66 4.87-8.64 5.03-13.36 0.03-32.67 0.07-65.33-0.02-97.99-0.27-4.78-0.19-10.75-4.54-13.83-4.78-2.98-10.7-2.78-16.12-3.22 0-1.82-0.01-3.64 0-5.46m16.45 5.34c2.31 1.58 4.96 3.2 5.85 6.04 1.44 4.57 1.2 9.43 1.33 14.16 0 32.64 0.03 65.28-0.01 97.92 0.24 5.12-1.82 10.28-6.16 13.19 3.32-0.46 7.04-0.82 9.48-3.42 2.31-2.29 2.43-5.73 2.44-8.77-0.04-32.98 0.01-65.95-0.02-98.93-0.25-5.17 0.29-10.66-1.82-15.52-1.98-4.19-7.04-4.63-11.09-4.67m32.22 2.6c-4.84 3.09-4.96 9.44-5.24 14.57-0.12 16.16-0.02 32.33-0.05 48.49 10.12-0.22 20.67 1.11 30.29-2.84 7.06-2.36 13.3-7.6 15.71-14.78 3.02-8.64 3.04-18.23 0.97-27.08-2.48-10.3-11.22-19.43-22.08-20.35-6.49-0.46-13.71-1.43-19.6 1.99m29.83-1.94c6.93 4.21 12.69 10.72 14.59 18.76 2.22 9.27 2.4 19.2-0.11 28.43-2.28 8.35-9.73 13.82-17.24 17.26 10.2-1.1 19.71-7.92 22.93-17.83 3.31-10.22 3.21-21.78-0.82-31.78-3.23-8-10.93-13.5-19.35-14.84m-18.58 70.5c5.45 5.03 9.83 11.07 14.21 17.03 6.05 8.34 11.91 16.82 17.84 25.25 4.58 6.31 9.64 12.53 16.27 16.79 3.73 2.45 8.23 3.21 12.6 3.55-5.56-3.31-10.43-7.63-14.58-12.58-11.11-13.07-19.94-27.89-30.94-41.04-2.53-2.86-4.28-6.48-7.48-8.66-2.57-0.68-5.3-0.23-7.92-0.34z"/>
<path d="m450.74 248.5c20.36 0 40.73-0.01 61.09 0.01-0.01 1.81-0.01 3.62 0 5.43-4.79 0.31-9.83 0.56-14.13 2.95-2.53 1.48-3.85 4.37-4.16 7.2-1.08 10.6-0.68 21.26-0.75 31.89 0.02 24-0.03 48 0.03 72 0.2 4.79 0.38 10.54 4.45 13.82 4.24 2.91 9.67 2.55 14.56 3.22-0.01 1.83-0.01 3.66-0.01 5.5-20.36-0.01-40.72 0.01-61.09-0.01 0-1.82 0-3.64 0.01-5.46 5.02-0.3 10.58-0.26 14.84-3.36 4.06-3.23 3.78-8.96 4.11-13.65 0.11-29.02 0.01-58.05 0.05-87.08-0.07-6.23 0.27-12.53-0.92-18.68-0.51-2.69-2.28-5.16-4.9-6.11-4.22-1.54-8.78-1.61-13.18-2.19-0.01-1.83-0.01-3.66 0-5.48m15.32 5.36c6 3.93 7.38 11.6 6.73 18.26-0.2 31.62-0.04 63.25-0.09 94.88-0.09 3.64 0.35 7.37-0.61 10.94-0.89 3.35-4.07 5.19-6.61 7.2 3.44-0.45 7.11-0.7 10.1-2.64 2.72-1.85 3.1-5.45 3.15-8.47 0.01-35.34 0-70.68 0.01-106.02-0.05-4-0.35-8.48-3.18-11.57-2.52-2.43-6.27-2.32-9.5-2.58z"/>
<path d="m643.18 248.51c38.89-0.02 77.79-0.01 116.68 0 2.18 11.05 4.39 22.1 6.6 33.15-2.19 0-4.37 0.02-6.54 0.03-5.83-10.81-14.09-21.29-26.08-25.44-6.86-1.98-14.09-2-21.16-2.25-0.01 38.34-0.01 76.67-0.01 115.01 0.05 4.72 0.8 10.41 5.26 13.07 4.64 2.56 10.12 2.53 15.27 2.95-0.01 1.83-0.01 3.65 0.01 5.48-21.44 0.02-42.87 0.01-64.31 0-0.01-1.83 0-3.66 0-5.48 5.16-0.39 10.75-0.12 15.39-2.76 5.04-3.24 5.38-9.86 5.47-15.26 0.02-37.68 0.01-75.35 0-113.02-10.31 0.09-21.12 1.82-29.74 7.86-7.43 5.05-12.19 12.85-17.62 19.8-1.88 0.02-3.76 0.01-5.62 0.03 2.12-11.06 4.29-22.11 6.4-33.17m2.18 5.52c-1.15 5.68-2.39 11.35-3.52 17.05 4.62-7.12 10.76-13.15 18.34-17.07-4.94 0.01-9.88 0-14.82 0.02m47.42-0.31c-0.14 38.78 0.04 77.56-0.09 116.34 0.15 5.68-1.73 11.5-6.37 15.06 2.73-0.25 5.78 0 8.13-1.71 2.09-1.41 2.81-4.01 3.28-6.35 1.2-6.63 0.88-13.4 0.94-20.1-0.03-30.66 0.06-61.31-0.04-91.97-0.02-4.38-0.57-10.31-5.85-11.27m42.02 0.36c8.79 2.65 15.54 9.16 21.3 16.02-1.37-5.36-2.75-10.72-4.12-16.08-5.73 0-11.45-0.03-17.18 0.06z"/>
<path d="m774.21 248.51c13.97-0.02 27.94-0.01 41.91-0.01 13.66 35.87 27.29 71.75 40.96 107.62 13.38-35.87 26.74-71.74 40.1-107.62 13.22 0 26.43-0.01 39.65 0.01-0.02 1.8-0.01 3.62 0 5.43-5.08 0.32-10.96 0.26-14.8 4.16-3.7 4.03-2.77 9.92-3.19 14.93-0.25 31.65-0.04 63.3-0.11 94.95 0.11 4.8 0.22 10.6 4.38 13.83 3.99 2.74 9.09 2.67 13.72 3.23-0.02 1.82-0.01 3.65-0.01 5.48-19.72-0.01-39.44 0.01-59.15-0.01-0.01-1.82-0.01-3.64 0-5.45 4.99-0.29 10.61-0.35 14.6-3.82 3.79-3.25 3.14-8.73 3.5-13.22 0.08-33.85 0.11-67.71-0.02-101.57-15.18 41.36-30.4 82.72-45.59 124.08-1.78-0.01-3.56-0.05-5.33-0.05-14.95-39.98-29.87-79.98-45-119.89-0.17 26.8-0.02 53.6-0.08 80.39 0.04 8.43 0.66 17.5 5.63 24.64 3.53 5.12 9.4 7.88 15.24 9.48-0.01 1.8-0.01 3.61-0.01 5.42-15.46 0-30.93-0.01-46.4 0.01-0.01-1.81-0.02-3.61-0.01-5.4 5.45-0.83 10.91-3.1 14.38-7.57 5.13-6.27 6.12-14.73 6.09-22.56-0.02-30.86 0.05-61.71-0.03-92.56-5.08-5.84-12.76-8.92-20.46-8.53 0.01-1.8 0.01-3.61 0.03-5.4m14.46 5.43c3.46 1.83 6.92 3.98 9.16 7.29 4.17 6.01 6.27 13.11 8.97 19.84 13.32 34.66 26.47 69.4 39.9 104.01 1.96-3.99 2.62-8.6 0.78-12.77-12.45-33.48-25.11-66.89-37.62-100.35-2.02-5.23-4.14-10.69-8.2-14.69-3.47-3.3-8.52-3.34-12.99-3.33m110.95 5.42c-1.35 7.79-0.64 15.76-0.83 23.63 0 28.68 0 57.36 0.01 86.03-0.05 3.31 0.02 6.7-0.96 9.91-0.91 2.8-3.55 4.43-5.74 6.15 3.85-0.1 9.4 0.34 11.07-4.12 2.35-7.75 1.32-16 1.56-23.99 0.01-26.99 0-53.98 0.01-80.97 0.02-7.42-0.29-14.96 1.52-22.22-3.06 0.5-6.11 2.28-6.64 5.58m-114.79 125.62c6.38 0.05 12.76-0.03 19.14 0.06-4.54-2.94-7.12-7.93-8.26-13.08-1.89 5.54-6.06 9.87-10.88 13.02z"/>
<path d="m199.1 413.7c267.72 0.02 535.44 0.01 803.15 0-0.01 2.37-0.01 4.75 0 7.13-267.71-0.03-535.43-0.04-803.15 0 0.02-2.38 0.02-4.75 0-7.13z"/>
</g>
</svg>
