<?xml version="1.0" encoding="UTF-8"?>
<svg baseProfile="tiny" version="1.2" viewBox="0 0 2390 621" xml:space="preserve" xmlns="http://www.w3.org/2000/svg">
		<path d="m991.08 39.65c9.87-4.46 21.6-6.08 31.87-2.01 8.02 3.18 13.16 11.2 14.71 19.45 1.57 6.32 0.57 13.27-2.94 18.78 9.24 0.64 16.66 6.86 24.21 11.57 4.86 2.89 10.33 4.44 15.38 6.93-5.4 0.91-10.96 0.28-16.28 1.7-5.97 1.53-12.09 2.42-18.24 1.98 12.71 9.06 24.24 20.65 30.42 35.21 5.34 12.11 5.72 26.11 1.86 38.7-1 0.39-1.37-1-1.95-1.48-3.28-4.7-7.17-8.92-10.74-13.38-0.36-1.84 0.14-3.72 0.22-5.58 1.23-14.21-2.95-29.25-13.08-39.58-5.67-6.22-13.12-10.3-20.22-14.63-14.61-8.45-29.74-16.21-45.71-21.73 8.38 5.94 16.32 12.54 23.45 19.95 2.12 2.62 5.85 2.1 8.76 3.16 14.15 3.68 24.94 15.36 30.57 28.48 4.05 8.81 3.39 20.1-3.06 27.63-4.84 5.58-11.71 9.04-18.69 11.13-6.14 0.83-13.02 1.06-18.27-2.78-7.52-4.92-9.18-16.16-4.09-23.41 2.47-4.14 7.26-5.75 11.74-6.6-1.49 0.67-2.96 1.33-4.44 1.96-2.71 4.45-0.28 10.58 4.57 12.25 7.22 2.66 15.4-3.51 16.77-10.65-9.11-11.89-18.05-24.03-28.79-34.52-3.47-1.78-7.62-0.93-11.37-0.91 5.29 1.4 10.9 3.5 14.13 8.2 4.96 7.38 2.6 19.27-5.91 22.92-5.5 2.66-11.63 1.19-17.21-0.28 3.46-0.29 7.6 1.12 10.49-1.4 4.45-3.72 3.1-11.9-2.24-14.13-5.2-2.21-10.95 0.56-14.7 4.24-4.76 4.35-8.73 10.86-7.04 17.51 5.43-2.3 12.42-2.41 16.81 2.05 5.76 5.46 6.05 14.24 3.73 21.38-0.39-2.14-0.15-4.64-1.81-6.29-3.65-4.18-10.95-3.55-14.37 0.62-4.83 5.17-5 12.78-4.05 19.4 1.79 9.44 9.5 16.63 17.97 20.46 10.63 4.81 23.03 6.54 34.35 3.16 12.64-3.59 24.42-10.93 32.24-21.61 3.55 5.35 7.13 10.68 10.67 16.04-6.31 5.61-14.02 9.19-20.84 14.08 10.36 1.44 20.61 5.45 28.47 12.46 5.08 4.61 8.67 11.48 7.71 18.47-1.44 9.63-8.17 17.99-16.74 22.38-4.11 2.34-8.71 3.56-13.26 4.7-9.67 1.82-19.59 1.27-29.13-0.98-11.57-3.03-21.08-11.23-32.87-13.55-17.25-2-33.67 5.88-48.13 14.4 11.85-9.72 22.73-21.98 38.11-25.96 11.56-3.62 23.57-0.03 34.76 3.2 10.84 3.57 23.43 3.73 33.73-1.59 6.75-3.31 7.97-13.6 2.21-18.42-7.41-6.22-17.64-7.19-26.9-8.03-7.31-0.97-14.79-0.01-22.02-1.74-15.19-3.08-29.88-10.45-40.26-22.12-9.78-10.93-13.03-26.12-12.69-40.41 0.55-13.34 4.94-26.88 14.24-36.7 9.54-10.1 23.32-14.72 36.73-16.82-19.21-17.02-41.91-31.93-67.8-35.56-13.07-0.74-27.14-0.25-38.6 6.81-6.33 3.84-11.76 9.98-13.03 17.45-0.63 6.27 0.11 12.8 2.82 18.53 1.47 2.87 4.2 5.75 7.74 5.28 5.19 0.08 9.28-5.02 9.34-9.96-0.1-2.58-2.02-4.5-3.36-6.52 2.27 1.88 4.87 3.87 5.45 6.96 1.52 7.55-2.5 15.11-7.94 20.12-3.94 3.76-9.5 4.88-14.67 5.82-6.23 1.03-12.52-0.63-18.15-3.26-0.95 10.36-1.56 20.8-3.95 30.97-1.68 10.83-4.13 21.69-9.22 31.49-9.3 19.68-28.9 33.07-49.95 37.3-5.31 3.82-9.86 8.94-12.91 14.76-2.82 5.28-3.53 12.37 0.38 17.3 3.99 4.39 10.87 4.59 16.15 2.76 0.17 0.09 0.49 0.26 0.65 0.34-5.65 3.53-12.22 4.86-18.79 5.16-6.59-0.58-13.56-1.39-19.11-5.31-4.59-3.28-6.23-9.49-5.1-14.85 1.54-9.2 8.58-16.91 17.2-20.18-3.71-0.94-7.1-3.07-10.86-3.64-14.52 10.18-30.38 18.7-47.49 23.61-15.02 4.63-31 6.03-46.6 4.15-18.9-2.57-36.8-10.64-51.92-22.16-8.27-6.31-15.97-13.32-23.2-20.78 1.42-1.66 2.85-3.32 4.26-5 12.86 12.28 26.23 24.37 41.99 32.86 13.04 7.21 27.75 11.79 42.73 11.74 27.67-0.01 55.34-9.75 76.77-27.28-16.43-11.27-25.25-31.65-24.91-51.28 0.75-11.19 4.19-22.27 10.73-31.46 8.89-12.87 21.74-23.94 37.27-27.53 15.55-3.48 32.08 4.13 41.16 16.87 6.24-9.97 13.04-19.69 21.06-28.32-5.85 1.07-11.94-0.1-17.37-2.37-5.35-2.35-8.85-7.5-10.09-13.1-0.16-4.17 1.21-8.46 4.21-11.44 4.54-4.65 10.94-6.64 17.01-8.43-2.27 2.15-5.81 4.27-5.18 7.91 1.56 3.28 5 5.1 8.37 6.01 5.01 0.91 10.21 0.52 15.08-0.96 9.07-3.06 17.45-7.94 26.82-10.15 16.99-4.14 34.67-7.36 52.17-4.69 11.99 1.23 23.21 5.92 34.87 8.69 8.06 1.97 16.15 3.88 24.25 5.73l0.68 0.52c3.41 0.26 6.84 0.3 10.27 0.08 2.38-1.23 5.2-2.21 6.57-4.71 3.38-5.19 1.95-12.79-3.13-16.35-8.63-6.2-21.77-4.46-28.63 3.63 1.11-6.99 6.99-12.02 13.12-14.82zm30.17 9.3c3.12 5.79 4.93 12.89 2.49 19.25-2.65 6.5-9.57 10.21-16.38 10.39 5.19 0.64 10.74 0.26 15.39-2.33 3.84-2.08 6.01-6.5 5.86-10.8 0.35-6.22-2.84-11.89-6.49-16.67-0.22 0.04-0.65 0.12-0.87 0.16zm-158.08 57.35c1.01 5.54 6.72 8.57 11.98 8.5-0.77-0.39-1.52-0.78-2.26-1.18-2.35-1.94-4.73-4.15-5.48-7.23-2.36-7.69 0.22-15.67-0.09-23.47-2.25 7.54-5.71 15.39-4.15 23.38zm-37.57 25.04c0.56 1.37 1.11 2.73 1.69 4.1 1.36 6.21 1.9 12.75 0.26 18.97-2.27 10.31-9.44 19.52-19.13 23.81-8.88 3.68-19.35 3.18-27.82-1.38-5.63-2.96-10.41-7.96-11.91-14.27-0.83-9.86 4.52-20.39 13.66-24.58 4-1.95 8.63-1.53 12.82-0.49-4.01 0.45-8.51 0.65-11.54 3.7-3.23 3.24-2.72 8.34-1.92 12.45 1.99 5.38 8.81 7.66 13.84 5.19 7.75-3.31 10.85-12.49 10.94-20.34 0.51-14.11-14.98-25.62-28.39-21.8-11.04 2.61-19.61 11.35-24.68 21.17-10.67 20.97-3.81 49.12 15.36 62.76 9.12 6.81 21.94 7.34 32.13 2.73 7.94-3.56 15.71-7.87 21.83-14.16 13.58-13.4 20.59-32.12 23.08-50.75 0.98-8.04 1.92-16.09 3.04-24.12 1.59-9.8 3.51-19.87 8.87-28.41-12.82 13.51-22.8 29.39-32.13 45.42zm207.91-7.29c-0.05 5.51 0.84 11.23-1.06 16.55-1.83 6.37-6.78 12.06-13.42 13.51 8.3 1.52 15.06-5.86 16.35-13.48 0.7-5.56 0.79-11.49-1.87-16.58zm-80.09 32.46c-0.27 5.86 1.15 11.57 2.52 17.22 0.47 0.07 1.41 0.22 1.89 0.3-0.33-0.26-0.98-0.79-1.3-1.05 0.41-7.99-0.66-17.45 5.46-23.67-1.74 0.65-3.44 1.37-5.15 2.06-0.41-2.96-0.62-5.94-0.75-8.91-0.24-1.17-0.71-3.52-0.94-4.69-0.43 6.26-1.98 12.43-1.73 18.74z" fill="#323232"/>
		<path d="m1368.1 36.89c10.3-3.13 21.6-1.33 31.14 3.37 5.58 2.88 10.87 7.67 11.82 14.2-6.86-8.12-20.04-9.8-28.66-3.59-5.02 3.59-6.479 11.16-3.09 16.32 1.36 2.48 4.14 3.49 6.54 4.69 8.2 1.21 15.99-1.98 23.89-3.6 10.11-2.22 20.12-4.93 30-8.05 15.02-4.31 30.99-5.51 46.44-3.04 12.16 1.99 24.5 4.08 35.78 9.26 7.64 3.25 15.46 7.31 24.03 6.67 4.72-0.03 10.1-1.9 12.35-6.37 0.76-3.69-2.83-5.82-5.15-7.94 7.55 2.06 16.19 4.96 19.91 12.49 3.69 7.53-1.08 16.7-8.2 20.16-5.52 2.58-11.82 3.54-17.85 2.69 7.95 8.65 14.78 18.29 20.96 28.26 5.56-7.58 13.52-13.38 22.53-16.12 8.99-2.67 18.92-1.78 27.42 2.14 14.03 6.35 25.32 17.95 32.61 31.41 10.28 19.58 8.06 44.62-4.83 62.48-3.53 5.46-8.42 9.73-13.31 13.89 16.67 13.05 36.54 21.9 57.43 25.43 10.94 1.5 22.17 2.27 33.11 0.21 18.28-3.25 34.8-12.73 49.21-24.13 7.67-5.88 14.52-12.71 21.65-19.21 1.39 1.67 2.8 3.33 4.22 4.99-13.53 13.84-28.59 26.71-46.42 34.64-18.26 8.39-38.93 10.97-58.74 7.9-23.27-3.59-45.06-13.89-64.14-27.43-3.73 0.8-7.12 2.71-10.77 3.78 9.33 3.37 16.72 12.2 17.48 22.21 0.46 4.87-1.5 10.04-5.57 12.9-5.56 3.78-12.43 4.59-18.95 5.17-7.09-0.14-13.84-2.2-20-5.62 0.56 0.11 1.67 0.35 2.23 0.46 4.9 1.04 10.65 1.32 14.76-2.06 3.87-3.39 4.32-9.18 3.17-13.9-2.37-7.96-8.29-14.22-14.58-19.35-15.92-3.02-31.04-11.31-41.43-23.84-6.3-7.61-10.74-16.63-13.72-26.02-2.74-8.38-3.6-17.2-5.47-25.79-1.33-7.94-1.77-15.99-2.63-23.98-7.04 3.6-15.33 4.62-22.93 2.27-9.99-1.85-17.62-11.48-18.15-21.44-0.39-4.2 2.04-8.01 5.59-10.07-6.35 5.13-1.63 16.22 6.19 16.09 4.02 0.5 6.93-3.14 8.33-6.47 2.34-5.95 3.05-12.6 1.94-18.89-2.63-9.92-11.72-16.54-20.97-19.83-9.76-3.12-20.23-3.58-30.38-2.87-25.88 3.64-48.63 18.51-67.76 35.62 10.71 1.59 21.43 4.82 30.33 11.18 11.18 7.92 17.88 21.03 19.85 34.41 1.91 12.37 0.49 25.37-4.48 36.9-7.99 16.85-25.1 27.47-42.58 32.32-11.83 3.53-24.32 1.62-36.33 3.94-6.86 1.33-14.49 2.93-19.12 8.63-4.33 5.1-2.31 13.81 3.59 16.78 7.72 4.23 16.94 4.6 25.52 3.69 10.06-2.07 19.73-6.2 30.08-6.76 8.74-0.49 17.42 2.21 24.96 6.52 7.68 4.38 13.97 10.69 20.75 16.29 1.91 1.54 3.76 3.15 5.48 4.93-8.12-5.41-17.08-9.52-26.37-12.44-7.47-2.35-15.48-3.36-23.23-2.03-10.15 2.5-18.66 8.97-28.46 12.4-10.44 3.1-21.54 3.9-32.26 1.87-1.32-0.35-2.66-0.66-3.95-0.96-8.88-2.51-17.5-7.61-22.22-15.77-2.83-4.88-4.939-10.75-3.5-16.41 1.35-6.72 6.26-12.11 11.8-15.84 7.2-4.8 15.54-7.95 24.14-9.01-6.85-4.89-14.6-8.44-20.87-14.11 3.59-5.31 7.06-10.71 10.64-16.03 9.271 12.56 23.93 20.73 39.26 23.1 10.22 1.11 20.77-1.09 29.85-5.88 7.65-4.15 14.46-11.3 15.59-20.25 1.31-6.55 0.08-14.07-4.74-18.96-3.59-3.69-10.47-3.94-13.91 0.07-1.54 1.72-1.43 4.15-1.8 6.28-0.83-4.07-2.03-8.28-0.91-12.42 0.96-5.68 5.05-11.11 10.87-12.36 3.74-0.93 7.52 0.25 11.12 1.24 0.95-8.72-4.84-16.79-12.19-20.89-3.77-2.1-9.16-2.51-12.34 0.84-3.88 3.58-3.44 10.97 1.49 13.44 2.89 0.93 6.01 0.33 9.021 0.45-5.59 1.5-11.74 2.91-17.2 0.2-9.53-4.12-11.26-18.65-3.65-25.38 3.3-3 7.61-4.55 11.86-5.68-3.8-0.31-7.66-0.4-11.33 0.71-8.07 8.46-15.66 17.37-22.67 26.74-1.95 2.92-4.65 5.45-5.98 8.69 1.84 6.75 9.7 12.56 16.74 9.92 4.82-1.69 7.24-7.87 4.45-12.28-1.5-0.61-2.98-1.25-4.43-1.89 3.35 0.68 6.81 1.53 9.45 3.87 6 5.5 7.02 15.51 2.27 22.12-3.44 5.12-9.77 7.31-15.71 7.45-7.04 0.09-13.66-2.85-19.45-6.62-6.77-4.47-11.64-12.23-11.34-20.5-0.54-7.31 2.87-14.13 6.58-20.19 6.18-9.94 15.78-18.14 27.36-20.84 2.63-0.83 5.95-0.52 7.82-2.92 7.09-7.42 15.09-13.89 23.36-19.95-19.27 6.86-37.48 16.47-54.77 27.34-8.99 5.57-16.52 13.74-20.55 23.58-3.38 8.54-4.46 17.9-3.43 27.01 0.04 1.6 0.68 3.55-0.76 4.75-4.25 4.48-7.7 9.61-11.77 14.23-0.85-3.27-1.57-6.58-2.27-9.89-0.45-5.08-0.45-10.19-0.02-15.27 3.16-20.69 17.75-37.56 34.44-49.2-5.76 0.19-11.51-0.33-17.07-1.82-5.71-1.63-11.67-1.11-17.49-1.89 5.67-2.83 11.89-4.51 17.2-8.06 6.78-4.59 13.87-9.67 22.25-10.57-7.911-13.52-1.381-34.13 13.999-38.91zm-7.25 23.72c-1.16 5.16-0.41 11.43 4.12 14.81 4.62 3.31 10.71 3.83 16.23 3.2-6.85-0.39-13.68-4.33-16.14-10.95-2.38-6.49 0.11-13.28 2.74-19.26-3.59 3.15-5.8 7.62-6.95 12.2zm160.82 22.54c-0.19 7.68 2.22 15.54 0.02 23.12-1.03 3.89-4.17 6.71-7.68 8.4 5.54 0.41 11.34-3.43 12.03-9.18 1-7.68-1.9-15.2-4.37-22.34zm9.62 2.87c2.3 3.48 3.92 7.35 5.18 11.32 5.87 18.93 4.69 39.21 10.36 58.18 5.64 19.09 17.98 37.14 36.53 45.54 8.04 4.72 17.7 6.54 26.83 4.39 6.33-1.67 11.84-5.62 16.38-10.24 7.31-7.5 11.57-17.45 13.67-27.6 0.53-7.35 0.77-14.92-1.58-22-3.88-12.88-13.48-24.96-26.81-28.67-12.6-4.11-27.53 5.43-29.19 18.54-0.61 7.11 1.1 14.89 6.14 20.18 3.82 4.12 10.79 5.76 15.48 2.13 3.24-2.42 3.8-6.7 4.04-10.45-0.89-2.56-1.57-5.6-4.08-7.08-2.99-2.27-6.86-2.33-10.41-2.75 4.87-1.33 10.36-1.36 14.76 1.44 9.29 5.71 15.17 18.92 9.61 29.06-8.88 13.52-29.25 16.46-42.38 7.58-14.02-9.31-19.18-29.04-12.41-44.28-9.31-15.99-19.19-31.94-32.12-45.29zm-176.45 39.38c-3.03 8.64-2.35 19.9 5.12 26.13 2.65 2.38 6.31 2.74 9.729 2.8-5.17-1.81-9.689-5.5-11.9-10.59-2.82-5.54-2.51-11.84-2.29-17.86 0.29-0.32 0.88-0.94 1.17-1.25-0.449 0.19-1.369 0.57-1.829 0.77zm77.71 12.4c0.28 4.52 0.37 9.07-0.34 13.57-1.78-0.7-3.521-1.42-5.29-2.08 4.81 4.31 5.08 11.2 5.47 17.21-0.19 2.67 0.61 5.7-1 8.05 0.54-0.34 1.1-0.68 1.68-1.02 3.62-11.59 3.19-24.09 0.07-35.73h-0.59z" fill="#323232"/>
		<path d="m364.43 50.18c7.47-2.59 16.23-1.51 22.56 3.35 4.06 2.96 6.97 7.83 6.62 12.96 0.38 8.51-5.68 16.34-13.46 19.29-4.37 0.59-8.93 1.11-13.2-0.26-3.23-0.95-5.76-3.26-8.37-5.25-0.15 3.74-0.76 7.88 1.48 11.16 2.69 4.41 8 6.4 12.96 6.59 11.29 0.75 21.82-4.27 32.92-5.29 26.39-3.16 52.7 2.89 78.22 9-5.47 0.5-10.85-0.8-16.29-1.1-7.26-1.07-14.57-1.69-21.9-1.95-10.37-1.07-20.77 0.03-31.13 0.69-22.05 2.56-44.34 9.1-62.12 22.85-8.01 5.9-15.85 12.75-25.75 15.16-8.52 1.99-18.57 0.5-24.71-6.21-6.54-7.15-9.13-17.22-8.91-26.74-0.31-9.27 3.04-18.22 7.25-26.33 5.34-9.95 13.68-19.35 25.14-21.89 2.09-0.13 4.2-0.19 6.3-0.09-3.43 1.87-7.14 3.7-9.34 7.08-4.64 6.81-5.04 15.49-4.15 23.43 1.31 7.84 5.86 15.48 13.1 19.15 2.87 1.63 6.25 1.17 9.39 1.01 5.14-1.73 10.33-3.48 15.75-4.09-6.49-0.74-12.25-5.25-14.71-11.26-3.63-8.35-1.55-18.16 3.31-25.56 4.59-6.93 11.05-13.01 19.04-15.7zm-58.42 41.21c-2.51 7.65-1.92 16.53 2.87 23.18 3.34 4.9 9.29 7.49 15.12 7.5 5.21 0.24 9.94-2.38 14.19-5.11-6.93 0.59-14.38 0.74-20.42-3.27-8.02-4.25-12.09-13.48-11.76-22.3z" fill="#323232"/>
		<path d="m2008.4 50.15c8.03-2.88 17.2-0.91 24.04 3.97 7.22 5.11 13.04 12.54 15.48 21.11 1.57 6.24 1.21 13.26-2.26 18.83-2.83 4.71-7.87 7.96-13.31 8.63 5.38 0.66 10.55 2.36 15.67 4.09 3.11 0.18 6.46 0.61 9.35-0.97 8.5-4.3 13.44-13.95 13.48-23.3 0.28-6.88-0.64-14.27-4.91-19.9-2.24-3.07-5.74-4.73-8.94-6.54 7.14-0.69 14.23 2.19 19.57 6.83 8.771 7.58 14.4 18.19 17.61 29.2 1.939 6.31 1.72 13.02 1.21 19.53-1.28 8.66-4.88 17.73-12.4 22.79-7.979 5.08-18.51 4.72-26.92 0.88-10.35-4.7-18.42-13.01-28.07-18.86-16.36-9.92-35.24-15-54.14-17.08-10.9-0.88-21.87-1.69-32.78-0.56-12.13 0.13-24.07 3.16-36.19 2.94 22.3-5.38 45.03-10.54 68.12-9.81 8.43 0.22 16.84 1.53 24.99 3.72 7.13 1.82 14.66 3.36 22 1.82 4.55-0.94 8.8-4.06 10.26-8.59 0.67-2.82 0.35-5.75 0.24-8.61-4.92 4.53-11.76 7.52-18.5 6-11.19-1.39-19.2-13.95-15.87-24.68 1.74-5.65 6.91-9.48 12.27-11.44zm74.49 42.64c0.45 8.94-4.771 17.86-12.93 21.66-5.78 3.42-12.66 2.93-19.08 2.51 3.99 2.51 8.31 5.02 13.18 5.09 5.87 0.25 12.09-2.02 15.69-6.85 4.9-6.3 5.81-14.93 3.73-22.48-0.14 0.02-0.44 0.05-0.59 0.07z" fill="#323232"/>
	<path d="m1182.7 90.17c2.69-9.39 7.18-18.13 11.9-26.64 5.24 9.9 10.66 19.98 12.81 31.08 0.43 4.64 1 9.72-1.35 13.96-2.15 4.2-6.68 6.68-11.17 7.51-6.29-0.48-12.32-5.23-13.33-11.63-0.58-4.77-0.25-9.67 1.14-14.28z" fill="#323232"/>
		<path d="m911.23 76.68c3.47-5.3 9.77-7.64 15.81-8.45 3.85-0.22 7.58 0.82 11.33 1.49-7.97-1.43-11.71 8.48-9.31 14.73 1.54 4.53 6.19 7.76 11.01 7.27 4.13-0.46 7.99-2.18 12.01-3.15 5.62-1.18 11.46-1.85 17.1-0.32 2.7 1.18 5.5 2.11 8.33 2.94-10.9-1.07-22.37 1.76-30.67 9.12-8.3 6.99-11.76 17.83-14 28.07-2.82 17.07-1.68 34.84-7.67 51.31-2.38 9.77-1.36 20.24 1.82 29.71 2.18 6.34 9.45 10.32 15.92 8.21 4.92-1.47 8.12-7.32 6.18-12.18-0.79-2.27-3.13-3.18-4.97-4.37-2.85-0.03-5.52 0.9-8.07 2.04 1.52-2.52 3.65-5.27 6.88-5.36 6.03-0.81 12.06 2.69 15.16 7.75 2.15 3.21 1.92 7.27 1.52 10.93-1.89 8.15-9.18 14.91-17.58 15.7-7.04 0.68-14.69 0.25-20.66-3.93-7.17-4.79-10.2-13.77-10.27-22.08-3.44 2.36-6.04 5.7-9.44 8.09-8.2 6.27-18.05 11.49-28.65 11.02-7.69 0.17-15.27-3.82-19.55-10.18-4.52-6.54-5.31-14.9-4.63-22.62 0.41-2.06 0.72-4.14 1.06-6.21 1.04 5.17 3.76 10.26 8.79 12.49 9.01 5.09 20.04 2.98 28.53-2.14 0.15-0.3 0.46-0.91 0.61-1.22-7.15-0.68-14.47-3.83-18.7-9.85-4.86-7.19-6.35-16.74-3.24-24.92 2.11-6.24 7.13-11.78 13.65-13.42 3.13-0.61 6.35-0.51 9.53-0.32 7.88 0.43 15.51 7.23 15.2 15.44-0.58 7.41-8.12 12.78-15.3 11.95-5.21 0.3-9.89-4.48-9.57-9.66-0.38-4.75 2.61-9.14 6.96-10.89-6.66-0.04-12.54 6.18-11.97 12.85 0.53 7.35 3.39 15.72 10.47 19.15 6.52 2.62 14.53 3.49 20.57-0.79 7.23-5.26 9.4-14.91 9.23-23.38-0.14-10.59-7.08-19.27-9.92-29.13-0.83-3.95-0.48-8.01-0.11-11.99 2.08-5.93 7.28-9.95 13.2-11.64-3.77-2.33-5.75-6.46-7.78-10.21-3.68-6.79-2.87-15.43 1.19-21.85zm10.25 9.31c-0.22 0.01-0.66 0.02-0.88 0.03-1.07 4.97-2.53 10.71 0.35 15.36 2.51 3.19 6.32 4.92 9.92 6.61 1.15-3.01 3.19-5.52 5.38-7.83-3.84 0.27-8.35 0.46-11.03-2.83-3.76-3.71-2.93-9.26-3.13-14.03-0.22 0.89-0.43 1.79-0.61 2.69zm-0.8 33.22c-3.08 2.2-6.09 5.2-6.38 9.18-0.86 5.9 3.29 10.7 4.85 16.08 1.25-11.57 5.38-22.48 9.86-33.12-2.64 2.76-5.18 5.67-8.33 7.86z" fill="#323232"/>
		<path d="m1450.7 69.74c6.87-1.91 14.49-2.24 20.9 1.38 7.31 3.65 10.48 12.52 9.68 20.28-1.11 6.61-4.71 12.76-9.54 17.36 3.97 1.69 8.24 3.58 10.53 7.47 3.28 4.56 2.8 10.54 2.16 15.82-2.54 9.45-8.99 17.61-9.89 27.54-0.53 7.56 0.78 15.72 5.51 21.85 3.85 5.14 10.79 7.35 17 6.16 3.78-0.73 7.88-1.49 10.76-4.28 4.72-4.55 6.77-11.33 6.87-17.76 0.1-6.44-5.75-11.99-12.13-11.94 7.95 2.43 10 14.91 2.69 19.23-6.94 3.7-17.08 0.18-19.65-7.44-2.58-6.49 1.9-13.67 7.71-16.61 3.23-1.96 7.08-1.89 10.69-2.49 5.5 0.33 11.13 2.13 14.71 6.56 7.94 8.84 7.91 23.03 1.28 32.61-4.2 6.07-11.48 8.91-18.51 10.05 8.96 7.77 23.87 8.35 32.96 0.39 2.79-2.47 3.77-6.18 4.63-9.66 1.39 5.35 1.65 10.89 1.22 16.38-1.21 7.16-4.43 14.42-10.71 18.49-6.12 4.37-14.08 4.82-21.25 3.47-8.43-1.8-15.95-6.41-22.59-11.75-2.71-2.1-4.82-4.88-7.76-6.68-0.04 8.29-3.09 17.27-10.26 22.04-6.54 4.57-14.97 4.61-22.57 3.67-7.37-1.57-13.45-7.58-15.52-14.77-0.67-4.08-0.82-8.72 1.77-12.22 3.23-4.61 8.86-7.95 14.64-7.17 3.27-0.02 5.38 2.85 7.09 5.25-2.95-0.98-6.3-2.78-9.37-1.15-4.729 1.65-5.39 7.99-2.8 11.74 3.18 5.23 10.87 5.82 15.72 2.63 3.79-2.27 5.67-6.59 6.68-10.71 2.24-9.65 2.89-20.05-0.6-29.49-6.6-20.96-2-44.22-11.9-64.31-6.62-14.78-23.84-22.46-39.48-20.43 4.24-1.05 8.15-3.27 12.55-3.72 4.06-0.68 8.13 0.29 12.17 0.78 6.1 1.31 12.62 5.37 18.8 2.2 5.09-2.59 6.55-8.77 5.52-14.02-1.08-1.95-1.92-4.16-3.75-5.54-1.64-1.49-3.98-1.02-5.96-1.21zm16.69 16.41c-0.09 4.56-1.08 9.82-5.1 12.57-2.7 2.06-6.26 1.5-9.41 1.44 2.41 2.61 4.76 5.5 5.64 9.03 0.689-0.67 1.32-1.4 1.99-2.13 2.83-1.68 5.94-3.25 7.87-6.03 2.48-4.63 1.26-10.13 0-14.94-0.43-0.61-1.3-1.85-1.74-2.47 0.28 0.84 0.47 1.68 0.75 2.53zm-7.25 25.33c4.43 10.38 8.33 21.04 9.84 32.29 2.02-4.93 5.6-9.7 4.78-15.32-0.17-4.05-3.32-7.03-6.37-9.28-3.12-2.15-5.61-5.02-8.25-7.69z" fill="#323232"/>
		<path d="m499.73 95.32c3.83-8.21 11.05-15.27 20.15-17.1 1.71 0.01 3.43 0.02 5.15 0.02 6.2 1.63 12.18 4.94 15.93 10.27 1.02 1.33 1.37 2.99 1.58 4.62-0.33-0.5-1-1.49-1.33-1.99-4.09-1.67-8.86-1.21-12.68 0.93-2.94 2.19-3.14 6.19-3.38 9.52-0.14 0.62-0.27 1.23-0.39 1.85 0.57 2.5 0.63 5.07 0.96 7.6 1.19 7.05 4.33 13.59 8.11 19.59 9.37 14.5 22.03 26.36 33.64 38.99 0.02 2.12-1.96 3.71-2.83 5.56-14.3-14.97-30.06-28.66-47.63-39.66-17.34-10.67-36.7-18.82-57.13-20.65-8.93-0.23-17.99-0.67-26.8 1.16-12.57 2.22-24.57 7.38-34.97 14.76-11.81 8.22-21.6 18.9-31.27 29.45-5.35-0.07-10.71-0.73-16.06-0.14 19.84-19.74 42.97-37.1 69.81-45.92-1.2-0.12-2.4-0.18-3.6-0.16-26.43 4.04-51.35 15.79-72.31 32.24-11.16 8.92-21.4 19.74-26.9 33.13-1.89 4.78-3.11 9.88-3.18 15.04 2.66-2.07 5.28-4.2 7.85-6.39-1.15 5.09-0.88 10.29-0.66 15.46-1.03 2.03-3.67 2.7-5.46 3.98 3.09 10.62 9.65 20.59 19.3 26.29 4.03 2.48 8.72 3.36 13.36 3.88 10.88-0.46 20.88-6.17 28.34-13.85 5.59-6.03 9.87-13.84 9.78-22.25-0.64-7-3.69-13.66-7.83-19.27-4.99-6.75-13.24-10.53-21.51-10.99-1.25 0.16-1.88 1.43-2.76 2.18-6.21 6.94-12.74 13.6-19.69 19.8 0.26 3.98 0.79 8.26 3.43 11.44 3.03 3.5 7.82 5.28 12.4 5 3.55-0.24 7.03-2.73 7.75-6.34 1.88-5.74-4.02-12.26-9.96-10.28-1.21 1.28-2.43 2.54-3.69 3.77 1.89-2.66 3.81-5.76 7.13-6.75 2.71-0.48 5.79-0.64 8.18 0.96 8.28 4.98 8.55 19-0.05 23.84-9.2 4.75-22.89 4.55-29.23-4.71-2.65-3.71-2.92-8.34-3.43-12.71 0.23-9.61 3.38-19.87 11.58-25.62 10.85-8.18 25.8-6.35 37.61-1.39 10.9 6.22 19.72 17.79 19.4 30.8 4.65-5.79 12.62-7.66 19.64-5.9 3.88 1.04 7.96 2.47 11.99 1.32 4.28-1.37 7.32-4.87 10.97-7.3-4.82 8.25-10.1 16.66-18.02 22.3-5.09 3.63-10.36 7.53-16.69 8.56 6.34 3.9 10.91 9.9 15.36 15.72 3.8 5.1 7.93 9.95 11.81 15 3.86 4.6 8.24 9.67 14.46 10.8 6.23 0.91 12.59-2.06 16.5-6.89 0.34-1.3 0.71-2.58 1.1-3.86 0.05 5.53-3.19 10.43-6.5 14.6-5.45 6.37-13.56 10.62-22.02 10.62-11.65 0.49-24.2-3.76-31.42-13.28-5.64-8.22-8.03-18.62-15.5-25.59-3.55-3.61-9.64-4.67-13.87-1.64-10.86 6.99-24.63 9.67-37.23 6.54-8.57-2.04-15.67-8-20.83-14.94-7.97-12.63-9.49-28.52-6.12-42.89 1.19-6.76 4.34-12.97 8.19-18.58 15.8-22.64 39.12-39.49 64.86-49.14 16.62-6.18 34.12-10.51 51.93-10.55 16.16 0.08 32.13 2.92 47.86 6.44 5.76 1.09 11.4 2.74 17.2 3.66-1.81-6.82-2.63-14.14-0.38-20.96zm7.95 8.11c-0.72 8 3.13 17.22 11.16 20.01-6.9-11.52-4.67-27.95 6.11-36.35-9.01 0.18-15.35 8.17-17.27 16.34zm-106.38 102.99c-4.91 2.68-7.81 7.65-10.96 12.06 1.62 0.88 3.42 1.67 4.46 3.29 7.41 10.23 9.28 23.28 16.02 33.87 6.32 9.65 19.48 15.52 30.47 10.62-4.38-1.11-9.04-1.73-12.87-4.31-5.79-3.74-10.28-9.2-14.04-14.9-3.74-6.59-6.61-13.68-10.89-19.97-2.83-4.08-6.02-8.71-11.31-9.62 4.05-1.12 8.2-2.01 12.11-3.57 4.22-1.64 6.78-5.58 9.73-8.78-4.23 0.1-8.8-0.73-12.72 1.31z" fill="#323232"/>
		<path d="m1862.1 78.88c6.27-1.96 13.12 0.47 18.01 4.54 4.58 3.9 8.65 8.84 10.02 14.83 1.27 6.02 0.25 12.19-1.12 18.09 23.92-5.05 48.08-11.62 72.74-9.79 11.29 0.47 22.31 3.2 33.1 6.4 24.36 7.29 47.27 20.34 64.66 39.05 7.21 7.81 14.16 16.27 17.87 26.37 2.95 9.4 4.1 19.45 2.7 29.24-1.56 9.2-4.87 18.63-11.85 25.14-4.09 4.1-9.02 7.46-14.62 9.09-13.01 3.81-27.52 1.16-38.84-6.12-4.04-2.82-9.74-2.05-13.28 1.19-9.99 8.54-10.86 23.66-21.49 31.62-7.41 5.53-16.83 8.17-26.03 7.72-10.15-0.04-19.71-6.13-24.91-14.69-1.84-3.23-3.86-6.66-3.47-10.52 0.31 1.27 0.62 2.55 0.95 3.83 3.99 4.73 10.23 7.85 16.51 6.92 6.22-1.14 10.7-6.12 14.52-10.8 4.02-5.25 8.32-10.29 12.26-15.6 4.31-5.62 8.78-11.39 14.93-15.12-6.19-0.99-11.32-4.77-16.31-8.27-8.14-5.66-13.48-14.25-18.46-22.6 4.47 2.89 8.3 7.76 14.1 7.71 5.08 0.06 9.75-2.84 14.92-2.26 5.25-0.21 10.25 2.45 13.59 6.42-0.03-16.27 13.29-31.32 29.26-33.89 8.89-2.14 18.86-1.56 26.62 3.66 6.97 4.42 11.21 12.3 12.13 20.39 0.96 6.74 0.7 14.39-3.66 19.98-4.74 5.76-12.9 7.37-19.97 6.2-3.78-0.79-7.91-1.6-10.68-4.51-7.02-6.2-4.73-19.69 4.14-22.95 2.66-0.51 5.74-0.71 8.14 0.83 2.43 1.29 3.71 3.83 5.22 6.01-1.24-1.3-2.44-2.64-3.61-3.98-5.18-1.44-9.62 2.63-10.56 7.49 0.59 2.54 0.86 5.52 3.21 7.16 4.44 3.61 11.03 2.09 15.37-0.96 4.34-2.96 5.3-8.57 5.52-13.45-7.65-6.95-14.88-14.36-21.78-22.05-8.75 0.5-17.57 4.33-22.63 11.71-4.33 6.31-7.91 13.82-7.11 21.67 0.56 7.32 4.69 13.87 9.53 19.18 5.58 5.74 12.479 10.35 20.21 12.6 7.33 1.9 15.52 1.21 22.02-2.88 9.36-5.79 15.73-15.55 18.79-25.99-1.81-1.3-4.55-1.96-5.54-4 0.271-5.14 0.57-10.34-0.6-15.4 2.56 2.15 5.17 4.25 7.82 6.33-0.08-1.68-0.15-3.37-0.2-5.05-3.26-17.14-15.12-31.08-28.271-41.83-21.27-17.15-46.82-29.38-73.93-33.5-0.85 0-2.57 0.02-3.43 0.03 26.6 9.2 49.95 26.05 69.52 46.04-5.11-0.34-10.32-0.6-15.31 0.67-11.12-11.95-22.25-24.25-36.25-32.91-13.02-8.11-28.2-12.93-43.57-13.17-6.61 0.03-13.27-0.29-19.8 0.89-21.13 3.24-40.86 12.69-58.37 24.7-14.73 10.06-28.07 22.04-40.43 34.88-1.08-1.76-2.14-3.5-3.18-5.26 12.01-12.76 24.86-25 34.37-39.85 6.34-9.88 10.25-22.17 7.61-33.88-0.93-4.69-6.18-5.99-10.26-6.09-2.52-0.28-4.65 1.18-6.78 2.21 2.691-6.75 9.101-11.45 15.941-13.42zm2.03 8.21c10.84 8.42 12.87 24.85 6.13 36.44 4.28-1.76 7.86-5.1 9.43-9.53 5.54-11.03-2.98-26.54-15.56-26.91zm110.95 118.01c2.92 3.17 5.41 7.17 9.62 8.78 3.83 1.5 7.89 2.33 11.82 3.62-2.25 0.76-4.53 1.61-6.07 3.47-5.72 5.98-9.31 13.58-12.98 20.9-3.49 7.34-8.7 13.89-15.07 18.92-4.21 3.38-9.61 4.27-14.69 5.5 3.85 1.95 8.32 1.87 12.52 1.36 8.64-1.33 15.82-7.62 19.92-15.12 4.93-9.64 7.34-20.48 13.3-29.61 1.19-2.05 3.13-3.44 5.24-4.48-3.11-4.39-6.01-9.32-10.85-12.01-3.93-2.07-8.53-1.2-12.76-1.33z" fill="#323232"/>
	<path d="m617.04 106.57c6.63-6.01 14.94-10 20.8-16.86-3.11 9.3-3.15 19.27-6.01 28.63-1.6 4.66-4.03 9.85-8.92 11.78-5.82 2.69-13.91-1.97-13.69-8.59-0.53-6.05 3.55-11.19 7.82-14.96z" fill="#323232"/>
	<path d="m1751.2 89.69c6.35 7.37 15.51 11.43 22.35 18.27 3.65 3.53 6.82 8.25 6.32 13.57 0.21 6.34-7.18 10.93-12.92 8.86-5.16-1.55-7.8-6.81-9.48-11.51-3.12-9.5-2.92-19.74-6.27-29.19z" fill="#323232"/>
	<path d="m1132.9 95.31c12.82-1.58 25.54 3.1 35.93 10.37 12.49 8.48 21.46 21.58 25.59 36.05 1.68-3.48 2.62-7.27 4.33-10.75 8.56-18.31 26.31-32.18 46.27-35.67 3.66-0.27 7.36-0.27 11.04-0.02 15.78 2.29 30.18 13.72 35.13 28.98 3.851 12.77-0.689 27.92-11.439 35.98-9.99 7.53-24.811 6.61-34.5-0.99-5.771-4.39-10.46-11.24-9.87-18.78-0.48-7.63 5.97-14.19 13.22-15.45 5.96-1.72 12.14-0.16 17.84 1.77-2.84 0.2-6.439-0.85-8.53 1.68-3.43 3.82-3 9.52-1.99 14.19 1.2 4.45 3.2 9.76 8.05 11.24 2.48 0.22 4.51-1.64 6.01-3.41 5.35-7.11 7.13-16.37 6.24-25.11-0.88-6.71-4.82-13-10.69-16.43-7.99-4.73-17.99-5.13-26.78-2.63-12.83 3.79-23.44 13.32-30 24.82-11.04 19.43-12.07 44.09-2.94 64.45 5.41 11.97 14.8 22.45 26.97 27.72 9.89 4.39 21.2 3.86 31.27 0.37 16-5.85 29.32-17.04 41.26-28.9 8.49-8.24 16.46-17.04 23.43-26.61 4.07-4.52 7.63-9.57 12.18-13.63 0.9 1.37 1.83 2.73 2.79 4.08-11.08 17.05-22.53 33.86-33.68 50.87-3.7 5.29-6.89 10.97-11.18 15.83-6.44 7.44-14.55 13.72-23.99 16.79-12.9 4.34-26.67 4.1-40.07 5.24-4.99 0.78-10.28 0.62-14.9 2.91-4.23 2.3-5.61 7.97-3.88 12.23 1.46 3.16 4.98 3.98 8.17 3.87-0.96 0.52-1.94 1.04-2.86 1.59-4.67 0.48-9.72 0.71-13.83-1.95-5.94-2.99-9.69-10.09-7.53-16.62 1.21-4.68 5.66-7.32 9.91-8.87 3.66-1.32 6.95-3.47 9.8-6.12-3.99-6.4-9.38-11.73-13.69-17.88-5.189-7.27-8.65-15.63-11.29-24.12-3.27 8.54-6.39 17.31-11.96 24.68-4.18 5.92-9.51 11-13.17 17.3 3.78 4.33 9.45 5.72 14.32 8.35 5.35 2.97 7.06 10.04 4.94 15.52-1.82 4.28-5.67 7.47-9.97 9.06-3.53 1.4-7.42 0.91-11.09 0.65-1-0.54-1.94-1.06-2.91-1.58 2.16-0.27 4.71 0.08 6.39-1.65 5.08-4.36 2.26-13.89-4.15-15.38-9.48-2.44-19.34-2.11-29-3.17-13.8-0.66-28.33-3.43-39.21-12.53-10.02-7.63-16.07-18.87-23.07-29.06-10.07-15.36-20.41-30.54-30.44-45.93 0.98-1.42 1.96-2.84 2.93-4.26 4.66 4.97 9.07 10.17 13.38 15.45 6.47 9.04 14.17 17.11 22.1 24.88 9.56 9.61 20.02 18.6 32.1 24.92 8.03 4.2 16.99 7.1 26.14 6.7 13.88-0.05 26.44-8.56 34.54-19.37 14.68-19.78 16.66-47.54 6.79-69.85-5.53-12.74-15.55-23.8-28.48-29.21-10.3-4.3-23.05-4.57-32.54 1.86-5.35 3.5-8.47 9.49-9.59 15.66-0.45 8.89 0.95 18.4 6.73 25.49 1.68 2.03 4.74 4.08 7.31 2.29 3.91-2.31 5.48-7.04 6.55-11.2 0.77-4.53 1.15-9.98-2.22-13.61-2.13-2.42-5.6-1.43-8.4-1.59 5.55-1.93 11.58-3.51 17.43-1.88 6.99 1.15 13.47 7.07 13.53 14.45 1.19 11.72-8.77 21.58-19.31 24.76-8.37 2.52-18.01 1.46-25.05-3.93-12.43-9.31-16.37-27.96-9.12-41.63 6.509-12.28 18.899-21.27 32.709-23.28z" fill="#323232"/>
		<path d="m545.03 129.05c12.3-8.35 28.11-11.15 42.59-7.95 9.79 2.14 19.22 8.09 23.53 17.4 0.65 0.89 0.73 2.45 1.88 2.86 6.25-2.52 13.12-5.44 19.95-3.55 5.88 1.63 9.17 7.57 10.32 13.19 1.75 8.94 0.72 18.97-4.77 26.5 0.71-4.94 1.04-10.34-1.82-14.7-2.35-4.07-7.27-5.89-11.79-5.63-2.88 1.04-5.93 1.93-8.26 4.02-6.75 5.6-9.75 14.19-15.24 20.84-8.55 10.49-18.97 19.62-25.54 31.61-3.47 6.5-3.88 15.87 1.78 21.27 5.48 4.65 13.29 2.93 19.44 0.72-5.87-4.85-11.61-9.85-17.05-15.17 0.86-2.35 1.77-4.7 3.11-6.82 1.49 0.05 2.41 1.34 3.49 2.19 13.61 12.12 27.64 24.37 44.54 31.69 22.72 9.49 48.59 9.76 72.22 3.64 4.27-0.96 8.35-2.91 12.79-3.05-2.16 0.57-4.32 1.14-6.32 2.14-3.95 2.19-8.46 2.91-12.76 4.11-16.96 4.32-34.82 7.53-52.23 4.12-9.56-2.06-18.89-7.93-28.95-5.56-8.27 1.53-14.5 7.59-20.96 12.47-8.51 6.78-19.5 9.15-30 10.85-5.98 1.07-12.1 0.96-18.13 0.5-7.53-1.48-14.4-5.07-20.64-9.43-7.4-5.21-14.48-10.84-21.47-16.58-5.07-4.04-10.95-8-17.71-7.85-4.98-0.15-9.67 1.67-14.22 3.44 6.5-6.41 15.62-9.28 24.39-10.96 8.62-0.98 17.83-0.97 25.73 3.09 11.77 6.15 21.85 15.52 34.64 19.67 9.95 3.03 20.94 2.64 30.62-1.19 8.07-3.21 15.47-8.04 23.88-10.4-1.35-1.44-3.38-3.84-5.48-2.46-10.61 5.79-22.92 8.86-35.01 7.57-6.72-0.91-13.55-3.41-18.21-8.54-5.44-5.71-7.57-13.87-7.14-21.61-0.34-7 2.05-13.71 4.73-20.06 2.71-6.46 8.18-11.09 12.93-16.02 9.04-8.38 14.65-20.55 14.84-32.89 0.33-9.05-5.52-17.61-13.75-21.13-6.17-3.16-13.25-2.69-19.95-2.34zm43.97 5.7c3.39 6.65 6.86 14.17 4.84 21.79-3.04 13.04-12.83 22.79-20.57 33.2-3.72 5.22-7.74 10.57-9.25 16.92 6.32-10.71 15.8-18.92 23.82-28.27 9.67-11.29 20.51-22.22 34.24-28.42 3.21-1.69 6.88-1.41 10.35-0.85-4.06-4.58-10.79-4.16-15.97-1.94-5.98 2.58-11.57 6.05-16.58 10.21 2.56-9.09-3.22-18.12-10.88-22.64z" fill="#323232"/>
		<path d="m1796.2 122.68c15.73-5.54 34.04-2.94 47.84 6.36-6.57-0.33-13.47-0.79-19.57 2.16-7.11 3.03-12.73 9.64-13.86 17.38-1.29 9.4 1.9 18.86 6.51 26.95 5.55 9.79 16.38 15.45 20.99 25.86 2.84 6.67 5.21 13.77 4.71 21.12 0.48 8.84-3.07 18.1-10.29 23.46-7.56 5.64-17.46 6.49-26.56 5.71-4.42-0.76-8.83-1.59-13.09-2.97-3.61-1.28-7.08-2.87-10.44-4.67-1.7-1.21-3.28 0.78-4.82 1.31-0.09 0.32-0.27 0.96-0.36 1.28 8.98 2.54 16.81 7.92 25.58 11.03 9.54 3.24 20.17 3.32 29.74 0.12 13.48-4.68 23.82-15.21 36.85-20.75 15.56-5.03 33.57-1.44 46.45 8.52-5.57-1.08-11.06-3.51-16.84-2.47-8.57 1.45-14.84 7.98-21.4 13.11-8.53 6.52-16.84 13.63-26.78 17.92-9.56 4.16-20.32 3.33-30.32 1.57-9.29-1.81-18.88-4.22-26.4-10.26-7.15-5.59-14.44-12.25-23.94-13.02-10.2-0.7-19.19 5.39-29.1 6.62-15.05 2.3-30.34-0.16-45.02-3.62-5.66-1.63-11.65-2.41-16.91-5.17-2.06-0.95-4.2-1.66-6.35-2.28 4.15 0.44 8.05 1.98 12.08 3 21.21 5.67 44.1 6.04 65.16-0.5 17.52-5.53 32.3-17.01 45.95-28.95 3.25-2.76 6.27-5.83 9.81-8.25 1.09 2.32 2.55 4.54 3.01 7.11-5.03 5.65-11.12 10.29-16.8 15.28 5.14 1.72 10.91 3.36 16.21 1.21 4.99-1.81 7.51-7.37 7.41-12.42 0.57-6.65-3.13-12.59-6.87-17.74-6.29-8.89-14.35-16.29-21.18-24.73-5.12-6.34-8.18-14.24-14.16-19.89-2.57-2.54-5.97-3.83-9.32-4.91-4.58-0.25-9.49 1.61-11.81 5.75-2.92 4.31-2.23 9.7-1.83 14.6-5.41-7.43-6.07-17.09-4.82-25.9 1.02-5.14 3.49-10.59 8.44-13.01 4.66-2.34 10.12-1.35 14.92 0.07 2.69 0.68 5.08 2.5 7.94 2.51 2.78-8.88 10.64-15.49 19.24-18.5zm-7.66 33.27c0.23 0.37 0.7 1.11 0.93 1.48-5.69-4.28-11.64-8.37-18.36-10.82-4.76-1.57-10.81-1.85-14.17 2.53 6.61-1.91 12.79 1.83 18.17 5.23 15.08 9.32 25.45 24.02 37.62 36.56 5.05 5 9.17 10.78 13.1 16.69-6.21-18.79-24.62-30.49-30.22-49.54-2.6-7.81 0.53-15.91 4.29-22.76-7.73 3.62-12.02 12.25-11.36 20.63z" fill="#323232"/>
		<path d="m1871.7 144.29c14.24-11.08 30.72-21.4 49.3-21.97 14.67 0.68 28.65 9.28 36.49 21.61 6.5 9.88 5.69 24.02-2.49 32.72 2.75-4.13 1.95-9.55-0.38-13.68-3.15-5.67-7.85-11.24-14.49-12.63-10.28-1.85-20.61 1.18-30.18 4.71 7.67 4.74 13.58 12.44 15.45 21.32 0.61 5.67 0.96 11.78-1.62 17.05-3.41 7.61-10.5 12.87-18.02 15.98-8.37 3.58-17.9 4.78-26.8 2.7-6.85-1.61-13.14-5.93-16.66-12.07-3.43-6.18-2.4-14.51 2.65-19.53 9.11-9.54 26.25-8.55 34.72 1.35 1.91 2.09 2.71 4.87 3.25 7.6 2.51-2.08 5.21-4.25 6.38-7.42 3.54-8.16-1.73-17.94-9.52-21.34-4.28-2.06-9.17-2.08-13.77-1.46-10.14 1.49-19.93 5.23-28.5 10.81-7.29 5.6-14.17 11.73-20.59 18.31-1.62-1.65-3.35-3.18-4.76-4.99 0.23-1.65 1.87-2.64 2.87-3.87 11.96-11.99 23.7-24.27 36.67-35.2zm-0.81 9.93c12.91-4.96 25.61-10.74 39.22-13.55 9.55-2.07 19.69-2.57 29.08 0.54-3.9-6.53-12.03-9.38-19.35-9.08-18.28 1.81-33.5 13.19-48.95 22.09zm6.62 37.04c-0.09 2.2-0.42 4.47 0.16 6.64 1.29 3.84 5.44 5.98 9.3 6.18 6.4 0.46 12.44-2.32 17.86-5.44-4.41 0.59-9.22 2.74-13.43 0.35 1.16-2.63 1.57-5.68 0.8-8.47-1.49-3.43-5.46-5.43-9.1-4.67-2.89 0.33-4.18 3.28-5.59 5.41z" fill="#323232"/>
		<path d="m455.96 124.66c10.12-3.91 21.41-2.24 31.28 1.63 17.14 6.72 31.77 18.4 44.73 31.26 8.48 8.5 17.42 16.6 25.25 25.72-1.74 1.67-3.44 3.37-5.13 5.08-6.39-6.63-13.33-12.75-20.62-18.37-10.26-6.49-22.2-10.97-34.44-11.09-8.87-0.01-16.79 6.81-18.42 15.47-0.67 6.07 2.52 11.78 7.48 15.11 0.79-6.57 6.15-11.58 12.11-13.79 7.52-3.03 16.66-2.4 23.25 2.51 4.51 3.24 7.67 8.65 7.24 14.33 0.15 6.42-4.31 11.86-9.26 15.44-8.56 5.86-19.78 6.21-29.55 3.69-9.82-2.66-19.82-8.19-24.35-17.72-2.78-5.31-2.62-11.51-1.95-17.29 1.85-8.89 7.62-16.86 15.47-21.43-9.1-3.8-19.12-6.34-29.03-5.09-8.54 1.3-14.04 9-17.29 16.38-0.76 3.42-0.66 6.99 1.13 10.09-7.03-7.89-8.71-19.85-4.09-29.35 5.19-10.67 15.18-18.53 26.19-22.58zm-6.18 16.57c6.19-2.01 12.75-2.61 19.23-2.06 17.23 1.51 33.13 8.81 49.04 15.04-11.29-6.84-22.47-14.1-34.84-18.89-4.9-1.75-10.05-3.05-15.27-3.23-6.96 0.08-14.41 3.03-18.16 9.14zm47.89 47.82c-2.1 3.01-1.2 6.96-0.05 10.17-4.42 1.88-9.07 0.13-13.51-0.64 6.77 3.9 15.33 7.72 22.99 4.12 6.44-2.98 6.03-13.24 0.09-16.53-3.36-1.2-7.44-0.06-9.52 2.88z" fill="#323232"/>
	<path d="m1207.9 161.27c1.47-10.97 4.8-22.99 14.3-29.73-3.66 5.53-5.93 12.34-4.13 18.96 1.27 6.09 7.52 9.76 8.37 16 0.95 8.28-3.37 15.87-4.1 23.96-0.56 4.67 2.11 9.14 5.79 11.83 5.47 4.2 12.22 7.06 19.2 6.97-5.47-1.8-9.25-6.59-11.52-11.67-2.24-5.4-3.23-11.66-1.06-17.24 1.97-4.97 6.39-9.11 11.69-10.21 8.86-1.36 17.43 3.57 23.16 9.99-2.53-1.74-5.39-3.68-8.62-3-5.65 0.81-9.67 5.94-10.33 11.41 0.36 3.88 3.56 6.62 7.37 6.9 8.38 1.05 16.53-2.3 24.11-5.49 5.43-2.47 11.25-3.98 16.59-6.67 4.64-2.08 9.15-4.72 14.24-5.52-13.45 9-24.25 21.47-38.22 29.74-11.96 7.19-26.95 9.92-40.43 5.81-7.53-2.16-14.44-6.78-18.77-13.36-7.6-11.23-9.17-25.49-7.64-38.68z" fill="#323232"/>
	<path d="m1166.8 131.52c7.89 5.53 11.53 15 13.4 24.11 2.47 13.03 2.05 27.1-3.77 39.23-3.23 6.73-8.46 12.61-15.23 15.9-14.01 6.96-31.23 5.42-44.73-2.03-15.06-8.14-26.24-21.56-40.43-30.93 5.08 0.72 9.58 3.4 14.21 5.46 5.3 2.71 11.11 4.19 16.52 6.66 7.05 3.06 14.47 5.84 22.27 5.78 3.48-0.23 7.83-1.39 8.84-5.24 1.33-6.51-4.33-13.21-10.92-13.42-2.67-0.22-4.95 1.35-7.11 2.66 5.59-6.27 14.09-10.83 22.68-9.56 7.44 1.54 13.02 8.84 12.91 16.39 0.1 9.27-4.8 19.27-13.72 22.89 8.23-0.36 16.5-3.86 22.11-9.96 3.21-3.55 3.32-8.65 2.23-13.06-1.58-6.91-4.53-13.83-3.36-21.04 1.7-5.83 7.49-9.56 8.45-15.69 1.33-6.41-0.82-12.85-4.35-18.15z" fill="#323232"/>
	<path d="m252 140.88c6.95-1.31 14.52-1.5 21.02 1.67 9.3 4.37 16.86 14.21 15.44 24.9-1.14 10.32-10.77 17.19-20.28 19.3-4.97 0.44-10.47 1.1-14.8-1.95-5.95-3.94-7.45-11.85-6.27-18.47 0.01 2.42 0.49 5.06 2.93 6.18 5.9 2.33 14.85-0.9 15.34-7.95-2-7.01-10.74-10.36-17.28-7.81-7.64 2.64-11.53 11.2-11.44 18.84 0.72 8.44 4.51 16.69 10.8 22.42 11.38 10.15 28.16 11.77 42.57 8.68l0.7-0.53c0.6-0.09 1.79-0.27 2.38-0.36 2.98-1.28 5.98-2.49 9.08-3.43 0.03 3.82 0.81 7.57 1.46 11.32-2.04 1.73-4.94 2.08-7.4 3.03-13.92 4.07-29.66 5.15-42.98-1.48-13.4-6.52-25.14-17.95-29.51-32.46-2.73-8.57-1.19-18.29 3.95-25.66 5.76-8.1 14.4-14.4 24.29-16.24z" fill="#323232"/>
	<path d="m2122.8 140.38c9.68-1.24 19.97 0.64 28.06 6.3 6.91 4.86 12.84 11.72 14.9 20.08 2.479 9.33-0.44 19.2-5.48 27.15-7.8 11.93-20.01 21.11-33.84 24.73-13.75 3.08-28.24 0.61-41.15-4.61 0.92-3.84 1.47-7.76 1.6-11.71 3.82 1.18 7.42 3.04 11.34 4.01 11.69 3.2 24.5 2.15 35.53-2.9 9.42-4.52 16.16-13.77 18.16-23.97 2.2-9.32-2.87-21.19-12.87-23.29-6.33-1.39-14.641 2.42-15.311 9.37 1.76 7.12 11.311 9.73 17.19 6.02 0.18-1.59 0.33-3.2 0.58-4.79 2.46 7.08-0.88 16.16-7.96 19.19-3.99 1.83-8.51 1.04-12.71 0.77-7.05-1.78-14.08-5.52-17.771-12.03-3.69-6.33-3.24-14.54 0.45-20.78 4.162-6.93 11.282-12.09 19.282-13.54z" fill="#323232"/>
	<path d="m699.24 156.74c2.22-4.04 9.48-4.01 10.79 0.79 1.17 4.58-0.4 9.32-0.55 13.95-0.69 6.98 1.63 13.8 4.37 20.11 2.73 5.88 6.23 11.77 11.76 15.41 7.21 4.76 15.75 6.78 24.02 8.87-10.17-0.21-20.82-1.18-29.93-6.07-13.81-7.91-21.46-23.82-22.36-39.33 0.06-4.58-0.79-9.68 1.9-13.73z" fill="#323232"/>
	<path d="m1681.8 154.28c3.01-1.24 6.95 0.01 8.39 3.04 2.31 4.36 1.41 9.52 1.44 14.26-1.25 15.6-9.33 31.61-23.67 38.95-8.86 4.2-18.9 5.19-28.58 5.34 9.61-2.48 19.93-4.75 27.51-11.61 6.28-6.51 9.96-15.13 12.07-23.82 1.52-6.24 0.06-12.63-0.36-18.9-0.31-2.73 0.54-5.97 3.2-7.26z" fill="#323232"/>
	<path d="m669.53 161.96c1.06-2.14 3.3-3.11 5.43-3.86 2.16 0.77 4.66 1.48 5.7 3.76 4.42 7.97 1.59 17.66 5.15 25.91 4.65 11.52 12.18 22.34 22.75 29.14 10.89 6.45 23.99 5.18 36.1 5.27-14.35 4.59-30.24 2.84-43.82-3.38-15.66-7.23-27.77-21.68-32.15-38.36-1.69-5.99-2.28-12.85 0.84-18.48z" fill="#323232"/>
	<path d="m1708.8 161.26c1.67-2.83 5.52-3.2 8.32-2.03 4.71 3.89 5.1 10.76 4.33 16.38-2.79 16.16-12.78 30.94-26.68 39.63-14.76 9.13-33.55 12.24-50.22 6.94 8.85-0.3 17.88 0.88 26.55-1.57 10.48-2.15 18.52-10.11 24.5-18.55 4.99-7.31 9.45-15.56 9.76-24.6 0.37-5.48 0.4-11.41 3.44-16.2z" fill="#323232"/>
	<path d="m775.05 196.82c3.18-3.73 5.62-8 8.58-11.9 2.65 0.83 5.34 1.54 8.05 2.13-3.53 3.89-6.4 8.35-10.19 12-2.36 0.21-4.45-1.19-6.44-2.23z" fill="#323232"/>
	<path d="m1598 187.42c1.83-1.94 5.12-1.2 7.43-2.5 2.75 4.03 6.03 7.93 8.26 12.19-1.87 0.91-4.09 2.33-6.17 1.83-3.55-3.49-6.52-7.55-9.52-11.52z" fill="#323232"/>
	<path d="m639.76 199.95c-1.85-5.53 2.21-12.48 8.46-11.99 5.17 2.56 7.85 7.93 10.56 12.73 3.88 7.41 7.67 15.37 14.67 20.38 10.24 7.83 23.43 9.65 35.94 10.19-11.54 1.1-23.54 1.95-34.77-1.52-8.62-2.75-16.32-7.84-23.07-13.77-4.92-4.49-9.39-9.74-11.79-16.02z" fill="#323232"/>
	<path d="m1736.2 191.59c1.2-1.58 2.99-2.54 4.64-3.61 4.38-0.37 8.3 3.19 8.78 7.46 0.73 5.33-2.83 9.85-5.76 13.89-11.2 13.41-27.92 23.21-45.77 22.83-4.65-0.36-9.61 0.65-14.02-1.06-3.09-0.34-6.17-0.37-9.24-0.61 7.77-0.47 15.71 0.62 23.34-1.41 8.03-2.06 15.92-5.71 21.75-11.74 7.05-7.51 9.81-17.84 16.28-25.75z" fill="#323232"/>
	<path d="m909.67 209.43c-3.85 9.81 0.35 19.92 2.19 29.63 1.39 5.73-0.71 12.17-5.44 15.76-6.48 4.88-13.83 8.96-18.67 15.67-0.37 1.06-0.74 2.12-1.1 3.18 0.54-4.71 1.45-9.41 1-14.16-0.38-7.39-3.52-15.01-0.53-22.22 2.76-6.71 9.34-10.47 14.25-15.42 3.56-3.55 6.19-7.9 8.3-12.44z" fill="#323232"/>
	<path d="m1480.1 210.71c2.82 6.86 8.2 12.16 13.86 16.74 4.44 3.59 8.18 8.24 9.31 13.97 0.08 4.91-0.74 9.77-1.51 14.6-0.84 5.61-0.43 11.32 0.65 16.87l1.15 0.02c-1.77 0.87-1.95-1.37-2.35-2.53-4.67-6.49-11.729-10.49-18.06-15.13-4.92-3.45-7.31-9.92-6.01-15.75 0.77-5.9 3.06-11.49 3.67-17.43 0.57-3.8-0.23-7.6-0.71-11.36z" fill="#323232"/>
	<path d="m263.49 243.1c13.95-3.37 28.41-9.93 36.24-22.57-0.11 6.68-1.84 13.34-0.74 20.03 0.75 4.87 0.68 10.25 3.53 14.47 3.98 4.15 11 2.3 14.8-1.26 0.36-0.77 0.72-1.54 1.1-2.3-0.14 2.79-0.68 5.53-1.15 8.27-1.5 3.83-3.99 7.38-7.6 9.47-8.61 5.26-21.21 3.12-27.08-5.25-2.09-2.78-2.71-6.28-3.1-9.64-11.41 7.55-25.79 12.02-39.38 8.61-14.06-3.64-22.91-21.12-16.03-34.31-0.28 7.2 4.5 15.11 11.99 16.33 9.11 1.67 18.48 0.12 27.42-1.85z" fill="#323232"/>
	<path d="m2089.3 220.51c8.58 13.68 24.59 20.23 39.79 23.38 8.46 1.44 17.33 2.89 25.771 0.59 6.69-2.01 9.45-9.22 11.01-15.36 0.91 4.7 2.28 9.57 0.98 14.36-2 9.79-10.03 18.2-19.98 19.95-13.06 2.45-26.45-1.95-37.33-9.11-0.29 4.08-1.47 8.28-4.37 11.29-7.29 8.1-21.42 8.75-29.149 0.94-4.12-3.89-5.101-9.79-5.4-15.18 0.33 0.78 0.68 1.56 1.05 2.35 3.311 3.12 8.141 4.51 12.55 3.08 2.91-1.3 4.01-4.56 4.6-7.46 1.38-6.86 1.99-13.91 1.32-20.9-0.562-2.61-0.722-5.28-0.842-7.93z" fill="#323232"/>
	<path d="m744.44 238.87c3.33-2.33 6.34-5.06 9.48-7.64-5.71 6.04-10.08 13.17-13.67 20.62-4.2 7.95-9.44 16.86-18.79 19.23-4.36 1.7-10.35 0.28-12.01-4.49-0.47-3.62 2.65-6.27 4.81-8.73 8.39-8.8 20.59-11.9 30.18-18.99z" fill="#323232"/>
	<path d="m1635.8 231.8c6.46 5.76 13.59 10.83 21.48 14.44 8.27 4.1 16.93 8.97 21.79 17.14 2.24 4.43-3.02 8.48-7.13 8.43-6.41-0.35-12.47-3.79-16.25-8.94-5.72-7.06-8.7-15.81-13.83-23.24-1.88-2.73-4.04-5.23-6.06-7.83z" fill="#323232"/>
		<path d="m174.21 266.49c-0.01-2.59 2.32-4.17 4.42-5.16-0.28 0.57-0.85 1.73-1.13 2.3 1.1 0.81 2.07 1.87 3.38 2.35 4.22 1.71 9.1-1.06 13.08 1.66 5.31 3.7 5.74 10.79 8.93 15.98 1.18-3.45 6.33-5.45 8.29-1.58 1.06-0.54 2.13-1.08 3.2-1.59 0.08 0.93 0.23 2.79 0.3 3.72 51.11-0.33 102.2-1.31 153.31-1.43 5.35-0.04 10.69-0.74 16.03-0.08 16.28-0.93 32.63-0.34 48.94-0.81 17.01-0.03 34.03-0.13 51.05-0.2 7.63-0.9 15.33-0.37 23-0.57 15.99-0.42 32.03 0.26 48-0.77 27.31-0.07 54.63-0.34 81.95-0.48 8.04 0.33 16.04-1.21 24.08-0.25 8.98-0.76 18-0.21 27-0.5 16.31 0 32.61-0.28 48.92-0.29 5.34 0.25 10.63-0.75 15.97-0.53 28.37-0.03 56.73-0.46 85.09-0.55 15.32-0.85 30.69-0.36 46.03-0.7 17.97-0.08 35.95-0.3 53.93-0.33 8.63-0.9 17.33-0.24 25.99-0.59 11.68 0.04 23.35-0.22 35.03-0.19 7.98-0.36 15.99 0.34 23.94-0.53 32.32-0.37 64.66-0.15 96.96-0.9 27.35-0.35 54.72-0.55 82.08-0.63 20.01 0.19 40.03 0.45 60.05 0.43 23.649 0.93 47.34 0.52 71.01 0.91 23-0.24 45.95 0.97 68.96 0.74 16.99 0.44 34.02-0.2 50.99 0.81 29.34 0 58.67 0.47 88.01 0.53 15.34 0.84 30.72 0.37 46.08 0.74 16.96 0.01 33.92 0.32 50.88 0.25 15.64 1.01 31.34 0.38 47 0.8 11.68 0 23.36 0.13 35.04 0.16 6.33 0.98 12.69-0.48 19.05 0.48 31.97 0.32 63.95 0.48 95.93 0.64 11.32 0.96 22.69 0.35 34.04 0.64 15.33 0.06 30.67 0.31 46 0.28 15.63 1.08 31.33 0.22 46.98 0.76 22.36-0.16 44.65 0.79 67 0.71 26.32 0.28 52.64 0.49 78.97 0.68 15.93 0.38 31.87 0.54 47.82 0.59l-0.12 0.88c-21.24 0.13-42.46 0.39-63.69 0.39-9.31 0.84-18.66 0.23-27.99 0.56-24.99 0.03-49.97 0.38-74.95 0.41-24.99 0.98-50.05 0.4-75.06 0.92-27.32-0.09-54.61 0.81-81.92 0.79-85.38 0.78-170.73 2.02-256.11 2.4-11.29 0.84-22.64 0.29-33.95 0.59-24.71 0.26-49.42 0.2-74.12 0.43-4.9 0.88-9.88 0.33-14.81 0.46-20.37 0.25-40.74 0.2-61.11 0.38-4.3 0.11-8.64-0.39-12.89 0.42-28.35 0.32-56.7 0.32-85.05 0.56-8.33 0.24-16.68-0.33-24.98 0.58-28.67-0.02-57.34 0.46-86.02 0.38-22.66-0.42-45.36 0.04-68.01-0.7-35.32-0.61-70.67-0.36-106-0.83-3.63-0.71-7.33-0.36-10.99-0.41-24.69-0.12-49.38-0.27-74.06-0.4-8.64-0.34-17.31 0.3-25.92-0.6-26.7 0.04-53.39-0.4-80.08-0.43-1.3-0.05-2.58-0.18-3.85-0.39-63.71-0.2-127.4-1.29-191.11-1.66-28.65-0.54-57.32-0.7-85.98-0.88-8.67-0.39-17.36 0.22-26.02-0.51-33.66-0.11-67.33-0.58-101-0.61-2.33-0.03-4.64-0.44-6.97-0.47-33.34-0.08-66.69-0.49-100.03-0.54-1.32-0.05-2.63-0.17-3.94-0.35-28.09-0.17-56.17-0.52-84.26-0.52-0.2 1.37 0 3.11-1.67 3.59-1.09-3.03-3.18 0.3-5.1 0.5-2.58 0.4-4.1-2.04-5.21-3.95-3.19 5.71-3.67 13.95-10.29 16.97-5.03 0.97-11.35-1.35-15.05 3.39 0.27 0.63 0.81 1.88 1.09 2.5-1.76-1.44-4.34-2.75-4.34-5.36-0.3-2.28 1.31-4.08 2.38-5.91-2.89-0.95-4.58-3.55-6.39-5.79-1.03 1.43-2.04 3.66-4.21 3.29-4.18-0.22-7.72-3.15-11.98-3.23 1.69-0.76 3.36-1.55 5.02-2.35-4.02-0.57-7.74-2.21-11.34-4.01 3.59-1.95 7.37-3.73 11.52-3.92-1.72-0.81-3.44-1.6-5.21-2.3 4.83-0.71 9.08-4.07 14.13-3.29 0.67 0.97 1.33 1.93 2 2.91 1.87-2.3 3.92-4.49 6.47-6.04-1.28-1.52-2.69-3.21-2.41-5.35zm-1.53 17.97c4.38 3.02 8.5 7.7 14.28 7.46 5.03 0.18 8.85-3.6 11.99-7.05-2.65-5.41-8.97-9.08-15.01-7.63-4.4 1.23-7.69 4.57-11.26 7.22z" fill="#323232"/>
		<path d="m2210.7 261.36c1.09 1.32 2.9 2.32 3.1 4.19 0.521 2.39-0.79 4.52-1.77 6.58 2.439 1.48 4.359 3.63 5.93 6.01 0.92-1.07 1.44-3.03 3.1-3.2 4.65-0.54 8.55 2.77 13.09 3.32-1.81 0.73-3.57 1.52-5.31 2.3 4.22 0.14 8.08 1.93 11.74 3.91-3.69 1.81-7.5 3.55-11.63 3.94 1.75 0.82 3.52 1.66 5.29 2.53-0.84 0.09-2.5 0.25-3.34 0.33-3.35 1.45-6.76 3.11-10.51 2.83-0.819-1.14-1.67-2.3-2.43-3.44-1.75 2.34-3.38 5.14-6.42 5.91 1.2 1.77 2.68 3.63 2.32 5.94 0.17 2.32-2.01 3.63-3.311 5.2-0.06-0.79-0.16-2.36-0.22-3.15-4.21-3.73-9.96-1.56-14.87-2.71-6.49-3.01-6.45-11.22-10.24-16.42-1.33 3.51-6.01 4.9-8.29 1.48-1.09 0.57-2.13 1.08-3.3 1.29-0.14-2.52-0.13-5.04 0.02-7.56 1.19 0.25 2.3 0.76 3.33 1.47 1.08-1.95 3.09-2.31 5.19-2.23 0.51 0.44 1.53 1.32 2.03 1.76 0.229 0.58 0.689 1.74 0.92 2.32 3.22-5.06 3.71-11.76 8.43-15.83 4.42-3.74 10.6 0.21 15.26-2.83 1.441-0.78 1.551-2.52 1.891-3.94zm-21.56 23.14c2.98 3.65 6.78 7.44 11.86 7.42 5.19 0.33 9.25-3.4 13.1-6.34 1.36-0.71 0.53-2.34-0.57-2.77-3.68-2.74-7.57-6.24-12.48-5.82-5.15-0.13-9 3.75-11.91 7.51z" fill="#323232"/>
		<path d="m52.66 357.22c14.68-11.66 33.68-17.65 52.39-16.58 11.1 0.7 21.53 4.91 32.25 7.49 7.18 1.49 14.85-0.94 19.56-6.62 3.01-0.01 6.03-0.01 9.04-0.01v54.73c-2.31-0.01-4.62 0-6.92 0.01-7.14-15.82-16.22-31.82-30.99-41.66-11.99-8.04-28.18-9.39-41.31-3.42-12.02 5.5-20.44 16.66-25.47 28.59-7.75 18.46-9.91 38.87-8.68 58.73 1.33 18.63 6.47 37.6 18.01 52.58 8.7 11.28 21.9 19.58 36.36 20.29 12.43 0.97 25.05-2.58 35.34-9.59 9.56-6.38 17.29-15.16 23.68-24.64 2.19 1.36 4.38 2.7 6.57 4.04-8.65 13.66-20.45 25.7-35.21 32.67-7 3.29-14.51 5.57-22.19 6.56-6.34 0.29-12.7 0-19.05 0.11-12.92 0.79-25.53-3.98-36.48-10.47-17.75-10.74-30.34-28.82-36.15-48.57-5.58-18.8-5.62-39.18-0.54-58.1 4.93-17.91 15.05-34.63 29.79-46.14zm3.18 2.1c-12.11 8.76-20.98 21.46-26.4 35.29-7.85 20.28-8.68 43.09-2.88 64.01 4.33 15.67 12.98 30.32 25.58 40.73 11.83 10.17 26.87 16.13 42.27 18.04-9.1-3.07-18.03-6.84-25.98-12.3-16.92-11.2-29.5-28.65-34.96-48.18-8.34-29.07-1.71-62.05 17.34-85.57 7.31-9.61 17.17-16.73 26.67-23.98-7.67 3.07-14.96 7.1-21.64 11.96zm79.43-5.47c6.6 5.41 11.98 12.08 17.06 18.89-0.31-7.01-0.5-14.03-0.66-21.04-5.13 2.35-10.85 2.92-16.4 2.15z" fill="#323232"/>
		<path d="m664.49 358.9c6.43-9.58 16.93-16.48 28.44-17.92 11.56-1.76 22.88 2.05 34.19 3.8 4.95 0.83 10.13 0.6 14.81-1.34 3.35-1.5 7.08-0.84 10.64-0.91 1.62 16.74 3.2 33.47 4.81 50.21-2.6-0.01-5.19 0-7.78 0.01-6.39-12.82-13.73-25.5-24.18-35.47-8.95-8.56-22.13-12.68-34.3-9.97-12.46 2.97-22.14 14.5-23.23 27.21-0.88 8.01 1.08 17.04 7.59 22.34 8.9 7.31 20.58 9.34 31.52 11.68 9.7 2.27 19.63 3.61 29.14 6.61 15.3 4.86 27.62 17.74 32.07 33.13 4.71 16.42 2.2 34.9-7.18 49.25-9.16 14.39-25.93 23.68-43.08 22.96-14.19 0.34-26-9.49-39.91-10.69-6.05-0.5-11.66 2.91-15.09 7.73-2.08 0.01-4.17 0.01-6.24 0.02-0.01-20.86 0.01-41.72-0.01-62.58 2.47 0 4.94 0.01 7.43 0.03 5.18 16.01 12.3 31.91 24.11 44.17 8.41 8.83 20.32 14.99 32.76 14.27 15.12-0.11 29.44-11.86 31.87-26.9 1.85-10.94 0.15-23.63-8.33-31.53-5.49-5.69-13.01-8.7-20.56-10.51-11.85-3.26-24.17-4.45-35.96-7.94-12.35-3.72-23.47-12.4-28.69-24.36-7.56-17.08-5.28-37.92 5.16-53.3zm60.99-6.7c8.43 6 13.5 15.19 19.52 23.34-0.96-7.84-2.45-15.6-3.54-23.42-5.21 1.7-10.73 1.36-15.98 0.08zm-50.49 74.12c9.33 7.47 21.63 8.62 32.92 10.98 10.86 2.28 22.35 3.43 32.12 9.12 8.49 4.85 14.64 13.53 16.39 23.16 2.01 8.85-0.09 17.92-3.45 26.16 9.39-10.37 11-25.93 6.55-38.83-3.5-9.46-11.94-16.37-21.06-20.14-10.13-3.95-20.83-6.11-31.46-8.21-7.99-1.68-16.33-2.53-23.64-6.43-10.44-4.91-18.31-14.59-21.3-25.69-1.85-6.28-1.59-12.89-1.58-19.36-5.36 17.37 0.09 37.86 14.51 49.24zm-14.6 51.56c-0.11 10.88 0 21.76-0.06 32.64 1.79-2.08 3.44-4.42 5.88-5.8 2.67-1.37 5.77-1.23 8.69-1.4-6.38-7.51-11.12-16.21-14.51-25.44z" fill="#323232"/>
		<path d="m1376.8 341.31c9.99-2.01 20.13 0.29 29.92 2.34 6.7 1.36 13.92 2.7 20.49 0.02 3.54-1.69 7.5-1.13 11.3-1.15 1.63 16.74 3.21 33.48 4.82 50.22-2.61-0.01-5.2 0-7.78 0.01-6.64-13.27-14.24-26.48-25.37-36.52-9.12-8.11-22.29-11.76-34.18-8.64-13.32 3.69-22.87 17.15-22.35 30.9 0.01 7.07 2.57 14.52 8.4 18.87 10.27 7.96 23.6 9.4 35.87 12.25 11.73 2.67 24.26 3.83 34.66 10.4 11.01 6.71 19.09 17.92 22.17 30.42 5.12 20.64-1.17 44.37-17.62 58.3-13.52 11.84-33.96 15.27-50.46 8.04-7.43-2.68-14.71-6.32-22.68-6.97-6.05-0.5-11.66 2.91-15.08 7.73-2.1 0.01-4.19 0.01-6.25 0.02-0.01-20.86 0.01-41.72-0.01-62.58 2.47 0 4.96 0.01 7.46 0.06 4.84 15.16 11.52 30.1 22.18 42.11 6.95 7.89 16.25 14.11 26.76 15.87 6.51 0.93 13.37 0.59 19.51-1.94 9.3-3.78 17.02-11.82 19.6-21.62 1.91-7.19 1.73-14.88-0.21-22.04-2.57-9.47-10.55-16.68-19.45-20.24-10.51-3.82-21.6-5.56-32.53-7.71-7.04-1.45-14.17-3-20.56-6.4-8.96-4.56-16.47-12.14-20.39-21.45-7.15-16.73-4.97-36.92 4.98-52.07 6.04-9.3 15.83-16.24 26.8-18.23zm34.86 11c8.23 6.08 13.34 15.08 19.24 23.22-0.86-7.85-2.42-15.6-3.49-23.41-5.14 1.69-10.56 1.32-15.75 0.19zm-65.35 24.77c-0.59 2.42-1.05 4.86-1.34 7.33-2.58 15.67 3.91 32.68 16.56 42.36 9.29 7.11 21.3 8.21 32.38 10.53 10.82 2.28 22.27 3.43 32.01 9.09 9.09 5.13 15.41 14.67 16.76 25.01 1.51 8.33-0.7 16.7-3.79 24.4 9.4-10.4 11.05-25.98 6.57-38.91-3.18-8.67-10.61-15.17-18.76-19.11-15.14-6.55-31.7-8.5-47.69-12.01-12.22-3.05-23.44-11.15-28.62-22.85-4.03-8-4.04-17.1-4.08-25.84zm0.03 100.83c-0.12 10.87 0.01 21.74-0.06 32.61 1.79-2.1 3.47-4.46 5.95-5.83 2.649-1.33 5.71-1.2 8.62-1.37-6.38-7.5-11.1-16.2-14.51-25.41z" fill="#323232"/>
		<path d="m1766.6 341.21c17.66-2.03 36.22 0.21 52 8.79 14.93 7.77 26.77 20.77 34.18 35.79 9.89 19.88 12.19 43.1 7.9 64.77-4.12 20.49-15.39 39.67-32.1 52.37-26.53 20.6-66.04 23.8-94.7 5.7-15.81-9.72-27.27-25.56-33.16-43.02-6.57-19.25-7.48-40.35-3.14-60.19 4.39-20.06 15.78-38.75 32.43-50.93 10.62-7.79 23.53-12.05 36.59-13.28zm-0.04 6.94c-9.48 1.78-18.12 7.15-24.24 14.55-10.3 12.51-14.75 28.84-15.97 44.74-1.11 22.72 1.08 45.99 9.4 67.31 5.5 13.78 14.21 27.24 27.69 34.31 14.62 7.87 33.81 4.98 45.92-6.24 13.76-12.47 19.3-31.37 21.07-49.32 1.8-22.76-0.14-46.25-8.8-67.56-5.45-13.31-14.27-25.85-26.99-33.05-8.42-4.87-18.55-6.42-28.08-4.74zm29.18 1.21c12.97 8.1 23.01 20.41 28.9 34.49 8.95 21.23 10.93 44.77 9.63 67.58-1.1 18.11-7.49 35.83-18.52 50.26 4.5-3.66 8.54-7.91 11.94-12.61 9.98-13.66 13.59-30.86 14.14-47.49 0.7-21.67-2.25-44.08-12.42-63.48-7.02-13.33-18.61-25.21-33.67-28.75zm-84.87 32.01c-8.32 14.22-12.08 30.74-12.31 47.13-0.25 19.56 4.11 39.72 15.35 56 9.27 13.63 23.21 23.78 38.69 29.27-11.89-7.31-22.69-16.62-30.54-28.24-9.47-13.29-14.39-29.37-15.75-45.53-1.33-15.89-0.39-32.29 5.18-47.36 5.06-14.34 14.49-26.52 24.4-37.83-10.23 6.77-18.84 15.97-25.02 26.56z" fill="#323232"/>
		<path d="m1952.6 341.21c17.89-2.06 36.7 0.28 52.61 9.12 16.88 8.97 29.62 24.61 36.6 42.26 6.73 16.72 8.34 35.26 5.75 53.02-3.07 20.71-13.23 40.52-29.18 54.23-25.79 22.62-66.1 27.57-95.99 10.29-15.15-8.55-26.81-22.59-33.4-38.59-8.39-20.07-10.03-42.71-5.87-63.98 4.08-20.88 15.64-40.48 32.91-53.09 10.62-7.78 23.52-12.03 36.57-13.26zm-0.08 6.95c-9.96 1.87-18.96 7.72-25.14 15.69-9.82 12.67-14.04 28.82-15.1 44.6-0.95 22.4 1.26 45.31 9.48 66.33 5.5 13.75 14.2 27.19 27.64 34.26 14.62 7.89 33.83 5.02 45.95-6.21 13.75-12.46 19.3-31.33 21.08-49.26 1.81-22.81-0.14-46.35-8.83-67.69-5.45-13.29-14.26-25.81-26.97-32.99-8.42-4.88-18.56-6.42-28.11-4.73zm29.36 1.25c12.39 7.88 22.21 19.49 28.1 32.93 9.4 21.28 11.53 45.07 10.36 68.09-0.96 18.45-7.33 36.58-18.61 51.26 4.71-3.79 8.88-8.26 12.38-13.19 9.68-13.58 13.18-30.54 13.72-46.94 0.7-21.67-2.25-44.06-12.42-63.46-7-13.27-18.53-25.14-33.53-28.69zm-83.5 29.48c-8.43 13.33-12.79 28.98-13.62 44.66-1.1 19.77 2.45 40.31 12.84 57.4 9.17 15.2 23.92 26.77 40.63 32.63-11.93-7.45-22.77-16.87-30.59-28.65-11.08-15.82-15.61-35.35-15.83-54.44-0.28-13.02 1.26-26.23 5.9-38.46 5.09-14.08 14.41-26.04 24.15-37.21-9.41 6.24-17.45 14.53-23.48 24.07z" fill="#323232"/>
		<path d="m2281 344.52c10.53-5.28 22.79-4.51 33.98-2.06 8.52 1.59 17.59 4.57 26.09 1.26 3.57-1.73 7.59-1.19 11.44-1.19 1.63 16.73 3.21 33.47 4.82 50.21-2.61-0.01-5.2 0-7.77 0.01-6.42-12.84-13.76-25.56-24.26-35.53-7.55-7.14-17.96-11.24-28.38-10.68-14.55 0.21-27.3 12.64-28.95 26.91-1.12 8.11 0.54 17.37 6.97 22.98 8.27 7.11 19.28 9.44 29.68 11.61 9.48 2.21 19.14 3.69 28.56 6.22 12.54 3.26 23.65 11.66 30.14 22.88 14.81 25.45 6.09 62.43-19.94 77.05-10.3 5.98-22.84 7.58-34.46 5.35-10.12-2.67-19.38-8.24-29.84-9.66-6.4-0.91-12.57 2.49-16.17 7.65-2.11 0.01-4.2 0.01-6.25 0.02-0.01-20.86 0.01-41.72-0.01-62.57 2.45-0.01 4.92 0 7.41 0.01 4.49 13.86 10.41 27.51 19.54 38.99 9.55 12.58 25.19 21.76 41.41 19.14 10.93-1.56 20.88-8.95 25.48-19 3.66-8.33 3.78-17.92 1.49-26.62-2.05-7.87-8.01-14.14-14.891-18.14-7.45-4.05-15.939-5.53-24.12-7.4-14.04-2.89-29.32-4.29-40.92-13.59-13.64-10.25-19.02-28.55-16.74-45 1.951-15.89 10.811-31.82 25.691-38.85zm44.62 7.77c8.25 6.07 13.37 15.09 19.28 23.23-0.851-7.85-2.43-15.59-3.49-23.41-5.15 1.7-10.59 1.34-15.79 0.18zm-66.41 47.41c2.65 13.98 11.99 27.16 25.62 32.2 8.72 3.1 17.98 4.29 27.03 6.16 10.47 2.1 21.59 3.63 30.55 9.92 8.41 5.71 13.71 15.41 14.54 25.49 0.94 7.7-1.28 15.27-4.08 22.36 5.85-6.65 9.11-15.47 8.92-24.32 0.14-9.23-2.5-18.96-9.38-25.46-9.83-10.17-24.35-12.84-37.56-15.9-11.21-2.74-23.26-3.14-33.46-9.03-8.61-4.59-15.19-12.56-18.44-21.71-2.75-7.11-2.56-14.81-2.57-22.3-1.85 7.35-2.74 15.11-1.17 22.59zm1.13 78.19c-0.12 10.88 0 21.76-0.06 32.63 1.77-2.08 3.43-4.41 5.87-5.79 2.66-1.38 5.76-1.24 8.7-1.41-6.38-7.51-11.12-16.21-14.51-25.43z" fill="#323232"/>
		<path d="m1238 343.49c4.15-1.8 8.77-0.89 13.16-1.08 15.58 43.4 31.1 86.82 46.66 130.23 4.09 10.3 6.46 21.69 13.54 30.51 3.73 4.16 9.21 6.01 14.46 7.41 0 2.32 0 4.65 0.01 6.98h-66.62c-0.01-2.34-0.01-4.68 0-7.01 5.01-0.75 10.43-1.16 14.75-4.05 3.91-3.6 2.49-9.52 1.15-13.99-4.75-13.33-9.64-26.61-14.42-39.93-17.75-0.03-35.5-0.03-53.24 0-2.77 8-5.85 15.9-8.45 23.96-2.4 8.67-3.26 18.9 2.32 26.57 3.02 4.71 8.46 7.22 13.94 7.52-0.01 2.31-0.01 4.62 0 6.93-17.33 0.01-34.65 0-51.97 0.01-0.01-2.32-0.01-4.63 0.01-6.94 6.58-1.27 12.3-5.29 16.41-10.49 5.47-6.74 9.02-14.79 11.95-22.9 12.62-35.37 25.22-70.74 37.86-106.1 1.39-2.53-0.98-4.83-2.33-6.77-3.06-4.2-8.44-5.24-13.26-5.92-0.02-1.97-0.02-3.94 0-5.9 8.02-3.01 16.06-5.98 24.07-9.04zm-14.59 13.01c6.59 2.93 10.26 9.4 12.52 15.93 12.82 35.61 25.49 71.27 38.26 106.89 2.41 7.26 5.88 14.44 5.93 22.22 0.25 4.16-3.56 6.53-6.19 9.03 2.68-0.19 5.6 0.11 8.09-1.18 3.61-1.8 5.75-5.9 5.46-9.88-0.48-6.21-2.49-12.16-4.51-18-12.18-33.84-24.37-67.69-36.56-101.53-2.66-6.78-4.33-14.18-8.86-20.03-3.36-4.25-9.29-4.15-14.14-3.45zm-13.23 88h47.68c-8.01-22.12-15.89-44.3-23.96-66.4-8.01 22.1-15.79 44.28-23.72 66.4zm-20.37 46.91c-3.39 7.34-8.13 14.14-14.59 19.09 7.2 0.02 14.4-0.03 21.6 0.03-5.62-4.63-7.76-12.05-7.01-19.12z" fill="#323232"/>
		<path d="m182.65 343.51c24.98 0 49.96-0.03 74.95 0.01-0.01 2.32-0.02 4.64-0.01 6.96-6.21 0.32-13.24 0.11-18.34 4.26-4.59 3.99-4.18 10.63-4.72 16.14-0.31 17.53-0.02 35.06-0.15 52.59 26.65 0.08 53.31 0.02 79.97 0.03-0.01-16.67 0-33.34-0.01-50-0.14-4.68-0.08-9.47-1.54-13.96-1.02-3.25-3.77-5.8-7.03-6.73-4.85-1.44-9.94-1.88-14.96-2.32v-6.98c24.97 0 49.95-0.01 74.92 0-0.01 2.33-0.01 4.66 0 7-6.11 0.42-12.84 0.18-18.17 3.65-5.14 4.25-4.6 11.66-5.17 17.68-0.23 36.88-0.03 73.76-0.1 110.64 0.02 6.34-0.14 12.83 1.63 18.98 0.96 3.33 3.63 5.97 6.81 7.24 4.75 1.93 9.97 1.76 15 1.77-0.01 2.35-0.01 4.71 0 7.08-24.97-0.01-49.95 0-74.92-0.01v-7.04c5.98-0.51 12.41-0.46 17.79-3.44 5.47-3.54 5.16-10.82 5.58-16.54 0.37-19.32 0.07-38.65 0.16-57.98-26.65 0.01-53.3-0.01-79.95 0.01 0.01 15.95 0.01 31.9 0.01 47.86 0.07 6.33-0.22 12.74 1.09 18.99 0.79 3.56 3.14 6.88 6.63 8.22 4.91 1.96 10.26 2.32 15.47 2.88-0.01 2.34-0.01 4.69 0 7.04-24.98 0.01-49.96 0-74.93 0-0.01-2.35-0.01-4.7-0.01-7.04 5.37-0.28 10.98-0.17 15.99-2.37 3.87-1.69 6.03-5.72 6.75-9.7 1.11-6.25 0.96-12.63 0.96-18.94-0.02-36.67 0.02-73.34-0.02-110.01-0.22-5.25-0.65-11.58-5.29-14.94-5.48-3.34-12.15-3.65-18.38-4.05-0.01-2.33-0.01-4.66-0.01-6.98zm19.55 6.88c6.72 3.84 7.73 12.04 7.75 19.04 0.11 39 0 78.01 0.06 117.01-0.06 4.71-0.13 9.49-1.19 14.11-0.93 4.04-3.67 7.31-6.65 10.05 3.73-0.09 8.15 0.1 10.75-3.11 4.18-5.32 4.03-12.54 4.33-18.96 0.02-38.65 0.07-77.3-0.02-115.96-0.52-6.07 0.43-12.84-3.04-18.21-2.61-3.98-7.78-3.94-11.99-3.97zm107.87 0.02c2.32 1.66 4.84 3.4 5.94 6.17 1.91 4.7 1.8 9.89 1.98 14.87 0.01 39.34 0.01 78.69 0 118.03-0.15 4.24-0.11 8.59-1.26 12.72-1.07 3.59-4 6.12-6.83 8.37 3.69-0.17 7.95 0.36 10.94-2.3 3.79-3.43 4.02-8.97 4.1-13.72 0.03-40.36 0.02-80.72 0-121.08-0.14-6.21 0.06-12.73-2.44-18.56-2.31-4.59-8.04-4.46-12.43-4.5z" fill="#323232"/>
		<path d="m378.48 343.52c29.15-0.04 58.31 0.01 87.47-0.03 8.47 0.03 17.04 1.06 24.99 4.1 10.58 4.01 20.2 11.38 25.41 21.59 7.3 13.56 6.65 30.95-1.58 43.97-7.79 12.66-21.62 20.77-36.11 23.18 11.49 12.85 21.18 27.16 32.16 40.43 7.34 8.62 13.59 18.21 21.91 25.98 3.65 3.52 8.07 6.17 12.85 7.87 0 2.3 0 4.61 0.01 6.93-9.25-0.35-18.64 0.85-27.78-0.88-13.67-3.65-22.34-15.83-30.53-26.47-8.76-11.91-17.26-24.03-26.07-35.9-3.48-4.49-6.81-9.18-11.09-12.95-5.03-4.79-12.49-2.14-18.68-2.77 0.03 15.97 0.02 31.95 0.01 47.92-0.02 5.07-0.06 10.3 1.66 15.14 1.05 3.16 3.93 5.35 6.97 6.44 5.18 1.75 10.67 2.3 16.11 2.47v7c-25.91 0-51.81 0.02-77.71-0.01-0.01-2.35-0.01-4.69 0-7.03 6.46-0.34 13.37-0.17 19.24-3.28 5.69-3.38 5.83-10.82 6.06-16.69 0.04-39.7 0.08-79.41-0.03-119.11-0.32-6.12-0.29-13.87-6.21-17.47-5.81-3.15-12.68-3-19.09-3.51 0.02-2.31 0.02-4.62 0.03-6.92zm20.07 6.88c2.71 1.72 5.66 3.56 6.92 6.69 1.9 5.23 1.75 10.91 1.87 16.4 0 40.69 0.05 81.37-0.03 122.06 0.15 5.91-2.5 11.77-7.49 15.08 3.98-0.4 8.37-0.92 11.35-3.89 2.8-2.57 3.27-6.58 3.26-10.16-0.06-41.69 0.06-83.37-0.07-125.05-0.46-5.74 0.3-12.23-3.26-17.15-2.93-3.85-8.17-3.92-12.55-3.98zm43.43 1.27c-4.25 1.13-7.92 4.47-9 8.8-1.87 7.19-1.47 14.69-1.52 22.05-0.02 16.31 0.03 32.63-0.03 48.94 8.57-0.08 17.18 0.46 25.71-0.46 8.58-1.45 17.39-4.36 23.83-10.44 7.39-7.27 9.51-18.08 9.73-28.06 0.32-11.21-2.06-23.27-9.92-31.73-5.03-5.6-12.14-9.27-19.66-9.84-6.36-0.43-12.93-0.98-19.14 0.74zm32.66-0.38c4.22 2.86 8.42 5.94 11.44 10.12 5.95 7.68 7.85 17.6 8.18 27.09 0.23 9.04-0.19 18.56-4.5 26.72-3.94 7.25-11.11 11.84-18.26 15.49 8.43-1.09 16.67-5.05 22.03-11.76 6.44-7.95 8.52-18.52 8.39-28.53 0.07-9.98-1.91-20.52-8.28-28.48-4.62-5.9-11.67-9.52-19-10.65zm-22.91 87.22c11.18 10.46 19.39 23.55 28.48 35.77 9.05 12.1 16.84 25.79 29.54 34.54 4.83 3.56 10.9 4.6 16.75 5.1-5.3-3.14-10.27-6.86-14.47-11.38-11-11.59-19.78-25.03-29.33-37.79-5.49-7.74-11.83-14.8-17.53-22.37-1.21-1.46-2.67-2.66-4.11-3.86-3.12 0.03-6.23 0.03-9.33-0.01z" fill="#323232"/>
		<path d="m558.54 343.5c24.88 0.01 49.77 0 74.65 0.01-0.01 2.32-0.01 4.65 0 6.99-5.71 0.21-11.67 0.6-16.84 3.29-3.45 1.75-5.18 5.61-5.55 9.31-1.02 10.09-0.71 20.25-0.76 30.38 0.01 32.34-0.01 64.69 0.01 97.03 0.11 5.33 0.63 11.34 4.49 15.4 5.15 4.33 12.37 3.76 18.65 4.59-0.01 2.34-0.01 4.69 0 7.04-24.88 0.01-49.77 0-74.65 0v-7.04c6.41-0.28 13.69-0.24 18.84-4.67 4.23-4.23 3.9-10.76 4.29-16.31 0.05-39.58 0.09-79.16-0.02-118.74-0.47-5.53 0.07-12.39-4.66-16.29-5.43-3.51-12.28-3.07-18.45-3.98v-7.01zm18.57 6.93c7.47 4.53 8.97 14.04 8.27 22.06-0.21 41.34 0 82.69-0.11 124.03-0.1 2.8-0.4 5.79-2.05 8.17-1.73 2.46-4.34 4.07-6.67 5.89 4.23-0.38 8.71-0.82 12.38-3.19 3.09-2.2 3.71-6.33 3.77-9.87 0.02-43.34-0.01-86.68 0.01-130.02-0.02-4.81-0.46-10.14-3.78-13.9-3.1-3.1-7.76-3.04-11.82-3.17z" fill="#323232"/>
		<path d="m793.48 343.55c47.56-0.1 95.12-0.02 142.68-0.04 2.74 13.59 5.35 27.21 8.13 40.8h-8.04c-7.11-13.32-17.38-26.16-32.16-31.16-8.34-2.3-17.1-2.4-25.69-2.62-0.01 45.64 0.01 91.28-0.01 136.92 0.05 6.56-0.14 14.65 5.72 18.98 5.67 3.67 12.77 3.51 19.25 4.11 0.48 2.28 0.16 4.66 0.22 6.99-26.22 0.03-52.45 0.01-78.67 0.01-0.01-2.35-0.01-4.7 0-7.05 5.35-0.18 10.82-0.33 15.98-1.95 4.07-1.24 7.15-4.78 8.28-8.83 1.49-5.26 1.29-10.79 1.31-16.2-0.02-44.33 0.02-88.67-0.01-133-13.45 0.06-27.7 2.55-38.49 11.11-7.94 6.15-13.35 14.79-19.45 22.63-2.31 0.04-4.62 0.06-6.91 0.08 2.66-13.59 5.26-27.19 7.86-40.78zm2.62 7c-1.46 6.91-2.97 13.81-4.3 20.75 3.12-4.17 6.14-8.46 9.94-12.04 3.73-3.49 8.14-6.11 12.5-8.71-6.05-0.01-12.09-0.01-18.14 0zm58.06-0.31c-0.19 47.43 0.05 94.86-0.12 142.29 0 6.8-2.13 13.92-7.88 18.06 3.34-0.21 7.06 0.1 9.94-1.97 3.01-2.05 3.76-5.87 4.37-9.2 0.89-6.59 0.9-13.25 0.88-19.89-0.01-38.01 0-76.02-0.01-114.03-0.18-4.1-0.09-8.5-2.14-12.18-1.04-1.85-3.21-2.39-5.04-3.08zm51.51 0.49c10.71 3.05 18.75 11.14 25.85 19.31-1.55-6.53-3.3-13-4.94-19.5-6.98 0.08-13.95-0.18-20.91 0.19z" fill="#323232"/>
		<path d="m953.76 343.51c17.09-0.01 34.18-0.01 51.27 0 16.74 43.86 33.25 87.81 50.15 131.61 16.39-43.85 32.72-87.73 49.03-131.61 16.15 0 32.3-0.01 48.45 0-0.02 2.32-0.02 4.63 0 6.96-6.5 0.29-14.34 0.31-18.79 5.87-3.86 5.2-2.64 12.13-3.24 18.2-0.24 38.63-0.06 77.26-0.09 115.89 0.19 5.84 0.52 12.98 5.91 16.58 4.87 2.83 10.72 3.02 16.21 3.5-0.02 2.34-0.02 4.68-0.01 7.03-24.08 0-48.16 0.02-72.24-0.01-0.01-2.34-0.01-4.69 0-7.03 6.32-0.2 13.57-0.39 18.39-5.13 3.27-3.03 3.18-7.78 3.56-11.89 0.43-8.32 0.16-16.66 0.24-24.98-0.04-34.25 0.08-68.49-0.06-102.74-18.77 50.53-37.24 101.16-55.83 151.75-2.17 0.02-4.33 0.03-6.47 0.04-18.34-48.95-36.64-97.93-55.1-146.83-0.11 33.56-0.01 67.13-0.05 100.7-0.04 9.45 1.25 19.43 6.63 27.44 4.32 6.36 11.59 9.81 18.81 11.74-0.01 2.29-0.01 4.59 0 6.9-18.92 0.1-37.85 0.01-56.77 0.04-0.01-2.32-0.01-4.64 0.01-6.96 7.3-0.87 14.46-4.4 18.66-10.6 6.01-8.54 6.54-19.43 6.38-29.52-0.03-36.52 0.05-73.05-0.04-109.57-6.15-7.19-15.6-11.02-25.01-10.45-0.01-2.32-0.01-4.63 0-6.93zm17.65 7c3.12 1.61 6.27 3.34 8.74 5.92 4.81 4.97 7.33 11.58 9.9 17.89 17.5 45.4 34.75 90.89 52.37 136.24 2.58-4.81 3.14-10.54 0.99-15.62-14.44-38.76-29.12-77.43-43.65-116.15-3.29-8.3-5.77-17.41-12.11-24-4.25-4.29-10.62-4.45-16.24-4.28zm137.03 3.57c-2.48 4.35-2.02 9.59-2.2 14.42-0.11 37.66-0.021 75.33-0.05 112.99-0.19 6.85 0.56 13.81-0.91 20.56-0.79 3.94-4.3 6.37-7.38 8.51 3.75-0.23 8.01 0.45 11.28-1.89 2.09-1.44 2.8-4 3.29-6.35 1.16-6.88 1.01-13.88 1.01-20.83v-99.02c0.24-10.7-0.82-21.63 1.89-32.11-2.59 0.55-5.58 1.15-6.93 3.72zm-128.51 140.43c-2.13 6.88-7.39 12.14-13.29 16 7.85-0.05 15.71 0.1 23.56-0.1-5.76-3.37-8.62-9.72-10.27-15.9z" fill="#323232"/>
		<path d="m1530.9 343.51c29.37-0.01 58.74 0.01 88.11-0.01 10.28 0.1 20.7 2.16 29.75 7.19 11.73 6.35 20.43 18.38 21.92 31.73 1.59 11.52-2.19 23.92-10.76 31.95-8.48 8.03-19.92 12.01-31.24 13.93 6.52 1.32 13.13 2.61 19.25 5.37 9.24 3.92 17.51 10.6 22.37 19.49 8.17 15.1 6.64 35.53-5.31 48.25-6.81 7.47-16.271 12.05-26.01 14.28-9.82 2.33-19.98 1.8-29.97 1.85-26.04 0-52.08 0.01-78.11 0-0.02-2.34-0.02-4.68 0-7.01 6.62-0.13 14.32 0.25 19.47-4.71 4.48-4.22 4-10.88 4.38-16.51 0.23-31.26 0.03-62.53 0.1-93.79-0.09-9.45 0.2-18.9-0.22-28.33-0.45-4.67-0.85-10.27-5.11-13.17-5.46-3.63-12.36-3.29-18.62-3.51-0.02-2.34-0.02-4.67 0-7zm18.48 7.1c2.56 1.11 5.29 2.46 6.7 5.04 2.46 4.52 2.25 9.87 2.41 14.87 0.02 32.66 0 65.33 0.01 98-0.23 10.27 0.54 20.6-0.59 30.84-0.52 5.11-4.22 9.21-8.87 11.1 4.78 0.13 10.83 0.28 13.71-4.35 2.65-5.07 2.94-10.99 3.04-16.6 0.03-38.67 0-77.35 0.01-116.03-0.14-6.3 0.75-13.3-2.96-18.81-3.1-4.16-8.78-4.25-13.46-4.06zm37.51 4.77c-4.31 4.96-3.96 11.98-3.96 18.14 0.02 16.99 0 33.99 0.01 50.98 10.07-0.14 20.18 0.36 30.24-0.38 7.01-0.65 14.48-2.79 18.96-8.62 8.5-10.83 9.99-25.74 7.27-38.89-1.86-9.26-6.91-18.41-15.34-23.14-6.54-3.12-14.03-2.88-21.09-2.92-5.57 0.18-11.97 0.6-16.09 4.83zm38.52-5.01c9.63 4.88 15.62 14.78 17.57 25.18 2.22 11.96 2.05 25.09-3.81 36.04-2.84 5.47-7.66 9.45-12.66 12.84 6.84-2.14 13.45-5.83 17.79-11.68 5.67-7.43 7.32-17.09 7.21-26.23-0.22-9.93-2.67-20.42-9.57-27.9-4.21-4.78-10.31-7.42-16.53-8.25zm-42.47 81.03c-0.01 20.02 0 40.05 0 60.07 0.05 4.68 0.3 9.89 3.59 13.58 3.65 3.99 9.35 4.96 14.51 5.23 7.64 0.27 15.56 0.73 22.87-1.97 6.83-2.39 12.57-7.62 15.66-14.16 4.1-8.58 4.73-18.36 4.08-27.71-0.81-9.62-4.21-19.45-11.34-26.23-5.88-5.73-14.11-8.67-22.25-8.74-9.04-0.17-18.08-0.03-27.12-0.07zm41.86 0.19c4.69 2.49 9.39 5.21 12.9 9.31 7.27 7.96 9.67 19.12 9.74 29.62 0.24 10.33-1.34 21.29-7.54 29.85-3.54 5.1-8.91 8.4-14.33 11.18 7.34-1.18 14.67-4.22 19.55-10.03 7.32-8.49 9.27-20.15 9.35-31.02 0.01-10.96-2.77-22.67-10.81-30.58-4.96-5.08-11.93-7.58-18.86-8.33z" fill="#323232"/>
		<path d="m2063.6 343.51c25.49-0.01 50.99-0.01 76.49 0-0.02 2.33-0.02 4.67 0 7.01-6.35 0.11-13.71-0.19-18.73 4.36-4.74 5.33-4.29 12.99-4.27 19.65 0.02 19.03-0.03 38.07 0.02 57.11 15.51-15.16 31.03-30.31 46.48-45.53 4.8-4.94 9.74-10 12.82-16.24 2.65-5.43 2.24-13.04-2.95-16.83-3.82-3-8.92-2.49-13.46-2.51-0.02-2.34-0.02-4.69 0-7.03 22.41 0.01 44.83 0 67.24 0.01-0.021 2.3-0.03 4.62-0.01 6.93-14.25 2.33-26.54 10.77-37.24 20.03-13.18 11.42-25.3 23.98-37.94 35.98 21.28 29.06 42.37 58.25 63.771 87.23 5.8 8.01 13.399 15.9 23.83 16.9-0.02 2.31-0.02 4.63 0.01 6.96-25.13 0.01-50.26 0-75.39 0.01-0.02-2.36-0.02-4.7 0-7.05 5.18-0.19 10.92-0.14 15.3-3.36 2.67-1.9 3.12-5.57 2.22-8.52-1.22-4.01-3.91-7.32-6.26-10.69-14.811-20.28-29.601-40.57-44.41-60.83-4.68 4.55-9.32 9.14-14.01 13.68-0.05 15.23 0 30.47-0.02 45.7 0.02 6.61-0.03 14.13 4.52 19.45 4.86 4.76 12.29 3.62 18.48 4.56-0.02 2.34-0.02 4.7 0 7.05-25.5 0.01-50.99 0-76.49 0-0.02-2.34-0.02-4.68 0-7.01 6.84-0.18 14.61 0.44 20.3-4.15 4.87-4.08 4.79-11.08 5.06-16.89 0.09-39.34 0.04-78.68 0.02-118.02-0.21-5.59-0.03-12.33-4.63-16.35-5.83-4.59-13.72-4.41-20.75-4.61-0.021-2.34-0.021-4.67-1e-3 -7zm20.75 6.88c2.84 1.92 6.13 3.96 7.03 7.54 1.37 5.75 1.06 11.73 1.25 17.6 0.05 31.66 0.01 63.31 0.02 94.97-0.25 10.01 0.63 20.11-0.76 30.07-0.52 4.75-4.439 8.05-8.55 9.89 4.57-0.06 10.05 0.47 13.47-3.25 3.56-3.98 2.74-9.78 3.03-14.7 0.15-39.34 0.03-78.69 0.06-118.03-0.2-6.5 0.27-13.39-2.59-19.41-2.68-4.37-8.46-4.38-12.96-4.68zm92.26 0.12c2.05 2.37 4.29 4.87 4.83 8.09 0.73 3.38-0.27 6.79-1.24 10.02 6.89-6.76 13.68-13.96 22.58-18.09-8.73 0.01-17.45 0.05-26.17-0.02zm-42.49 73.81c14.66 20.38 29.19 40.85 43.91 61.2 3.569 5.09 7.96 10.42 7.899 16.99 0 3.6-2.75 6.17-5.43 8.12 2.67-0.26 5.67 0.1 8.08-1.4 3.62-2.06 5.64-6.54 4.76-10.63-1.27-6.56-5.23-12.14-9.03-17.47-15.08-20.61-29.99-41.33-45.16-61.87-1.689 1.69-3.369 3.37-5.029 5.06z" fill="#323232"/>
	<path d="m1093.1 567.66c7.31-1.06 14.78-0.07 22.16-0.52 28.28-0.12 56.55-0.35 84.82-0.39 27.32 0.22 54.65 0.24 81.97 0.47 3.96 0.14 8-0.44 11.92 0.44 27.99 0.3 55.98 0.28 83.97 0.51 1.02 0.06 2.04 0.16 3.09 0.28 6-0.5 12.01 0.07 18.03-0.01 10.97 0.75 22 0.18 33 0.44 17.01 0.07 34.03 0.34 51.05 0.3 13.28 1 26.63 0.41 39.95 0.6 23.93 0.43 47.9 0.09 71.83 0.74 28.69 0.5 57.4 0.42 86.11 0.71 7.7 0.2 15.43-0.32 23.11 0.53 24.66 0.08 49.32 0.31 73.98 0.39 3.64 0.09 7.36-0.39 10.95 0.52 4.95-1.02 10 0.11 15.02-0.27 10.98 0.81 22.01 0.24 33.02 0.54 16.98-0.05 33.97 0.23 50.95 0.22 24.31 1.24 48.71 0.35 73.05 0.91 13.35 0.04 26.71 0.11 40.06 0.27 3.59 0.68 7.27 0.38 10.92 0.42 31.34 0.03 62.68 0.49 94.02 0.57 22.1 0.83 44.27 0.21 66.36 1.13-25.76 0.69-51.56 0.53-77.33 0.84-24.01 0.63-48.05 0.59-72.08 0.74-10.01 0.36-20.05-0.31-30.021 0.65-4.01 0.06-8.02 0.2-11.979-0.27-9.61 0.86-19.3 0.15-28.93 0.52-16.37-0.02-32.73 0.33-49.09 0.28-15.32 1.04-30.7 0.25-46.04 0.74-18.7-0.01-37.39 0.42-56.08 0.3l-0.73 0.48c-12.07-0.14-24.12 0.21-36.18 0.15-15.98 0.47-31.98-0.19-47.93 0.82-27.67 0.03-55.34 0.34-83 0.56-3.66 0-7.33-0.21-10.94 0.34-26.01 0.27-52.02 0.37-78.03 0.59-7.36 0.24-14.74-0.34-22.06 0.52-28.65 0.14-57.3 0.37-85.95 0.56-6.04-0.29-12.03 0.76-18.06 0.5-22.33 0-44.66 0.39-67 0.41-14.979 1.03-30.03 0.22-45.04 0.72-14.63 0.06-29.25 0.18-43.88 0.36-5.01 0-10.03-0.18-15.01 0.35-29.66 0.3-59.34 0.57-89 0.16-37.67-0.64-75.36-1.03-113.05-1.08-14.84-0.94-29.73-0.41-44.59-0.74-14.82-0.36-29.67 0.29-44.45-0.69-30.32-0.09-60.64-0.45-90.96-0.54-7.3-0.84-14.64-0.31-21.96-0.53-26.02-0.22-52.05-0.31-78.08-0.59-3.96-0.6-7.98-0.31-11.97-0.34-27.98-0.28-55.97-0.47-83.95-0.62-8.33-0.89-16.71-0.19-25.05-0.58-17.99-0.02-35.98-0.36-53.96-0.34-1.34-0.06-2.67-0.17-3.98-0.35-31.68-0.27-63.36-0.56-95.04-0.71-7.63-0.86-15.32-0.2-22.97-0.53-23.02-0.15-46.04-0.36-69.06-0.41-5.65 0.27-11.24-0.83-16.89-0.55-22.7-0.09-45.4-0.36-68.1-0.4-14.63-0.83-29.31-0.33-43.96-0.67-14.67-0.08-29.35-0.19-44.02-0.39-3.79-0.07-7.62 0.32-11.37-0.37 22.44-0.67 44.93-0.28 67.37-1.03 30.99-0.07 61.97-0.53 92.96-0.56 3.66-0.05 7.35 0.27 10.98-0.42 34.39-0.33 68.79-0.51 103.19-0.61 8.92-1.07 17.92-0.24 26.88-0.68 20.01-0.01 40.03-0.24 60.04-0.22 1.31-0.06 2.6-0.23 3.88-0.52 5.33 0.18 10.69 0.87 16.01 0.09 23.67-0.56 47.37-0.25 71.05-0.6 7.36-0.13 14.74 0.32 22.07-0.5 33.65-0.15 67.29-0.44 100.93-0.63 9.32-0.85 18.69-0.15 28.03-0.57 25.97-0.03 51.94-0.44 77.92-0.38 4.67-0.39 9.35-0.7 14.05-0.53 23.99-0.1 47.99-0.45 71.99-0.38 3.37 0.01 6.72-0.63 10.11-0.51 2.24 0.54 4.56 0.51 6.83 0.06 31.37-0.53 62.76-0.32 94.14-0.7z" fill="#323232"/>
</svg>
