<?xml version="1.0" encoding="UTF-8" ?>
<!DOCTYPE svg PUBLIC "-//W3C//DTD SVG 1.1//EN" "http://www.w3.org/Graphics/SVG/1.1/DTD/svg11.dtd">
<svg width="2390pt" height="445pt" viewBox="0 0 2390 445" version="1.1" xmlns="http://www.w3.org/2000/svg">
<g id="#333333ff">
<path fill="#333333" opacity="1.00" d=" M 18.60 27.00 C 51.68 27.00 84.76 26.99 117.84 27.01 C 117.83 70.67 117.83 114.33 117.83 157.99 C 127.14 158.00 136.45 158.01 145.75 157.99 C 145.74 114.33 145.75 70.67 145.75 27.00 C 178.81 27.00 211.87 26.99 244.93 27.01 C 244.91 156.95 244.94 286.89 244.91 416.83 C 211.86 416.83 178.81 416.83 145.77 416.83 C 145.73 367.25 145.75 317.67 145.75 268.10 C 136.45 268.08 127.14 268.09 117.83 268.09 C 117.82 317.67 117.85 367.24 117.82 416.82 C 84.75 416.85 51.69 416.82 18.62 416.83 C 18.56 286.89 18.61 156.95 18.60 27.00 Z" />
<path fill="#333333" opacity="1.00" d=" M 315.51 27.30 C 316.87 26.71 318.53 27.10 320.01 26.97 C 365.57 27.04 411.13 26.98 456.69 27.00 C 477.81 156.98 498.90 286.96 520.03 416.94 C 486.66 416.99 453.29 416.95 419.92 416.96 C 417.82 401.76 415.72 386.56 413.70 371.34 C 395.16 371.31 376.62 371.34 358.09 371.33 C 356.23 386.55 354.21 401.74 352.34 416.96 C 318.95 416.95 285.55 417.00 252.16 416.94 C 273.35 287.07 294.33 157.17 315.51 27.30 M 384.99 166.94 C 380.14 204.22 375.08 241.48 370.18 278.76 C 380.64 278.73 391.10 278.76 401.57 278.74 C 396.64 240.04 391.57 201.35 386.61 162.65 C 384.93 163.39 385.38 165.49 384.99 166.94 Z" />
<path fill="#333333" opacity="1.00" d=" M 527.60 27.00 C 560.68 27.00 593.76 26.99 626.84 27.01 C 626.83 118.67 626.83 210.33 626.83 301.99 C 650.33 302.01 673.83 301.99 697.33 302.00 C 697.33 340.33 697.33 378.66 697.33 417.00 C 640.75 417.00 584.18 417.00 527.60 417.00 C 527.59 287.00 527.59 157.00 527.60 27.00 Z" />
<path fill="#333333" opacity="1.00" d=" M 721.60 27.00 C 754.68 27.00 787.76 26.99 820.84 27.01 C 820.83 118.67 820.83 210.33 820.84 302.00 C 844.33 302.01 867.83 301.99 891.33 302.00 C 891.33 340.33 891.33 378.66 891.33 417.00 C 834.75 417.00 778.17 417.00 721.60 417.00 C 721.59 287.00 721.59 157.00 721.60 27.00 Z" />
<path fill="#333333" opacity="1.00" d=" M 1251.17 27.02 C 1284.39 26.98 1317.61 27.01 1350.84 27.00 C 1360.27 110.36 1369.29 193.77 1378.82 277.11 C 1384.50 225.46 1389.46 173.72 1394.89 122.03 C 1398.08 90.36 1401.45 58.71 1404.57 27.03 C 1434.98 26.96 1465.39 27.02 1495.80 27.00 C 1503.95 107.60 1512.10 188.20 1520.15 268.81 C 1520.54 270.34 1519.89 272.63 1521.75 273.37 C 1530.89 191.25 1540.41 109.17 1549.50 27.05 C 1582.73 26.94 1615.97 27.02 1649.21 27.01 C 1628.16 157.00 1607.06 286.99 1585.87 416.97 C 1549.55 416.96 1513.23 416.97 1476.91 416.96 C 1468.02 336.91 1459.42 256.82 1450.47 176.78 C 1448.52 183.70 1448.60 191.01 1447.57 198.11 C 1439.58 271.05 1431.54 344.00 1423.60 416.95 C 1387.23 416.96 1350.86 417.00 1314.50 416.93 C 1293.45 286.95 1272.34 156.98 1251.17 27.02 Z" />
<path fill="#333333" opacity="1.00" d=" M 1656.60 27.00 C 1723.89 27.00 1791.18 27.00 1858.47 27.00 C 1858.47 65.36 1858.49 103.72 1858.47 142.08 C 1824.26 142.10 1790.04 142.08 1755.83 142.09 C 1755.83 152.06 1755.83 162.03 1755.84 172.00 C 1790.05 172.01 1824.26 171.99 1858.47 172.00 C 1858.48 205.69 1858.48 239.39 1858.47 273.08 C 1824.26 273.10 1790.05 273.08 1755.83 273.09 C 1755.83 282.73 1755.83 292.36 1755.83 302.00 C 1790.05 302.01 1824.26 301.99 1858.47 302.00 C 1858.48 340.33 1858.48 378.66 1858.47 417.00 C 1791.18 417.00 1723.89 417.00 1656.60 417.00 C 1656.59 287.00 1656.59 157.00 1656.60 27.00 Z" />
<path fill="#333333" opacity="1.00" d=" M 1887.60 27.00 C 1954.89 27.00 2022.18 27.00 2089.47 27.00 C 2089.47 65.36 2089.48 103.72 2089.47 142.08 C 2055.26 142.10 2021.04 142.08 1986.83 142.09 C 1986.83 152.06 1986.82 162.03 1986.83 172.00 C 2021.05 172.01 2055.26 171.99 2089.47 172.00 C 2089.47 205.70 2089.49 239.39 2089.46 273.08 C 2055.25 273.10 2021.04 273.08 1986.84 273.09 C 1986.82 282.72 1986.83 292.36 1986.84 302.00 C 2021.05 302.01 2055.26 301.99 2089.47 302.00 C 2089.48 340.33 2089.48 378.67 2089.47 417.00 C 2022.18 417.00 1954.89 417.00 1887.60 417.00 C 1887.59 287.00 1887.59 157.00 1887.60 27.00 Z" />
<path fill="#333333" opacity="1.00" d=" M 2118.59 27.01 C 2157.31 26.99 2196.03 27.01 2234.75 27.00 C 2244.26 62.57 2253.69 98.17 2263.17 133.75 C 2268.97 156.01 2275.21 178.16 2280.74 200.49 C 2279.32 142.66 2277.28 84.83 2275.54 27.00 C 2307.44 27.00 2339.34 27.00 2371.25 27.01 C 2371.25 156.99 2371.26 286.98 2371.24 416.96 C 2333.12 416.97 2295.00 416.96 2256.88 416.96 C 2247.74 382.95 2238.65 348.93 2229.54 314.91 C 2222.52 289.20 2216.00 263.34 2208.65 237.72 C 2210.24 297.47 2212.45 357.21 2214.23 416.96 C 2182.35 416.96 2150.47 416.98 2118.60 416.95 C 2118.59 286.97 2118.60 156.99 2118.59 27.01 Z" />
<path fill="#333333" opacity="1.00" d=" M 1033.91 27.95 C 1042.75 27.99 1051.51 29.53 1059.87 32.39 C 1069.44 34.89 1077.86 40.36 1085.61 46.34 C 1096.26 54.60 1105.87 64.11 1114.85 74.14 C 1126.56 72.82 1138.16 69.94 1150.02 70.38 C 1171.77 70.26 1193.96 75.56 1211.96 88.14 C 1228.67 99.83 1241.66 116.48 1249.88 135.07 C 1259.10 155.84 1263.05 178.49 1265.06 200.99 C 1266.41 214.60 1265.89 228.30 1266.00 241.96 C 1266.36 262.11 1263.11 282.39 1256.15 301.32 C 1248.62 321.73 1236.54 340.10 1223.08 357.06 C 1212.91 369.15 1202.58 381.58 1189.05 390.06 C 1173.47 400.20 1156.10 407.87 1137.81 411.43 C 1123.04 414.29 1108.14 417.25 1093.02 416.99 C 1077.96 416.79 1062.80 417.72 1047.84 415.53 C 1023.66 412.25 999.45 406.16 978.17 393.88 C 965.26 386.19 953.64 376.53 942.77 366.20 C 929.76 353.83 918.58 339.44 910.49 323.38 C 904.48 311.57 900.34 298.89 897.24 286.04 C 894.28 273.21 891.94 260.14 892.01 246.93 C 892.17 224.86 891.00 202.62 894.75 180.75 C 897.95 160.24 904.59 140.13 915.17 122.22 C 923.43 108.57 934.65 96.79 947.87 87.85 C 959.24 80.36 971.47 73.58 985.00 71.02 C 992.90 69.47 1000.93 68.41 1008.99 68.20 C 1019.63 68.28 1030.31 67.84 1040.92 69.04 C 1048.50 69.54 1055.98 71.05 1063.57 71.46 C 1057.62 63.16 1050.68 55.30 1041.65 50.28 C 1037.04 47.26 1031.51 45.89 1027.23 42.38 C 1029.45 37.57 1031.35 32.60 1033.91 27.95 M 973.75 190.93 C 975.10 198.80 980.75 206.65 989.03 208.01 C 1007.61 211.37 1026.41 207.38 1044.66 203.86 C 1042.81 201.82 1040.78 199.96 1038.57 198.33 C 1026.67 189.41 1015.63 179.32 1005.83 168.13 C 998.50 159.35 990.94 150.73 984.26 141.44 C 977.05 156.81 971.58 173.76 973.75 190.93 M 1138.23 181.18 C 1129.82 189.38 1120.37 196.41 1111.04 203.51 C 1126.07 207.03 1141.48 209.40 1156.96 208.96 C 1164.36 209.04 1173.10 208.46 1177.96 202.04 C 1184.07 194.99 1183.07 185.14 1182.69 176.50 C 1182.10 164.14 1177.31 152.57 1172.47 141.36 C 1161.93 155.35 1150.60 168.78 1138.23 181.18 M 1054.51 265.23 C 1070.32 260.48 1087.40 260.44 1103.22 265.21 C 1095.24 251.08 1087.32 236.92 1078.93 223.04 C 1070.46 236.91 1062.61 251.15 1054.51 265.23 M 955.92 271.73 C 963.84 295.30 978.49 316.69 997.96 332.20 C 1010.24 341.10 1023.78 348.69 1038.57 352.45 C 1045.91 354.41 1053.32 356.34 1060.93 356.95 C 1062.08 348.00 1064.51 339.28 1067.22 330.69 C 1075.01 330.64 1082.81 330.50 1090.60 330.77 C 1092.74 339.27 1095.76 347.59 1097.13 356.28 C 1098.36 356.62 1099.63 356.70 1100.92 356.50 C 1110.00 355.25 1118.89 352.79 1127.52 349.73 C 1162.62 337.56 1190.24 307.38 1201.49 272.25 C 1186.70 282.50 1170.13 290.17 1152.75 294.86 C 1150.68 301.96 1149.33 309.34 1146.19 316.08 C 1144.77 318.76 1142.97 322.01 1139.61 322.30 C 1132.42 323.46 1125.16 324.29 1117.89 324.68 C 1117.75 317.16 1119.61 309.25 1117.20 301.98 C 1105.84 303.41 1094.36 303.86 1082.92 303.87 C 1077.97 304.69 1073.02 303.56 1068.05 303.80 C 1060.40 303.99 1052.80 302.75 1045.16 302.73 C 1043.78 302.64 1041.68 303.14 1042.05 304.97 C 1042.28 311.51 1041.52 318.13 1042.65 324.62 C 1034.98 323.85 1027.18 323.40 1019.76 321.15 C 1017.87 320.65 1016.49 319.17 1015.60 317.50 C 1011.81 310.78 1010.10 303.18 1008.13 295.79 C 989.65 290.57 971.37 283.36 955.92 271.73 Z" />
</g>
</svg>
