<?xml version="1.0" encoding="utf-8"?>
<!-- Generator: Adobe Illustrator 16.0.0, SVG Export Plug-In . SVG Version: 6.00 Build 0)  -->
<!DOCTYPE svg PUBLIC "-//W3C//DTD SVG 1.1//EN" "http://www.w3.org/Graphics/SVG/1.1/DTD/svg11.dtd">
<svg version="1.1" id="Layer_1" xmlns="http://www.w3.org/2000/svg" xmlns:xlink="http://www.w3.org/1999/xlink" x="0px" y="0px"
	 width="859.03px" height="192.02px" viewBox="0 0 859.03 192.02" enable-background="new 0 0 859.03 192.02" xml:space="preserve">
<g>
	<path d="M154.474,126.75V58.349h31.466v13.68h-18.089v12.13h16.645v13.68h-16.645v28.911H154.474z"/>
	<path d="M205.319,126.75h-13.376V58.349h19.533c10.945,0,16.417,5.29,16.417,18.879c0,7.296-1.444,12.495-7.068,15.595v0.183
		c3.724,1.003,6.384,4.104,6.612,8.846c0.38,5.473,0.456,17.237,1.216,21.615c0.304,0.912,0.684,1.732,1.292,2.371v0.912h-14.593
		c-0.38-1.276-0.684-2.554-0.76-3.922c-0.228-6.02,0.076-11.674-0.304-15.869c-0.38-4.195-1.444-6.932-4.56-7.205h-4.408V126.75z
		 M205.319,87.442h4.56c3.876,0,4.789-4.286,4.789-8.481c0-8.117-2.812-8.482-9.349-8.299V87.442z"/>
	<path d="M234.502,126.75V58.349h30.63v13.68h-17.253v12.586H264.6v13.68h-16.721v14.775h18.165v13.68H234.502z"/>
	<path d="M272.502,126.75V58.349h30.63v13.68h-17.253v12.586H302.6v13.68h-16.721v14.775h18.165v13.68H272.502z"/>
	<path d="M310.502,126.75V58.349h14.517c4.864,0,10.716,0.183,15.048,3.192c5.168,3.648,6.004,10.306,6.004,16.873v30.37
		c-0.076,6.84-1.824,11.856-5.7,14.774c-3.496,2.736-7.752,3.192-11.856,3.192H310.502z M323.879,114.438
		c8.968,0.73,9.044-3.648,8.816-12.768V79.325c-0.076-8.026-2.28-8.482-8.816-8.664V114.438z"/>
	<path d="M388.556,104.953c0,15.412-4.484,23.438-18.013,23.438s-18.241-8.026-18.241-23.438V77.136
		c0-13.133,6.537-20.429,18.241-20.429s18.013,7.296,18.013,20.429V104.953z M375.179,78.23c0-4.195-0.304-9.211-4.712-9.211
		c-4.256,0-4.788,5.016-4.788,9.211v28.09c0,3.922,0.532,9.76,4.864,9.76c4.332,0,4.636-5.838,4.636-9.76V78.23z"/>
	<path d="M395.242,126.75V58.349h18.849l6.917,40.402h0.152l7.145-40.402h18.697v68.401h-12.769l1.368-53.626h-0.152l-9.424,53.626
		h-9.957l-9.196-53.626h-0.152l1.216,53.626H395.242z"/>
	<path d="M464.25,103.858v4.833c0,3.922,1.064,7.389,5.32,7.389c3.117,0,4.484-3.375,4.484-6.841c0-5.745-3.951-7.935-7.447-10.488
		c-4.105-2.827-7.602-5.472-10.109-8.938c-2.432-3.466-3.876-7.661-3.876-13.681c0-12.859,6.46-19.426,16.797-19.426
		c11.629,0,17.558,9.303,16.948,22.162h-12.313c-0.151-4.013,0-9.485-4.408-9.85c-2.736-0.273-4.332,1.551-4.636,4.561
		c-0.38,4.104,1.368,6.202,4.028,8.39c5.016,3.831,9.349,6.202,12.465,9.667c3.115,3.466,4.939,8.026,4.939,16.326
		c0,13.133-6.08,20.429-17.176,20.429c-12.237,0-17.405-8.208-17.405-17.237v-7.296H464.25z"/>
	<path d="M491.762,126.75V58.349h13.377v26.266h9.272V58.349h13.377v68.401h-13.377V98.295h-9.272v28.455H491.762z"/>
	<path d="M534.398,126.75V58.349h30.629v13.68h-17.253v12.586h16.722v13.68h-16.722v14.775h18.165v13.68H534.398z"/>
	<path d="M572.398,126.75V58.349h30.63v13.68h-17.253v12.586h16.721v13.68h-16.721v14.775h18.165v13.68H572.398z"/>
	<path d="M608.574,58.349h34.658v13.68h-10.793v54.721h-13.377V72.029h-10.488V58.349z"/>
	<path d="M658.507,103.858v4.833c0,3.922,1.064,7.389,5.32,7.389c3.116,0,4.484-3.375,4.484-6.841c0-5.745-3.952-7.935-7.448-10.488
		c-4.104-2.827-7.601-5.472-10.108-8.938c-2.433-3.466-3.876-7.661-3.876-13.681c0-12.859,6.46-19.426,16.797-19.426
		c11.628,0,17.557,9.303,16.948,22.162h-12.313c-0.152-4.013,0-9.485-4.408-9.85c-2.736-0.273-4.332,1.551-4.636,4.561
		c-0.381,4.104,1.367,6.202,4.027,8.39c5.017,3.831,9.349,6.202,12.465,9.667c3.116,3.466,4.94,8.026,4.94,16.326
		c0,13.133-6.08,20.429-17.177,20.429c-12.236,0-17.405-8.208-17.405-17.237v-7.296H658.507z"/>
	<path d="M689.135,126.75v-15.596h12.845v15.596H689.135z"/>
	<path d="M733.975,82.244v-4.378c0-5.837-1.748-8.847-4.257-8.847c-4.18-0.091-5.168,2.645-5.168,7.114l-0.076,33.836
		c0,3.83,1.292,6.111,4.788,6.111c4.561,0,4.94-5.655,4.94-9.851v-6.202h13.377v8.391c0,11.766-5.624,19.974-19.305,19.974
		c-12.313,0-17.102-7.843-17.102-21.798V78.504c0-14.866,5.7-21.797,17.938-21.797c11.4,0,18.24,5.837,18.24,19.791v5.746H733.975z"
		/>
	<path d="M789.759,104.953c0,15.412-4.484,23.438-18.013,23.438c-13.529,0-18.241-8.026-18.241-23.438V77.136
		c0-13.133,6.536-20.429,18.241-20.429c11.704,0,18.013,7.296,18.013,20.429V104.953z M776.382,78.23
		c0-4.195-0.304-9.211-4.712-9.211c-4.256,0-4.788,5.016-4.788,9.211v28.09c0,3.922,0.532,9.76,4.864,9.76s4.636-5.838,4.636-9.76
		V78.23z"/>
	<path d="M796.446,126.75V58.349h18.849l6.916,40.402h0.152l7.145-40.402h18.697v68.401h-12.77l1.368-53.626h-0.151l-9.425,53.626
		h-9.957l-9.196-53.626h-0.151l1.216,53.626H796.446z"/>
</g>
<g>
</g>
<g>
</g>
<g>
</g>
<g>
</g>
<g>
</g>
</svg>