<svg xmlns="http://www.w3.org/2000/svg" width="859" height="192" viewBox="0 0 859 192">
  <defs>
    <style>
      .cls-1 {
        fill-rule: evenodd;
      }
    </style>
  </defs>
  <path id="sheetsfree.com" class="cls-1" d="M154.127,104.654v7.25c0,8.971,6.487,17.127,21.844,17.127,13.927,0,21.558-7.25,21.558-20.3,0-8.246-2.289-12.778-6.2-16.221s-9.348-5.8-15.644-9.606c-3.338-2.175-5.532-4.259-5.055-8.337,0.381-2.99,2.384-4.8,5.818-4.531,5.533,0.362,5.342,5.8,5.533,9.787h15.453C198.2,67.047,190.757,57.8,176.162,57.8c-12.973,0-21.081,6.525-21.081,19.3,0,5.981,1.813,10.15,4.865,13.593,3.148,3.444,7.536,6.072,12.687,8.881,4.388,2.538,9.348,4.713,9.348,10.422,0,3.443-1.717,6.8-5.628,6.8-5.342,0-6.677-3.443-6.677-7.34v-4.8H154.127ZM220.993,127.4V99.126H232.63V127.4h16.788V59.434H232.63v26.1H220.993v-26.1H204.2V127.4h16.789Zm76.308,0V113.807H274.5V99.126h20.986V85.533H274.5V73.028h21.653V59.434H257.715V127.4H297.3Zm47.692,0V113.807H322.2V99.126h20.986V85.533H322.2V73.028h21.653V59.434H305.406V127.4h39.587Zm5.816-54.372h13.164V127.4h16.788V73.028h13.546V59.434h-43.5V73.028Zm47.12,31.626v7.25c0,8.971,6.486,17.127,21.844,17.127,13.927,0,21.558-7.25,21.558-20.3,0-8.246-2.29-12.778-6.2-16.221s-9.349-5.8-15.644-9.606c-3.339-2.175-5.533-4.259-5.056-8.337,0.382-2.99,2.385-4.8,5.819-4.531,5.532,0.362,5.342,5.8,5.532,9.787h15.453C442,67.047,434.558,57.8,419.964,57.8c-12.973,0-21.081,6.525-21.081,19.3,0,5.981,1.812,10.15,4.865,13.593,3.147,3.444,7.535,6.072,12.686,8.881,4.388,2.538,9.348,4.713,9.348,10.422,0,3.443-1.717,6.8-5.628,6.8-5.341,0-6.677-3.443-6.677-7.34v-4.8H397.929ZM465.557,127.4V98.673h20.89V85.08h-20.89V73.028h22.7V59.434H448.769V127.4h16.788Zm47.024-55.732c8.2-.181,11.733.181,11.733,8.246,0,4.169-1.144,8.428-6.009,8.428h-5.724V71.668Zm0,28.908h5.533c3.911,0.272,5.246,2.991,5.723,7.159s0.1,9.787.382,15.768a13.746,13.746,0,0,0,.954,3.9h18.314v-0.906a5.905,5.905,0,0,1-1.621-2.357c-0.954-4.349-1.05-16.039-1.526-21.477-0.287-4.712-3.625-7.793-8.3-8.79V93.689c7.058-3.081,8.871-8.246,8.871-15.5,0-13.5-6.868-18.758-20.6-18.758H495.793V127.4h16.788V100.576ZM588.794,127.4V113.807H566V99.126h20.986V85.533H566V73.028H587.65V59.434H549.208V127.4h39.586Zm47.692,0V113.807h-22.8V99.126h20.986V85.533H613.688V73.028h21.654V59.434H596.9V127.4h39.586Zm27.661,0V111.9H648.026v15.5h16.121Zm56.944-44.223V77.468c0-13.865-8.585-19.665-22.893-19.665-15.358,0-22.512,6.887-22.512,21.658v27.911c0,13.865,6.01,21.658,21.463,21.658,17.17,0,24.229-8.156,24.229-19.846v-8.337H704.589v6.162c0,4.169-.477,9.787-6.2,9.787-4.388,0-6.01-2.265-6.01-6.071l0.1-33.621c0-4.44,1.24-7.159,6.486-7.068,3.148,0,5.342,2.99,5.342,8.79v4.35h16.788ZM757.527,107.1c0,3.9-.381,9.7-5.819,9.7s-6.1-5.8-6.1-9.7V79.19c0-4.169.667-9.153,6.009-9.153,5.533,0,5.914,4.984,5.914,9.153V107.1Zm16.789-29c0-13.049-7.918-20.3-22.608-20.3s-22.893,7.25-22.893,20.3v27.64c0,15.314,5.914,23.289,22.893,23.289s22.608-7.975,22.608-23.289V78.1Zm24.321,49.3-1.526-53.285H797.3L808.844,127.4h12.5l11.828-53.285h0.191L831.642,127.4h16.025V59.434H824.2l-8.966,40.145h-0.191l-8.68-40.145H782.707V127.4h15.93Z"/>
</svg>
