<?xml version="1.0" encoding="UTF-8"?>
<!DOCTYPE svg  PUBLIC '-//W3C//DTD SVG 1.1//EN'  'http://www.w3.org/Graphics/SVG/1.1/DTD/svg11.dtd'>
<svg width="580pt" height="194pt" version="1.1" viewBox="0 0 580 194" xmlns="http://www.w3.org/2000/svg">
<g fill="#009cde">
<path d="m0 0h0.07c-0.02 0.02-0.05 0.06-0.07 0.07v-0.07z"/>
<path d="m133.02 54.85c7.06 1.21 13.85 5.06 17.88 11.08 2.59 3.84 3.62 8.49 3.99 13.05 0.51 12.87-5.44 26.37-16.78 33.06-13.13 8.33-29.38 6.29-44.16 6.65-2.09-0.34-2.42 2.05-2.72 3.52-1.62 10.13-3.97 20.12-5.8 30.2-1.26 0.92-2.96 0.45-4.41 0.62-7-0.15-14 0.17-20.99-0.17 1.05-6.24 2.31-12.45 3.51-18.66 2.43-11.6 3.94-23.41 7.06-34.84 11.79 0.46 23.6 0.05 35.4 0.22 5.05 0.01 10.54 0.33 14.98-2.55 8.4-5.12 12.38-14.95 13.81-24.3 1.19-6.02-0.54-12.03-1.77-17.88z"/>
</g>
<path d="m24.42 13.55c1.48-0.42 3.02-0.53 4.55-0.55 171.34 0.01 342.69 0 514.03 0 3.34 0.03 6.7-0.13 10.05 0.1 10.24 1.13 18.94 10.51 18.95 20.88 0 40.34-0.01 80.68 0.01 121.02-0.05 3.65 0.33 7.43-0.98 10.92-2.11 6.59-7.51 12.02-14.11 14.11-3.82 1.41-7.94 0.89-11.91 0.97-169.34-0.01-338.67 0-508 0-3.36-0.03-6.71 0.13-10.06-0.1-10.23-1.14-18.95-10.5-18.95-20.86v-126.06c0-9.5 7.29-18.18 16.42-20.43m2.95 4.18c-8.46 1.47-15.27 9.62-14.95 18.27-0.03 40.67-0.03 81.34 0.01 122.01-0.41 9.92 8.63 19 18.56 18.56 172.67 0.06 345.33 0.05 518 0 9.56 0.4 18.45-7.99 18.54-17.56 0.11-41.34 0.16-82.68 0-124.03-0.06-9.98-9.66-18.39-19.55-17.58-161.99 0.05-323.99-0.03-485.99 0.02-11.53-0.05-23.11-0.31-34.62 0.31z" fill="#cac8c8"/>
<path d="m57.52 35.34c13.81-0.39 27.65 0.01 41.48-0.18 9.63-0.16 19.77 2.12 27 8.84 2.62 2.8 4.54 6.21 5.94 9.76-15.31-0.27-30.62 0.05-45.93-0.16-2.28-0.01-4.57-0.03-6.82 0.39-2.49 7.91-3.17 16.25-5.1 24.3-1.03 7.05-3.28 13.91-3.49 21.07-3.12 11.43-4.63 23.24-7.06 34.84-8.38-0.81-16.79-0.13-25.18-0.46 6.4-32.8 12.83-65.6 19.16-98.4z" fill="#003087"/>
<g fill="#fff">
<path d="m254.23 40.1c4.36 0 8.94-0.7 13.18 0.57 4.14 2.52 3.23 8.19 3.44 12.32-0.19 3.99 0.04 9.66-4.28 11.6-4.05 0.77-8.24 0.41-12.35 0.3-0.08-8.26-0.08-16.53 0.01-24.79m4.84 3.57c-0.13 5.89-0.13 11.79 0 17.68 2.12 0.07 5.35 0.45 6.17-2.11 1.13-4.37 1.13-9.11 0-13.48-0.75-2.73-4.01-2.23-6.17-2.09z"/>
<path d="m280.34 40.47c3.44-0.68 7.91-1.16 10.55 1.65 2.58 3.77 1.81 8.59 1.94 12.9 0.01 3.47-0.41 8.13-4.26 9.47-3.47 0.75-7.84 1.17-10.65-1.45-2.64-3.4-1.74-8.03-1.94-12.04 0.05-3.74 0.03-9.1 4.36-10.53m1.94 3.96c-2.1 1.93-1.3 5.05-1.5 7.57 0.17 2.47-0.41 5.15 0.64 7.47 1.21 2.74 5.96 2.16 6.25-0.92 0.57-3.96 0.61-8.11-0.09-12.07-0.25-2.46-3.44-3.57-5.3-2.05z"/>
<path d="m298.23 40.06c1.71-0.06 3.53-0.35 5.18 0.25 2.29 5.84 4.71 11.64 6.28 17.72-0.23-5.98-0.74-11.96-0.46-17.95 1.55-0.14 3.12-0.14 4.69-0.05 0.14 8.31 0.14 16.63 0 24.94-1.62 0.1-3.25 0.11-4.86-0.06-2.66-5.8-4.75-11.86-6.7-17.93 0.48 5.98 0.85 11.99 0.56 17.99-1.57 0.09-3.14 0.08-4.7-0.06-0.07-8.28-0.09-16.57 0.01-24.85z"/>
<path d="m323.08 40.08c2.16-0.18 4.35-0.22 6.5 0.12 1.97 8.24 3.88 16.5 5.67 24.78-1.72 0.08-3.44 0.1-5.14-0.07-0.55-2.04-0.82-4.13-1.3-6.18-1.62-0.2-3.26-0.22-4.89-0.08-1.42 1.65-0.99 4.16-1.61 6.16-1.74 0.3-3.53 0.23-5.28 0.11 1.82-8.32 3.87-16.61 6.05-24.84m3.29 4.51c-0.78 3.44-1.74 6.87-1.92 10.41 0.89 0 2.65-0.01 3.53-0.01-0.5-3.67-1.43-7.29-1.46-11.01l-0.15 0.61z"/>
<path d="m335.32 40.18c5.34-0.37 10.7-0.18 16.04-0.12l0.04 3.44c-1.73 0.1-3.44 0.05-5.16 0.15-1.04 7-0.04 14.2-0.47 21.28-1.57 0.13-3.14 0.13-4.69 0.04-0.27-7.08 0.1-14.17-0.14-21.24-1.85-0.14-3.69-0.07-5.53-0.21-0.1-1.11-0.12-2.22-0.09-3.34z"/>
<path d="m355.22 40.1c4.48-0.17 8.98-0.26 13.45 0.08 0.03 1.13 0.01 2.25-0.08 3.37-2.84 0.18-5.69-0.06-8.53 0.16-0.15 2.19-0.15 4.4 0 6.59 2.6 0.18 5.2-0.01 7.81 0.11 0.12 1.16 0.17 2.33 0.14 3.51-2.64 0.17-5.3-0.01-7.94 0.14-0.17 2.41-0.15 4.83 0 7.24 2.83 0.21 5.68-0.03 8.52 0.15 0.09 1.12 0.12 2.24 0.09 3.37-4.48 0.34-8.98 0.25-13.46 0.07-0.07-8.26-0.08-16.53 0-24.79z"/>
<path d="m381.04 40.06c1.61-0.11 3.24-0.13 4.86 0 1.21 6.3 2.1 12.67 2.86 19.04 1.46-6.28 2.03-12.74 3.53-19.02 1.34-0.13 2.72-0.17 4.05 0.13 1.26 6.9 3.13 13.76 3.13 20.82 1.18-6.94 2-13.93 3.03-20.89 1.65-0.22 3.32-0.19 5-0.15-1.43 8.32-2.92 16.64-4.69 24.89-1.89 0.21-3.8 0.21-5.68 0.03-1.27-5.55-2.56-11.17-2.58-16.89-1.17 5.58-1.79 11.26-2.98 16.83-1.96 0.25-3.97 0.29-5.91-0.06-1.43-8.26-3.35-16.44-4.62-24.73z"/>
<path d="m411.23 40.08c1.56-0.14 3.12-0.14 4.69-0.05 0.14 8.31 0.14 16.63 0 24.94-1.57 0.09-3.14 0.09-4.69-0.05-0.09-8.28-0.09-16.57 0-24.84z"/>
<path d="m420.33 40.18c5.32-0.37 10.69-0.19 16.03-0.12l0.04 3.44c-1.73 0.1-3.44 0.05-5.16 0.15-1.05 7-0.04 14.2-0.47 21.28-1.57 0.13-3.14 0.13-4.69 0.04-0.27-7.08 0.1-14.16-0.14-21.24-1.85-0.14-3.69-0.07-5.53-0.21-0.1-1.11-0.13-2.23-0.08-3.34z"/>
<path d="m439.23 40.08c1.55-0.14 3.12-0.14 4.7-0.05 0.21 3.3-0.07 6.61 0.14 9.91 2 0.15 4.01 0.14 6.02-0.01 0.24-3.28-0.05-6.57 0.14-9.85 1.55-0.14 3.12-0.14 4.69-0.05 0.14 8.31 0.14 16.63 0 24.94-1.57 0.09-3.14 0.09-4.7-0.05-0.19-3.74 0.13-7.49-0.13-11.22-2.01-0.16-4.03-0.17-6.03 0-0.22 3.75 0.1 7.51-0.13 11.27-1.57 0.09-3.15 0.09-4.7-0.05-0.09-8.27-0.09-16.56 0-24.84z"/>
<path d="m479.15 86.18c4.22-0.33 8.48-0.28 12.7-0.03-3.33 18.91-7.17 37.78-10.95 56.61-4.22 0.45-8.49 0.3-12.72 0.11 3.59-18.9 7.18-37.83 10.97-56.69z"/>
<path d="m230.14 88.18c8.31-0.32 16.68-0.34 25 0.12 6.12 0.24 12.88 3.31 14.94 9.5 2.61 8.85-1.66 19.19-9.97 23.34-7.26 3.71-15.66 2.32-23.47 3.09-1.27 6.11-2.27 12.29-3.36 18.44-4.66 0.63-9.39 0.33-14.08 0.24 3.53-18.26 7.2-36.51 10.94-54.73m11.57 9.88c-1.47 5.18-2.07 10.58-3.05 15.87 3.72 0.09 7.5 0.35 11.19-0.32 6.3-1.18 8.87-11.3 3.32-14.82-3.64-1.34-7.66-0.73-11.46-0.73z"/>
<path d="m378.15 88.17c8.31-0.3 16.66-0.33 24.98 0.13 6.14 0.23 12.88 3.32 14.96 9.51 2.59 8.84-1.66 19.16-9.95 23.31-7.26 3.73-15.68 2.34-23.5 3.11-1.27 6.11-2.27 12.28-3.36 18.43-4.66 0.65-9.4 0.33-14.08 0.25 3.54-18.26 7.19-36.52 10.95-54.74m11.57 9.89c-1.47 5.18-2.08 10.58-3.06 15.87 3.72 0.09 7.5 0.35 11.19-0.32 6.32-1.18 8.88-11.33 3.29-14.83-3.63-1.32-7.64-0.72-11.42-0.72z"/>
<path d="m286.41 101.48c5.51-0.48 11.15-0.65 16.59 0.52 4.23 0.86 8.39 3.73 9.45 8.12 0.7 4.31 0.13 8.71-0.87 12.93-1.44 6.57-2.57 13.21-4.12 19.76-4.33 0.4-8.7 0.16-13.04 0.17 0.1-2 0.4-3.98 0.56-5.98-3.35 3.14-7.15 6.27-11.91 6.68-5.21 0.96-11.47-0.74-13.95-5.8-2.52-6.04-0.25-13.91 5.62-17.14 7.5-4.61 16.6-3.29 24.94-3.99 0.51-2.67-0.6-5.56-3.53-6.09-6.96-1.53-14.34-0.39-20.96 2.11 0.54-3.22 1.01-6.47 1.95-9.6 2.99-0.98 6.15-1.31 9.27-1.69m-1.02 24.06c-4.21 0.31-6.09 6.33-2.6 8.74 6.65 2.87 14.49-1.97 15.08-9.14-4.15-0.24-8.38-0.4-12.48 0.4z"/>
<path d="m434.41 101.48c5.51-0.48 11.15-0.65 16.59 0.52 4.23 0.86 8.38 3.73 9.44 8.1 0.72 4.32 0.14 8.73-0.86 12.95-1.44 6.57-2.57 13.21-4.11 19.76-4.34 0.41-8.7 0.16-13.05 0.17 0.09-2.01 0.4-4 0.56-6-5.31 6.01-14.65 9.26-22 5.07-5.41-3.06-5.89-10.44-3.52-15.6 2.09-4.55 6.87-7.11 11.54-8.25 6.09-1.65 12.47-0.82 18.68-1.45 0.5-2.67-0.56-5.56-3.51-6.09-6.97-1.53-14.35-0.39-20.98 2.1 0.54-3.22 1.01-6.47 1.96-9.6 2.99-0.97 6.15-1.3 9.26-1.68m-1.02 24.06c-4.17 0.45-6.47 6.26-2.61 8.75 6.65 2.85 14.52-1.97 15.08-9.15-4.15-0.23-8.37-0.4-12.47 0.4z"/>
<path d="m321.16 102.13c4.06-0.19 8.16-0.33 12.21 0.07 1.99 9.32 3.7 18.7 5.66 28.03 5.64-9 9.6-19.01 15.1-28.1 4.55-0.29 9.12-0.14 13.67-0.07-9.11 15.47-18.26 30.92-27.4 46.38-2.6 4.22-5.92 8.73-11.07 9.82-4.31 0.83-8.74 0.87-13.1 0.65 0.2-2.93 0.68-5.84 1.27-8.72 3.29-0.55 7.14 0.5 9.97-1.71 1.97-1.81 4.12-4.42 3.12-7.27-3.08-13.04-6.39-26.03-9.43-39.08z"/>
</g>
<path d="m79.19 53.99c2.25-0.42 4.54-0.4 6.82-0.39 15.31 0.21 30.62-0.11 45.93 0.16 0.27 0.27 0.81 0.81 1.08 1.09 1.23 5.85 2.96 11.86 1.77 17.88-1.43 9.35-5.41 19.18-13.81 24.3-4.44 2.88-9.93 2.56-14.98 2.55-11.8-0.17-23.61 0.24-35.4-0.22 0.21-7.16 2.46-14.02 3.49-21.07 1.93-8.05 2.61-16.39 5.1-24.3z" fill="#012169"/>
</svg>
