<?xml version="1.0" encoding="UTF-8"?>
<!DOCTYPE svg  PUBLIC '-//W3C//DTD SVG 1.1//EN'  'http://www.w3.org/Graphics/SVG/1.1/DTD/svg11.dtd'>
<svg enable-background="new 0 0 355.777 127.011" version="1.1" viewBox="0 0 355.78 127.01" xml:space="preserve" xmlns="http://www.w3.org/2000/svg">

	<path d="m69.789 31.119c-2.205-1.451-4.691-2.444-7.271-2.858-2.578-0.421-5.229-0.273-7.746 0.363-5.057 1.254-9.492 4.529-12.36 8.756-2.928 4.228-4.043 9.521-3.563 14.566 0.542 5.063 2.649 9.93 5.901 13.8 1.636 1.927 3.539 3.61 5.643 4.971 2.092 1.364 4.457 2.368 6.86 3.103 4.833 1.45 10.02 1.688 14.939 0.718 4.93-0.957 9.545-3.227 13.196-6.563 1.833-1.662 3.438-3.574 4.787-5.658 1.334-2.096 2.408-4.356 3.227-6.708 3.302-9.413 2.459-20.258-2.801-28.647-2.531-4.246-6.067-7.859-10.092-10.731-2.02-1.436-4.197-2.634-6.455-3.654-2.257-1.032-4.613-1.838-7.022-2.408-9.636-2.382-20.029-1.033-28.91 3.378-8.959 4.358-16.407 11.571-21.382 20.211-5 8.634-7.618 18.64-7.553 28.583 0.037 4.973 0.72 9.928 2.078 14.685 0.686 2.377 1.553 4.689 2.549 6.961 1.014 2.262 2.198 4.446 3.494 6.561 5.237 8.424 12.729 15.471 21.502 19.956 8.787 4.524 18.821 6.537 28.851 6.457 10.058-0.061 20.087-2.067 29.62-5.579 9.556-3.494 18.646-8.389 27.363-13.953 4.364-2.782 8.635-5.747 12.86-8.806l12.667-9.435 25.328-18.9 25.382-18.829c4.228-3.121 8.46-6.31 12.784-9.423 4.327-3.103 8.736-6.13 13.262-9.013 9.042-5.767 18.651-10.897 28.914-14.645 10.271-3.678 21.205-5.945 32.259-5.873 11.021 0.013 22.255 2.32 32.21 7.558 9.963 5.216 18.303 13.23 24.109 22.754 1.438 2.392 2.748 4.862 3.868 7.422 1.101 2.564 2.063 5.206 2.813 7.903 1.482 5.396 2.223 10.983 2.174 16.556-0.096 11.142-3.174 22.199-8.883 31.738-5.676 9.538-14.147 17.511-24.253 22.242-5.026 2.417-10.498 3.937-16.056 4.542-5.564 0.566-11.239 0.163-16.642-1.291-2.706-0.701-5.343-1.665-7.856-2.875-2.519-1.2-4.952-2.609-7.198-4.275-4.48-3.333-8.388-7.5-11.17-12.379-1.399-2.427-2.544-5.005-3.386-7.682-0.815-2.686-1.318-5.463-1.525-8.249-0.406-5.564 0.415-11.187 2.375-16.391 0.983-2.602 2.252-5.101 3.813-7.414 1.576-2.304 3.441-4.415 5.563-6.238 4.231-3.671 9.504-6.07 14.951-6.978 5.451-0.927 11.091-0.513 16.314 1.204 2.606 0.878 5.125 2.008 7.406 3.604 2.275 1.573 4.296 3.482 6.004 5.63 3.395 4.313 5.48 9.607 5.89 15.05 0.345 5.426-1.028 11.031-4.282 15.403-3.205 4.353-7.955 7.555-13.208 8.649-2.615 0.557-5.335 0.601-7.938 0.073-2.605-0.521-5.07-1.622-7.218-3.154 2.205 1.45 4.692 2.444 7.271 2.857 2.579 0.421 5.229 0.271 7.746-0.364 5.057-1.255 9.491-4.53 12.357-8.757 2.929-4.226 4.042-9.52 3.561-14.563-0.542-5.062-2.649-9.928-5.901-13.796-1.635-1.927-3.538-3.61-5.642-4.97-2.091-1.362-4.455-2.369-6.857-3.102-4.832-1.45-10.018-1.687-14.937-0.717-4.928 0.957-9.542 3.228-13.191 6.563-1.832 1.661-3.437 3.573-4.785 5.656-1.333 2.095-2.407 4.355-3.225 6.706-3.305 9.409-2.458 20.253 2.799 28.639 2.531 4.244 6.067 7.857 10.09 10.728 2.02 1.436 4.196 2.633 6.454 3.653 2.256 1.031 4.611 1.837 7.021 2.406 4.809 1.195 9.824 1.423 14.736 0.865 4.908-0.612 9.724-2.019 14.166-4.24 8.957-4.358 16.403-11.57 21.376-20.208 4.998-8.631 7.616-18.636 7.55-28.577-0.029-4.971-0.716-9.925-2.073-14.682-0.686-2.377-1.552-4.688-2.548-6.96-1.015-2.262-2.199-4.444-3.494-6.559-5.237-8.423-12.727-15.468-21.5-19.953-8.784-4.523-18.817-6.534-28.845-6.455-10.059 0.053-20.08 2.098-29.624 5.558-9.545 3.519-18.645 8.386-27.351 13.978-4.357 2.794-8.635 5.748-12.865 8.8-4.224 3.06-8.402 6.228-12.646 9.38l-25.37 18.926-25.422 18.851-12.726 9.42c-4.323 3.109-8.725 6.148-13.26 9.021-9.059 5.743-18.651 10.896-28.924 14.618-5.13 1.859-10.423 3.353-15.825 4.371l-4.07 0.676c-1.365 0.163-2.727 0.359-4.1 0.465-2.739 0.27-5.498 0.37-8.259 0.37-11.019-0.012-22.25-2.321-32.203-7.557-9.962-5.215-18.301-13.228-24.108-22.749-1.437-2.391-2.746-4.861-3.866-7.421-1.101-2.564-2.063-5.206-2.813-7.901-1.482-5.397-2.225-10.983-2.169-16.554 0.096-11.14 3.172-22.195 8.88-31.73 5.675-9.538 14.144-17.511 24.247-22.241 5.025-2.417 10.496-3.937 16.052-4.541 5.563-0.565 11.237-0.159 16.639 1.292 2.705 0.701 5.342 1.665 7.854 2.874 2.518 1.2 4.951 2.608 7.196 4.274 4.479 3.331 8.386 7.498 11.167 12.375 1.399 2.426 2.544 5.003 3.386 7.68 0.815 2.685 1.318 5.461 1.525 8.246 0.404 5.563-0.412 11.185-2.376 16.387-0.981 2.601-2.25 5.099-3.811 7.412-1.575 2.303-3.44 4.414-5.561 6.236-4.229 3.672-9.501 6.069-14.946 6.977-5.449 0.928-11.088 0.514-16.311-1.202-2.606-0.876-5.123-2.009-7.404-3.602-2.275-1.574-4.295-3.483-6.003-5.63-3.394-4.312-5.48-9.604-5.89-15.045-0.345-5.425 1.025-11.031 4.28-15.401 3.204-4.353 7.953-7.555 13.205-8.65 2.615-0.557 5.335-0.602 7.938-0.074 2.607 0.519 5.073 1.62 7.219 3.153" stroke="#000" stroke-miterlimit="10" stroke-width="3"/>

</svg>
