<svg xmlns="http://www.w3.org/2000/svg" width="420" height="72" viewBox="0 0 420 72">
  <defs>
    <style>
      .cls-1 {
        fill: #fff;
        fill-rule: evenodd;
      }
    </style>
  </defs>
  <path id="comments_copy" data-name="comments? copy" class="cls-1" d="M86.114,23.8V19.419c0-10.648-5.22-15.1-13.92-15.1-9.338,0-13.688,5.289-13.688,16.633V42.385c0,10.648,3.654,16.633,13.05,16.633,10.44,0,14.732-6.264,14.732-15.241v-6.4H76.08v4.733c0,3.2-.29,7.516-3.77,7.516-2.668,0-3.654-1.74-3.654-4.663l0.058-25.82c0-3.41.754-5.5,3.944-5.428,1.914,0,3.248,2.3,3.248,6.751V23.8H86.114ZM108.85,42.176c0,2.993-.232,7.447-3.538,7.447s-3.712-4.454-3.712-7.447V20.741c0-3.2.406-7.029,3.654-7.029,3.364,0,3.6,3.828,3.6,7.029V42.176Zm10.208-22.271c0-10.022-4.814-15.589-13.746-15.589S91.393,9.884,91.393,19.906V41.133c0,11.762,3.6,17.886,13.92,17.886s13.746-6.124,13.746-17.886V19.906Zm15.37,37.86L133.5,16.844h0.116l7.018,40.922h7.6l7.192-40.922h0.116L154.5,57.766h9.744V5.569H149.972L144.52,36.4H144.4L139.126,5.569H124.742v52.2h9.686Zm45.7,0L179.2,16.844h0.116l7.018,40.922h7.6l7.192-40.922h0.116L200.2,57.766h9.744V5.569H195.676L190.224,36.4h-0.116L184.83,5.569H170.446v52.2h9.686Zm59.914,0V47.327H226.184V36.052h12.76V25.613h-12.76v-9.6H239.35V5.569H215.976v52.2h24.07Zm22.156,0h10.44V5.569h-9.686l0.986,29.16h-0.174L255.88,5.569h-10.5v52.2h9.686L254.14,28.675l0.116-.139Zm14.79-41.757h8V57.766H295.2V16.009h8.236V5.569H276.992V16.009ZM306.224,40.3v5.568c0,6.89,3.944,13.154,13.282,13.154,8.468,0,13.108-5.568,13.108-15.589,0-6.333-1.392-9.813-3.77-12.457s-5.684-4.454-9.512-7.377c-2.03-1.67-3.364-3.271-3.074-6.4,0.232-2.3,1.45-3.689,3.538-3.48,3.364,0.278,3.248,4.454,3.364,7.516h9.4c0.464-9.813-4.06-16.912-12.934-16.912-7.888,0-12.818,5.011-12.818,14.824a17.228,17.228,0,0,0,2.958,10.439c1.914,2.645,4.582,4.663,7.714,6.82,2.668,1.949,5.684,3.619,5.684,8,0,2.645-1.044,5.22-3.422,5.22-3.248,0-4.06-2.645-4.06-5.637V40.3h-9.454Zm39.092-19.487c0-3.271.058-7.1,3.48-7.1,2.32,0,3.248,2.088,3.248,4.593,0,4.384-4.524,10.091-6.438,12.945-1.508,2.923-1.508,6.472-1.45,9.813h8.758c0.232-3.062.232-4.454,1.74-7.029,1.16-1.949,2.494-3.758,3.77-5.637,2.262-3.34,3.828-6.472,3.828-10.857,0-9.465-6.148-13.223-13.282-13.223-8.062,0-13.282,6.751-12.876,16.494h9.222Zm8.062,36.955-0.058-11.9h-9.8v11.9h9.86Z" transform="translate(-0.375 4.328)"/>
</svg>
