<svg xmlns="http://www.w3.org/2000/svg" width="420" height="72" viewBox="0 0 420 72">
  <defs>
    <style>
      .cls-1 {
        fill: #fff;
        fill-rule: evenodd;
      }
    </style>
  </defs>
  <path id="contact_me_copy" data-name="contact me copy" class="cls-1" d="M81.068,23.8V19.419c0-10.648-5.22-15.1-13.92-15.1C57.81,4.317,53.46,9.606,53.46,20.95V42.385c0,10.648,3.654,16.633,13.05,16.633,10.44,0,14.732-6.264,14.732-15.241v-6.4H71.034v4.733c0,3.2-.29,7.516-3.77,7.516-2.668,0-3.654-1.74-3.654-4.663l0.058-25.82c0-3.41.754-5.5,3.944-5.428,1.914,0,3.248,2.3,3.248,6.751V23.8H81.068Zm23.606,18.373c0,2.993-.232,7.447-3.538,7.447s-3.712-4.454-3.712-7.447V20.741c0-3.2.406-7.029,3.654-7.029,3.364,0,3.6,3.828,3.6,7.029V42.176Zm10.208-22.271c0-10.022-4.814-15.589-13.746-15.589s-13.92,5.568-13.92,15.589V41.133c0,11.762,3.6,17.886,13.92,17.886s13.746-6.124,13.746-17.886V19.906Zm23.026,37.86h10.44V5.569h-9.686l0.986,29.16h-0.174l-7.888-29.16h-10.5v52.2h9.686l-0.928-29.091,0.116-.139Zm15.66-41.757h8V57.766H171.78V16.009h8.236V5.569H153.568V16.009Zm36.773,41.757L191.559,47.6h8l1.45,10.161h10.324l-9.454-52.2h-12.3l-9.512,52.2h10.266Zm8.235-19.347H192.66l2.958-23.384h0.116ZM243.12,23.8V19.419c0-10.648-5.22-15.1-13.92-15.1-9.337,0-13.687,5.289-13.687,16.633V42.385c0,10.648,3.654,16.633,13.049,16.633,10.44,0,14.732-6.264,14.732-15.241v-6.4H233.086v4.733c0,3.2-.29,7.516-3.77,7.516-2.668,0-3.654-1.74-3.654-4.663l0.058-25.82c0-3.41.754-5.5,3.944-5.428,1.914,0,3.248,2.3,3.248,6.751V23.8H243.12Zm5.1-7.795h8V57.766h10.207V16.009h8.236V5.569H248.225V16.009Zm57.651,41.757-0.927-40.922h0.116l7.017,40.922h7.6l7.192-40.922h0.116l-1.044,40.922h9.744V5.569H321.42L315.968,36.4h-0.116L310.574,5.569H296.191v52.2h9.685Zm60.784,0V47.327H352.8V36.052h12.76V25.613H352.8v-9.6h13.166V5.569H342.591v52.2H366.66Z" transform="translate(-0.062 4.328)"/>
</svg>
