<svg xmlns="http://www.w3.org/2000/svg" width="420" height="72" viewBox="0 0 420 72">
  <defs>
    <style>
      .cls-1 {
        fill: #fff;
        fill-rule: evenodd;
      }
    </style>
  </defs>
  <path id="dead_links_copy" data-name="dead links? copy" class="cls-1" d="M65.917,57.766c3.132,0,6.38-.348,9.048-2.436,2.958-2.227,4.292-6.055,4.35-11.274V20.88c0-5.011-.638-10.091-4.582-12.875-3.306-2.3-7.772-2.436-11.484-2.436H52.171v52.2H65.917Zm-3.538-42.8c4.988,0.139,6.67.487,6.728,6.612V38.627c0.174,6.96.116,10.3-6.728,9.743V14.965Zm47.559,42.8V47.327H96.077V36.052h12.759V25.613H96.077v-9.6h13.165V5.569H85.869v52.2h24.069Zm14.5,0L125.657,47.6h8l1.45,10.161h10.323l-9.453-52.2h-12.3l-9.512,52.2h10.266Zm8.236-19.347h-5.916l2.958-23.384h0.116Zm31.088,19.347c3.132,0,6.38-.348,9.047-2.436,2.958-2.227,4.292-6.055,4.35-11.274V20.88c0-5.011-.638-10.091-4.582-12.875-3.305-2.3-7.771-2.436-11.483-2.436H150.017v52.2h13.746Zm-3.538-42.8c4.988,0.139,6.67.487,6.728,6.612V38.627c0.174,6.96.116,10.3-6.728,9.743V14.965Zm61.6,42.8V47.327H209.351V5.569H199.143v52.2H221.82Zm15.544,0V5.569H227.156v52.2h10.208Zm23.722,0h10.44V5.569H261.84l0.986,29.16h-0.174l-7.888-29.16h-10.5v52.2h9.686l-0.928-29.091,0.116-.139Zm27.144,0V44.891l2.262-5.289,5.626,18.164H306.9l-9.859-29.16,9.279-23.036H295.886l-7.54,20.879H288.23V5.569H278.022v52.2H288.23ZM310.1,40.3v5.568c0,6.89,3.944,13.154,13.282,13.154,8.468,0,13.108-5.568,13.108-15.589,0-6.333-1.392-9.813-3.77-12.457s-5.684-4.454-9.512-7.377c-2.03-1.67-3.364-3.271-3.074-6.4,0.232-2.3,1.45-3.689,3.538-3.48,3.364,0.278,3.248,4.454,3.364,7.516h9.4c0.464-9.813-4.06-16.912-12.934-16.912-7.888,0-12.818,5.011-12.818,14.824a17.228,17.228,0,0,0,2.958,10.439c1.914,2.645,4.582,4.663,7.714,6.82,2.668,1.949,5.684,3.619,5.684,8,0,2.645-1.044,5.22-3.422,5.22-3.248,0-4.06-2.645-4.06-5.637V40.3H310.1Zm39.962-19.487c0-3.271.058-7.1,3.48-7.1,2.32,0,3.248,2.088,3.248,4.593,0,4.384-4.524,10.091-6.438,12.945-1.508,2.923-1.508,6.472-1.45,9.813h8.758c0.232-3.062.232-4.454,1.74-7.029,1.16-1.949,2.494-3.758,3.77-5.637,2.262-3.34,3.828-6.472,3.828-10.857,0-9.465-6.148-13.223-13.282-13.223-8.062,0-13.282,6.751-12.876,16.494h9.222Zm8.062,36.955-0.058-11.9h-9.8v11.9h9.86Z" transform="translate(0.422 4.328)"/>
</svg>
