<svg xmlns="http://www.w3.org/2000/svg" width="420" height="72" viewBox="0 0 420 72">
  <defs>
    <style>
      .cls-1 {
        fill: #fff;
        fill-rule: evenodd;
      }
    </style>
  </defs>
  <path id="requests_copy" data-name="requests? copy" class="cls-1" d="M80.532,14.965c4.988-.139,7.134.139,7.134,6.333,0,3.2-.7,6.472-3.654,6.472h-3.48V14.965Zm0,22.2H83.9c2.378,0.209,3.19,2.3,3.48,5.5s0.058,7.516.232,12.11a12.9,12.9,0,0,0,.58,2.993H99.324v-0.7a4.716,4.716,0,0,1-.986-1.809c-0.58-3.34-.638-12.318-0.928-16.494-0.174-3.619-2.2-5.985-5.046-6.751V31.876c4.292-2.366,5.394-6.333,5.394-11.9,0-10.37-4.176-14.406-12.528-14.406H70.325v52.2H80.532v-20.6Zm47.792,20.6V47.327H114.462V36.052h12.76V25.613h-12.76v-9.6h13.166V5.569H104.255v52.2h24.069Zm33.7-37.86c0-10.022-4.814-15.589-13.746-15.589s-13.919,5.568-13.919,15.589V41.133c0,11.762,3.595,17.886,13.919,17.886a18.9,18.9,0,0,0,2.088-.139,15.172,15.172,0,0,0,1.856-.278l5.742,7.725,5.974-6.124-4.756-6.124c2.088-3.062,2.842-7.377,2.842-12.945V19.906Zm-17.458.835c0-3.2.406-7.029,3.654-7.029,3.364,0,3.6,3.828,3.6,7.029V42.176c0,2.993-.232,7.447-3.538,7.447s-3.712-4.454-3.712-7.447V20.741ZM168.171,43.36c0,10.718,5.045,15.659,13.687,15.659,10.44,0,13.746-6.82,13.746-15.659V5.569H185.4V44.612c0,2.227-.812,5.011-3.48,5.011-2.9,0-3.538-2.157-3.538-4.663V5.569H168.171V43.36Zm58,14.406V47.327H212.308V36.052h12.76V25.613h-12.76v-9.6h13.166V5.569H202.1v52.2h24.07ZM230.811,40.3v5.568c0,6.89,3.943,13.154,13.281,13.154,8.468,0,13.108-5.568,13.108-15.589,0-6.333-1.392-9.813-3.77-12.457s-5.684-4.454-9.512-7.377c-2.03-1.67-3.364-3.271-3.074-6.4,0.232-2.3,1.45-3.689,3.538-3.48,3.364,0.278,3.248,4.454,3.364,7.516h9.4c0.464-9.813-4.06-16.912-12.934-16.912-7.888,0-12.817,5.011-12.817,14.824a17.228,17.228,0,0,0,2.957,10.439c1.914,2.645,4.582,4.663,7.714,6.82,2.668,1.949,5.684,3.619,5.684,8,0,2.645-1.044,5.22-3.422,5.22-3.248,0-4.06-2.645-4.06-5.637V40.3h-9.453Zm30.8-24.289h8V57.766H279.82V16.009h8.236V5.569H261.609V16.009Zm30.1,24.289v5.568c0,6.89,3.943,13.154,13.281,13.154,8.468,0,13.108-5.568,13.108-15.589,0-6.333-1.392-9.813-3.77-12.457s-5.684-4.454-9.512-7.377c-2.03-1.67-3.364-3.271-3.074-6.4,0.232-2.3,1.45-3.689,3.538-3.48,3.364,0.278,3.248,4.454,3.364,7.516h9.4c0.464-9.813-4.06-16.912-12.934-16.912-7.888,0-12.817,5.011-12.817,14.824a17.235,17.235,0,0,0,2.957,10.439c1.914,2.645,4.582,4.663,7.714,6.82,2.668,1.949,5.684,3.619,5.684,8,0,2.645-1.044,5.22-3.422,5.22-3.248,0-4.06-2.645-4.06-5.637V40.3h-9.453Zm39.961-19.487c0-3.271.058-7.1,3.48-7.1,2.32,0,3.248,2.088,3.248,4.593,0,4.384-4.524,10.091-6.438,12.945-1.508,2.923-1.508,6.472-1.45,9.813h8.758c0.232-3.062.232-4.454,1.74-7.029,1.16-1.949,2.494-3.758,3.77-5.637,2.262-3.34,3.828-6.472,3.828-10.857,0-9.465-6.148-13.223-13.282-13.223-8.062,0-13.281,6.751-12.875,16.494h9.221Zm8.062,36.955-0.058-11.9h-9.8v11.9h9.86Z" transform="translate(0.547 0.688)"/>
</svg>
