<svg xmlns="http://www.w3.org/2000/svg" width="420" height="72" viewBox="0 0 420 72">
  <defs>
    <style>
      .cls-1 {
        fill: #fff;
        fill-rule: evenodd;
      }
    </style>
  </defs>
  <path id="suggestions_copy" data-name="suggestions? copy" class="cls-1" d="M32.117,40.3v5.568c0,6.89,3.944,13.154,13.282,13.154,8.468,0,13.108-5.568,13.108-15.589,0-6.333-1.392-9.813-3.77-12.457s-5.684-4.454-9.512-7.377c-2.03-1.67-3.364-3.271-3.074-6.4,0.232-2.3,1.45-3.689,3.538-3.48,3.364,0.278,3.248,4.454,3.364,7.516h9.4c0.464-9.813-4.06-16.912-12.934-16.912C37.627,4.317,32.7,9.327,32.7,19.14A17.229,17.229,0,0,0,35.655,29.58c1.914,2.645,4.582,4.663,7.714,6.82,2.668,1.949,5.684,3.619,5.684,8,0,2.645-1.044,5.22-3.422,5.22-3.248,0-4.06-2.645-4.06-5.637V40.3H32.117ZM63.2,43.36c0,10.718,5.046,15.659,13.688,15.659,10.44,0,13.746-6.82,13.746-15.659V5.569H80.43V44.612c0,2.227-.812,5.011-3.48,5.011-2.9,0-3.538-2.157-3.538-4.663V5.569H63.2V43.36Zm60.087,14.476V29.441H109.43v9.4h3.654v4.106c0,3.34-.116,6.681-3.6,6.681-2.668,0-3.77-1.74-3.77-4.663V19.14c0-3.41.754-5.5,3.944-5.428,2.726,0.07,3.19,2.3,3.19,6.751v2.853H123.06v-3.9c0-10.648-5.162-15.1-13.862-15.1-9.337,0-13.687,5.289-13.687,16.633V42.385c0,9.465,2.784,16.633,11.425,16.633,4.408,0,6.728-1.392,8.816-5.846h0.116l0.464,4.663h6.96Zm32.828,0V29.441H142.258v9.4h3.654v4.106c0,3.34-.116,6.681-3.6,6.681-2.668,0-3.77-1.74-3.77-4.663V19.14c0-3.41.754-5.5,3.944-5.428,2.726,0.07,3.19,2.3,3.19,6.751v2.853h10.208v-3.9c0-10.648-5.162-15.1-13.862-15.1-9.338,0-13.687,5.289-13.687,16.633V42.385c0,9.465,2.784,16.633,11.425,16.633,4.408,0,6.728-1.392,8.816-5.846H148.7l0.464,4.663h6.96Zm29.87-.07V47.327H172.128V36.052h12.76V25.613h-12.76v-9.6h13.166V5.569H161.921v52.2H185.99ZM189.761,40.3v5.568c0,6.89,3.944,13.154,13.281,13.154,8.468,0,13.108-5.568,13.108-15.589,0-6.333-1.392-9.813-3.77-12.457s-5.684-4.454-9.512-7.377c-2.03-1.67-3.364-3.271-3.074-6.4,0.232-2.3,1.45-3.689,3.538-3.48,3.364,0.278,3.248,4.454,3.364,7.516h9.4c0.464-9.813-4.06-16.912-12.934-16.912-7.888,0-12.817,5.011-12.817,14.824A17.228,17.228,0,0,0,193.3,29.58c1.913,2.645,4.581,4.663,7.713,6.82,2.668,1.949,5.684,3.619,5.684,8,0,2.645-1.044,5.22-3.422,5.22-3.248,0-4.06-2.645-4.06-5.637V40.3h-9.453Zm29.928-24.289h8V57.766H237.9V16.009h8.236V5.569H219.689V16.009Zm41.469,41.757V5.569H250.951v52.2h10.207Zm23.316-15.589c0,2.993-.232,7.447-3.538,7.447s-3.712-4.454-3.712-7.447V20.741c0-3.2.406-7.029,3.654-7.029,3.364,0,3.6,3.828,3.6,7.029V42.176Zm10.208-22.271c0-10.022-4.814-15.589-13.746-15.589s-13.919,5.568-13.919,15.589V41.133c0,11.762,3.6,17.886,13.919,17.886s13.746-6.124,13.746-17.886V19.906Zm22.156,37.86h10.44V5.569h-9.686l0.986,29.16H318.4l-7.888-29.16h-10.5v52.2H309.7l-0.928-29.091,0.116-.139ZM331.281,40.3v5.568c0,6.89,3.943,13.154,13.281,13.154,8.468,0,13.108-5.568,13.108-15.589,0-6.333-1.392-9.813-3.77-12.457s-5.684-4.454-9.512-7.377c-2.03-1.67-3.364-3.271-3.074-6.4,0.232-2.3,1.45-3.689,3.538-3.48,3.364,0.278,3.248,4.454,3.364,7.516h9.4c0.464-9.813-4.06-16.912-12.934-16.912-7.888,0-12.817,5.011-12.817,14.824a17.235,17.235,0,0,0,2.957,10.439c1.914,2.645,4.582,4.663,7.714,6.82,2.668,1.949,5.684,3.619,5.684,8,0,2.645-1.044,5.22-3.422,5.22-3.248,0-4.06-2.645-4.06-5.637V40.3h-9.453Zm39.091-19.487c0-3.271.058-7.1,3.48-7.1,2.32,0,3.248,2.088,3.248,4.593,0,4.384-4.524,10.091-6.438,12.945-1.508,2.923-1.508,6.472-1.45,9.813h8.758c0.232-3.062.232-4.454,1.74-7.029,1.16-1.949,2.494-3.758,3.77-5.637,2.262-3.34,3.828-6.472,3.828-10.857,0-9.465-6.148-13.223-13.282-13.223-8.062,0-13.281,6.751-12.875,16.494h9.221Zm8.062,36.955-0.058-11.9h-9.8v11.9h9.86Z" transform="translate(0.281 4.328)"/>
</svg>
