<svg xmlns="http://www.w3.org/2000/svg" width="420" height="72" viewBox="0 0 420 72">
  <defs>
    <style>
      .cls-1 {
        fill: #fff;
        fill-rule: evenodd;
      }
    </style>
  </defs>
  <path id="typos_copy" data-name="typos? copy" class="cls-1" d="M112.215,16.009h8V57.766h10.208V16.009h8.236V5.569H112.215V16.009ZM153.8,5.569H143.477l10.265,30.274V57.766H163.95V35.843l10.5-30.274H164.24L159.02,22.62H158.9Zm37.468,9.4h1.1a11.163,11.163,0,0,1,4,.418c1.74,0.974,1.914,4.037,1.914,6.055a9.072,9.072,0,0,1-1.276,5.289c-1.624,1.531-3.828,1.253-5.742,1.322V14.965Zm0,42.8V37.444c3.828-.209,7.946.418,11.484-1.67,4.64-2.575,5.742-8.908,5.742-14.545,0-4.245-.464-8.143-2.842-11.344-2.842-3.9-8.526-4.315-12.47-4.315H181.061v52.2h10.207Zm41.644-15.589c0,2.993-.232,7.447-3.538,7.447s-3.712-4.454-3.712-7.447V20.741c0-3.2.406-7.029,3.654-7.029,3.364,0,3.6,3.828,3.6,7.029V42.176ZM243.12,19.906c0-10.022-4.814-15.589-13.746-15.589s-13.919,5.568-13.919,15.589V41.133c0,11.762,3.595,17.886,13.919,17.886s13.746-6.124,13.746-17.886V19.906ZM249.211,40.3v5.568c0,6.89,3.943,13.154,13.281,13.154,8.468,0,13.108-5.568,13.108-15.589,0-6.333-1.392-9.813-3.77-12.457s-5.684-4.454-9.512-7.377c-2.03-1.67-3.364-3.271-3.074-6.4,0.232-2.3,1.45-3.689,3.538-3.48,3.364,0.278,3.248,4.454,3.364,7.516h9.4c0.464-9.813-4.06-16.912-12.934-16.912-7.888,0-12.817,5.011-12.817,14.824a17.228,17.228,0,0,0,2.958,10.439c1.913,2.645,4.581,4.663,7.713,6.82,2.668,1.949,5.684,3.619,5.684,8,0,2.645-1.044,5.22-3.422,5.22-3.248,0-4.06-2.645-4.06-5.637V40.3h-9.453Zm41.411-19.487c0-3.271.058-7.1,3.48-7.1,2.32,0,3.248,2.088,3.248,4.593,0,4.384-4.524,10.091-6.438,12.945-1.508,2.923-1.508,6.472-1.45,9.813h8.758c0.232-3.062.232-4.454,1.74-7.029,1.16-1.949,2.494-3.758,3.77-5.637,2.262-3.34,3.828-6.472,3.828-10.857,0-9.465-6.148-13.223-13.282-13.223-8.062,0-13.281,6.751-12.875,16.494h9.221Zm8.062,36.955-0.058-11.9h-9.8v11.9h9.86Z" transform="translate(0.109 4.328)"/>
</svg>
